SourceEmoji-Regular.ufo
<glyph name="asterisk" format="1">
  <advance width="1000"/>
  <unicode hex="002A"/>
  <outline>
    <contour>
      <point x="464" y="111" type="line"/>
      <point x="538" y="111" type="line"/>
      <point x="543" y="308" type="line"/>
      <point x="716" y="214" type="line"/>
      <point x="753" y="278" type="line"/>
      <point x="586" y="380" type="line"/>
      <point x="753" y="483" type="line"/>
      <point x="716" y="547" type="line"/>
      <point x="543" y="453" type="line"/>
      <point x="538" y="650" type="line"/>
      <point x="464" y="650" type="line"/>
      <point x="459" y="453" type="line"/>
      <point x="287" y="547" type="line"/>
      <point x="249" y="483" type="line"/>
      <point x="417" y="380" type="line"/>
      <point x="249" y="278" type="line"/>
      <point x="287" y="214" type="line"/>
      <point x="459" y="308" type="line"/>
    </contour>
  </outline>
</glyph>
<glyph name="plus" format="1">
	<unicode hex="002B"/>
	<advance width="554"/>
	<outline>
		<contour>
			<point x="274" y="76" type="curve"/>
			<point x="280" y="76" type="line"/>
			<point x="332" y="76"/>
			<point x="350" y="106"/>
			<point x="350" y="156" type="curve"/>
			<point x="350" y="258" type="line"/>
			<point x="450" y="258" type="line"/>
			<point x="500" y="258"/>
			<point x="530" y="276"/>
			<point x="530" y="328" type="curve"/>
			<point x="530" y="332" type="line"/>
			<point x="530" y="384"/>
			<point x="500" y="402"/>
			<point x="450" y="402" type="curve"/>
			<point x="350" y="402" type="line"/>
			<point x="350" y="504" type="line"/>
			<point x="350" y="554"/>
			<point x="332" y="584"/>
			<point x="280" y="584" type="curve"/>
			<point x="274" y="584" type="line"/>
			<point x="222" y="584"/>
			<point x="204" y="554"/>
			<point x="204" y="504" type="curve"/>
			<point x="204" y="402" type="line"/>
			<point x="104" y="402" type="line"/>
			<point x="54" y="402"/>
			<point x="24" y="384"/>
			<point x="24" y="332" type="curve"/>
			<point x="24" y="328" type="line"/>
			<point x="24" y="276"/>
			<point x="54" y="258"/>
			<point x="104" y="258" type="curve"/>
			<point x="204" y="258" type="line"/>
			<point x="204" y="156" type="line"/>
			<point x="204" y="106"/>
			<point x="222" y="76"/>
		</contour>
	</outline>
</glyph>
<glyph name="period" format="1">
	<unicode hex="002E"/>
	<advance width="342"/>
	<outline>
		<contour>
			<point x="171" y="-12" type="curve" smooth="yes"/>
			<point x="237" y="-12"/>
			<point x="284" y="40"/>
			<point x="284" y="105" type="curve" smooth="yes"/>
			<point x="284" y="170"/>
			<point x="237" y="222"/>
			<point x="171" y="222" type="curve" smooth="yes"/>
			<point x="105" y="222"/>
			<point x="58" y="170"/>
			<point x="58" y="105" type="curve" smooth="yes"/>
			<point x="58" y="40"/>
			<point x="105" y="-12"/>
		</contour>
	</outline>
</glyph>
<glyph name="zero" format="1">
	<unicode hex="0030"/>
	<advance width="1000"/>
	<outline>
		<contour>
			<point x="500" y="112" type="curve" smooth="yes"/>
			<point x="624" y="112"/>
			<point x="708" y="217"/>
			<point x="708" y="388" type="curve" smooth="yes"/>
			<point x="708" y="558"/>
			<point x="624" y="659"/>
			<point x="500" y="659" type="curve" smooth="yes"/>
			<point x="376" y="659"/>
			<point x="292" y="559"/>
			<point x="292" y="388" type="curve" smooth="yes"/>
			<point x="292" y="217"/>
			<point x="376" y="112"/>
		</contour>
		<contour>
			<point x="500" y="198" type="curve" smooth="yes"/>
			<point x="442" y="198"/>
			<point x="400" y="253"/>
			<point x="400" y="388" type="curve" smooth="yes"/>
			<point x="400" y="524"/>
			<point x="442" y="574"/>
			<point x="500" y="574" type="curve" smooth="yes"/>
			<point x="557" y="574"/>
			<point x="600" y="524"/>
			<point x="600" y="388" type="curve" smooth="yes"/>
			<point x="600" y="253"/>
			<point x="557" y="198"/>
		</contour>
	</outline>
</glyph>
<glyph name="seven" format="1">
	<unicode hex="0037"/>
	<advance width="1000"/>
	<outline>
		<contour>
			<point x="437" y="124" type="curve" smooth="yes"/>
			<point x="506" y="124" type="line" smooth="yes"/>
			<point x="518" y="124"/>
			<point x="527" y="132"/>
			<point x="527" y="144" type="curve" smooth="yes"/>
			<point x="527" y="304"/>
			<point x="561" y="429"/>
			<point x="678" y="566" type="curve" smooth="yes"/>
			<point x="688" y="578"/>
			<point x="691" y="585"/>
			<point x="691" y="601" type="curve" smooth="yes"/>
			<point x="691" y="626" type="line" smooth="yes"/>
			<point x="691" y="638"/>
			<point x="683" y="646"/>
			<point x="671" y="646" type="curve" smooth="yes"/>
			<point x="335" y="646" type="line" smooth="yes"/>
			<point x="323" y="646"/>
			<point x="315" y="638"/>
			<point x="315" y="626" type="curve" smooth="yes"/>
			<point x="315" y="577" type="line" smooth="yes"/>
			<point x="315" y="565"/>
			<point x="323" y="557"/>
			<point x="335" y="557" type="curve" smooth="yes"/>
			<point x="574" y="557" type="line"/>
			<point x="464" y="419"/>
			<point x="418" y="276"/>
			<point x="418" y="144" type="curve" smooth="yes"/>
			<point x="418" y="133"/>
			<point x="426" y="124"/>
		</contour>
	</outline>
</glyph>
<glyph name="eight" format="1">
	<unicode hex="0038"/>
	<advance width="1000"/>
	<outline>
		<contour>
			<point x="498" y="112" type="curve" smooth="yes"/>
			<point x="618" y="112"/>
			<point x="698" y="175"/>
			<point x="698" y="258" type="curve" smooth="yes"/>
			<point x="698" y="328"/>
			<point x="651" y="366"/>
			<point x="597" y="394" type="curve"/>
			<point x="597" y="397" type="line"/>
			<point x="635" y="421"/>
			<point x="675" y="463"/>
			<point x="675" y="519" type="curve" smooth="yes"/>
			<point x="675" y="600"/>
			<point x="607" y="658"/>
			<point x="499" y="658" type="curve" smooth="yes"/>
			<point x="401" y="658"/>
			<point x="325" y="603"/>
			<point x="325" y="516" type="curve" smooth="yes"/>
			<point x="325" y="462"/>
			<point x="360" y="422"/>
			<point x="406" y="393" type="curve"/>
			<point x="406" y="390" type="line"/>
			<point x="351" y="363"/>
			<point x="301" y="322"/>
			<point x="301" y="254" type="curve" smooth="yes"/>
			<point x="301" y="172"/>
			<point x="385" y="112"/>
		</contour>
		<contour>
			<point x="535" y="421" type="curve"/>
			<point x="470" y="442"/>
			<point x="418" y="467"/>
			<point x="418" y="516" type="curve" smooth="yes"/>
			<point x="418" y="560"/>
			<point x="452" y="585"/>
			<point x="497" y="585" type="curve" smooth="yes"/>
			<point x="552" y="585"/>
			<point x="585" y="553"/>
			<point x="585" y="509" type="curve" smooth="yes"/>
			<point x="585" y="478"/>
			<point x="566" y="446"/>
		</contour>
		<contour>
			<point x="503" y="187" type="curve" smooth="yes"/>
			<point x="444" y="187"/>
			<point x="396" y="220"/>
			<point x="396" y="269" type="curve" smooth="yes"/>
			<point x="396" y="311"/>
			<point x="428" y="342"/>
			<point x="464" y="364" type="curve"/>
			<point x="544" y="336"/>
			<point x="600" y="314"/>
			<point x="600" y="261" type="curve" smooth="yes"/>
			<point x="600" y="213"/>
			<point x="560" y="187"/>
		</contour>
	</outline>
</glyph>
<glyph name="A" format="1">
	<unicode hex="0041"/>
	<advance width="595"/>
	<outline>
		<contour>
			<point x="72" y="-10" type="curve" smooth="yes"/>
			<point x="119" y="-10" type="line" smooth="yes"/>
			<point x="165" y="-10"/>
			<point x="194" y="14"/>
			<point x="203" y="58" type="curve" smooth="yes"/>
			<point x="252" y="298" type="line" smooth="yes"/>
			<point x="264" y="356"/>
			<point x="280" y="438"/>
			<point x="292" y="501" type="curve"/>
			<point x="296" y="501" type="line"/>
			<point x="308" y="438"/>
			<point x="326" y="356"/>
			<point x="338" y="298" type="curve" smooth="yes"/>
			<point x="387" y="58" type="line" smooth="yes"/>
			<point x="396" y="14"/>
			<point x="425" y="-10"/>
			<point x="471" y="-10" type="curve" smooth="yes"/>
			<point x="525" y="-10" type="line" smooth="yes"/>
			<point x="562" y="-10"/>
			<point x="592" y="12"/>
			<point x="592" y="52" type="curve" smooth="yes"/>
			<point x="592" y="60"/>
			<point x="591" y="68"/>
			<point x="588" y="78" type="curve" smooth="yes"/>
			<point x="444" y="572" type="line" smooth="yes"/>
			<point x="428" y="626"/>
			<point x="394" y="648"/>
			<point x="340" y="648" type="curve" smooth="yes"/>
			<point x="256" y="648" type="line" smooth="yes"/>
			<point x="202" y="648"/>
			<point x="170" y="626"/>
			<point x="154" y="572" type="curve" smooth="yes"/>
			<point x="8" y="78" type="line" smooth="yes"/>
			<point x="5" y="68"/>
			<point x="4" y="60"/>
			<point x="4" y="52" type="curve" smooth="yes"/>
			<point x="4" y="12"/>
			<point x="35" y="-10"/>
		</contour>
		<contour>
			<point x="136" y="120" type="line"/>
			<point x="459" y="120" type="line"/>
			<point x="459" y="270" type="line"/>
			<point x="136" y="270" type="line"/>
		</contour>
		<contour>
			<point name="aboveUC" x="294" y="668" type="move"/>
		</contour>
		<contour>
			<point name="ogonekUC" x="490" y="0" type="move"/>
		</contour>
		<contour>
			<point name="baseLC" x="548" y="0" type="move"/>
		</contour>
		<contour>
			<point name="belowLC" x="294" y="-20" type="move"/>
		</contour>
	</outline>
</glyph>
<glyph name="D" format="1">
	<unicode hex="0044"/>
	<advance width="650"/>
	<outline>
		<contour>
			<point x="146" y="0" type="curve" smooth="yes"/>
			<point x="280" y="0" type="line" smooth="yes"/>
			<point x="464" y="0"/>
			<point x="608" y="90"/>
			<point x="608" y="328" type="curve" smooth="yes"/>
			<point x="608" y="564"/>
			<point x="464" y="648"/>
			<point x="268" y="648" type="curve" smooth="yes"/>
			<point x="146" y="648" type="line" smooth="yes"/>
			<point x="98" y="648"/>
			<point x="66" y="616"/>
			<point x="66" y="568" type="curve" smooth="yes"/>
			<point x="66" y="80" type="line" smooth="yes"/>
			<point x="66" y="32"/>
			<point x="98" y="0"/>
		</contour>
		<contour>
			<point x="266" y="160" type="line"/>
			<point x="266" y="488" type="line"/>
			<point x="268" y="488" type="line" smooth="yes"/>
			<point x="332" y="488"/>
			<point x="404" y="472"/>
			<point x="404" y="328" type="curve" smooth="yes"/>
			<point x="404" y="182"/>
			<point x="332" y="160"/>
			<point x="268" y="160" type="curve" smooth="yes"/>
		</contour>
		<contour>
			<point name="aboveUC" x="326" y="668" type="move"/>
		</contour>
		<contour>
			<point name="baseLC" x="300" y="0" type="move"/>
		</contour>
		<contour>
			<point name="belowLC" x="320" y="-20" type="move"/>
		</contour>
	</outline>
</glyph>
<glyph name="G" format="1">
	<unicode hex="0047"/>
	<advance width="655"/>
	<outline>
		<contour>
			<point x="380" y="-12" type="curve" smooth="yes"/>
			<point x="436" y="-12"/>
			<point x="484" y="-4"/>
			<point x="538" y="22" type="curve" smooth="yes"/>
			<point x="600" y="52"/>
			<point x="606" y="84"/>
			<point x="606" y="148" type="curve" smooth="yes"/>
			<point x="606" y="310" type="line" smooth="yes"/>
			<point x="606" y="358"/>
			<point x="574" y="390"/>
			<point x="526" y="390" type="curve" smooth="yes"/>
			<point x="416" y="390" type="line" smooth="yes"/>
			<point x="370" y="390"/>
			<point x="338" y="358"/>
			<point x="338" y="310" type="curve" smooth="yes"/>
			<point x="338" y="258"/>
			<point x="370" y="228"/>
			<point x="416" y="228" type="curve" smooth="yes"/>
			<point x="428" y="228" type="line"/>
			<point x="428" y="164" type="line"/>
			<point x="424" y="162"/>
			<point x="410" y="160"/>
			<point x="400" y="160" type="curve" smooth="yes"/>
			<point x="292" y="160"/>
			<point x="246" y="216"/>
			<point x="246" y="330" type="curve" smooth="yes"/>
			<point x="246" y="428"/>
			<point x="306" y="488"/>
			<point x="380" y="488" type="curve" smooth="yes"/>
			<point x="428" y="488"/>
			<point x="458" y="460"/>
			<point x="499" y="460" type="curve" smooth="yes"/>
			<point x="550" y="460"/>
			<point x="585" y="499"/>
			<point x="584" y="554" type="curve" smooth="yes"/>
			<point x="584" y="618"/>
			<point x="501" y="660"/>
			<point x="373" y="660" type="curve" smooth="yes"/>
			<point x="199" y="660"/>
			<point x="42" y="538"/>
			<point x="42" y="322" type="curve" smooth="yes"/>
			<point x="42" y="93"/>
			<point x="195" y="-12"/>
		</contour>
		<contour>
			<point name="aboveUC" x="378" y="668" type="move"/>
		</contour>
		<contour>
			<point name="belowLC" x="374" y="-20" type="move"/>
		</contour>
	</outline>
</glyph>
<glyph name="H" format="1">
	<unicode hex="0048"/>
	<advance width="1000"/>
	<outline>
		<contour>
			<point x="289" y="0" type="line"/>
			<point x="335" y="0" type="line"/>
			<point x="335" y="330" type="line"/>
			<point x="665" y="330" type="line"/>
			<point x="665" y="0" type="line"/>
			<point x="711" y="0" type="line"/>
			<point x="711" y="659" type="line"/>
			<point x="665" y="659" type="line"/>
			<point x="665" y="370" type="line"/>
			<point x="335" y="370" type="line"/>
			<point x="335" y="659" type="line"/>
			<point x="289" y="659" type="line"/>
		</contour>
		<contour>
			<point name="aboveUC" x="500" y="679" type="move"/>
		</contour>
		<contour>
			<point name="baseLC" x="312" y="0" type="move"/>
		</contour>
		<contour>
			<point name="belowLC" x="500" y="-20" type="move"/>
		</contour>
	</outline>
</glyph>
<glyph name="I" format="1">
	<unicode hex="0049"/>
	<advance width="332"/>
	<outline>
		<contour>
			<point x="146" y="-10" type="curve" smooth="yes"/>
			<point x="186" y="-10" type="line" smooth="yes"/>
			<point x="234" y="-10"/>
			<point x="266" y="22"/>
			<point x="266" y="70" type="curve"/>
			<point x="266" y="578" type="line"/>
			<point x="266" y="626"/>
			<point x="234" y="658"/>
			<point x="186" y="658" type="curve" smooth="yes"/>
			<point x="146" y="658" type="line" smooth="yes"/>
			<point x="98" y="658"/>
			<point x="66" y="626"/>
			<point x="66" y="578" type="curve" smooth="yes"/>
			<point x="66" y="70" type="line" smooth="yes"/>
			<point x="66" y="22"/>
			<point x="98" y="-10"/>
		</contour>
		<contour>
			<point name="aboveUC" x="166" y="668" type="move"/>
		</contour>
		<contour>
			<point name="ogonekUC" x="150" y="0" type="move"/>
		</contour>
		<contour>
			<point name="baseLC" x="169" y="0" type="move"/>
		</contour>
		<contour>
			<point name="belowLC" x="166" y="-20" type="move"/>
		</contour>
	</outline>
</glyph>
<glyph name="J" format="1">
	<unicode hex="004A"/>
	<advance width="532"/>
	<outline>
		<contour>
			<point x="238" y="-12" type="curve" smooth="yes"/>
			<point x="394" y="-12"/>
			<point x="470" y="92"/>
			<point x="470" y="216" type="curve" smooth="yes"/>
			<point x="470" y="578" type="line" smooth="yes"/>
			<point x="470" y="626"/>
			<point x="438" y="658"/>
			<point x="390" y="658" type="curve" smooth="yes"/>
			<point x="350" y="658" type="line" smooth="yes"/>
			<point x="302" y="658"/>
			<point x="270" y="626"/>
			<point x="270" y="578" type="curve" smooth="yes"/>
			<point x="270" y="232" type="line" smooth="yes"/>
			<point x="270" y="174"/>
			<point x="248" y="160"/>
			<point x="210" y="160" type="curve" smooth="yes"/>
			<point x="162" y="160"/>
			<point x="146" y="198"/>
			<point x="110" y="198" type="curve" smooth="yes"/>
			<point x="62" y="198"/>
			<point x="26" y="164"/>
			<point x="26" y="118" type="curve" smooth="yes"/>
			<point x="26" y="39"/>
			<point x="102" y="-12"/>
		</contour>
		<contour>
			<point name="aboveUC" x="369" y="668" type="move"/>
		</contour>
		<contour>
			<point name="belowLC" x="283" y="-20" type="move"/>
		</contour>
	</outline>
</glyph>
<glyph name="K" format="1">
	<unicode hex="004B"/>
	<advance width="644"/>
	<outline>
		<contour>
			<point x="146" y="-10" type="curve" smooth="yes"/>
			<point x="186" y="-10" type="line" smooth="yes"/>
			<point x="234" y="-10"/>
			<point x="266" y="22"/>
			<point x="266" y="70" type="curve" smooth="yes"/>
			<point x="266" y="148" type="line"/>
			<point x="312" y="221" type="line"/>
			<point x="400" y="59" type="line" smooth="yes"/>
			<point x="428" y="8"/>
			<point x="462" y="-10"/>
			<point x="520" y="-10" type="curve" smooth="yes"/>
			<point x="578" y="-10" type="line" smooth="yes"/>
			<point x="611" y="-10"/>
			<point x="634" y="30"/>
			<point x="617" y="58" type="curve" smooth="yes"/>
			<point x="428" y="380" type="line"/>
			<point x="572" y="593" type="line" smooth="yes"/>
			<point x="589" y="618"/>
			<point x="569" y="658"/>
			<point x="538" y="658" type="curve" smooth="yes"/>
			<point x="480" y="658" type="line" smooth="yes"/>
			<point x="422" y="658"/>
			<point x="388" y="640"/>
			<point x="359" y="589" type="curve" smooth="yes"/>
			<point x="271" y="434" type="line"/>
			<point x="266" y="434" type="line"/>
			<point x="266" y="578" type="line" smooth="yes"/>
			<point x="266" y="625"/>
			<point x="234" y="658"/>
			<point x="186" y="658" type="curve" smooth="yes"/>
			<point x="146" y="658" type="line" smooth="yes"/>
			<point x="98" y="658"/>
			<point x="66" y="625"/>
			<point x="66" y="578" type="curve" smooth="yes"/>
			<point x="66" y="70" type="line" smooth="yes"/>
			<point x="66" y="22"/>
			<point x="98" y="-10"/>
		</contour>
		<contour>
			<point name="aboveUC" x="326" y="668" type="move"/>
		</contour>
		<contour>
			<point name="belowLC" x="336" y="-20" type="move"/>
		</contour>
	</outline>
</glyph>
<glyph name="M" format="1">
	<unicode hex="004D"/>
	<advance width="792"/>
	<outline>
		<contour>
			<point x="146" y="-10" type="curve" smooth="yes"/>
			<point x="166" y="-10" type="line" smooth="yes"/>
			<point x="213" y="-10"/>
			<point x="246" y="23"/>
			<point x="246" y="70" type="curve" smooth="yes"/>
			<point x="246" y="138" type="line" smooth="yes"/>
			<point x="246" y="210"/>
			<point x="228" y="322"/>
			<point x="218" y="392" type="curve"/>
			<point x="222" y="392" type="line"/>
			<point x="276" y="224" type="line" smooth="yes"/>
			<point x="320" y="104" type="line" smooth="yes"/>
			<point x="337" y="57"/>
			<point x="357" y="44"/>
			<point x="394" y="44" type="curve" smooth="yes"/>
			<point x="431" y="44"/>
			<point x="451" y="57"/>
			<point x="468" y="104" type="curve" smooth="yes"/>
			<point x="512" y="224" type="line" smooth="yes"/>
			<point x="568" y="392" type="line"/>
			<point x="572" y="392" type="line"/>
			<point x="562" y="322"/>
			<point x="544" y="210"/>
			<point x="544" y="138" type="curve" smooth="yes"/>
			<point x="544" y="70" type="line" smooth="yes"/>
			<point x="544" y="23"/>
			<point x="577" y="-10"/>
			<point x="624" y="-10" type="curve" smooth="yes"/>
			<point x="646" y="-10" type="line" smooth="yes"/>
			<point x="693" y="-10"/>
			<point x="726" y="23"/>
			<point x="726" y="70" type="curve" smooth="yes"/>
			<point x="726" y="578" type="line" smooth="yes"/>
			<point x="726" y="625"/>
			<point x="693" y="658"/>
			<point x="646" y="658" type="curve" smooth="yes"/>
			<point x="591" y="658" type="line" smooth="yes"/>
			<point x="538" y="658"/>
			<point x="502" y="634"/>
			<point x="486" y="582" type="curve" smooth="yes"/>
			<point x="430" y="398" type="line" smooth="yes"/>
			<point x="420" y="364"/>
			<point x="410" y="328"/>
			<point x="400" y="292" type="curve"/>
			<point x="396" y="292" type="line"/>
			<point x="386" y="328"/>
			<point x="377" y="364"/>
			<point x="366" y="398" type="curve" smooth="yes"/>
			<point x="307" y="582" type="line" smooth="yes"/>
			<point x="290" y="634"/>
			<point x="255" y="658"/>
			<point x="201" y="658" type="curve" smooth="yes"/>
			<point x="146" y="658" type="line" smooth="yes"/>
			<point x="99" y="658"/>
			<point x="66" y="625"/>
			<point x="66" y="578" type="curve" smooth="yes"/>
			<point x="66" y="70" type="line" smooth="yes"/>
			<point x="66" y="23"/>
			<point x="99" y="-10"/>
		</contour>
		<contour>
			<point name="aboveUC" x="396" y="668" type="move"/>
		</contour>
		<contour>
			<point name="baseLC" x="686" y="0" type="move"/>
		</contour>
		<contour>
			<point name="belowLC" x="398" y="-20" type="move"/>
		</contour>
	</outline>
</glyph>
<glyph name="P" format="1">
	<unicode hex="0050"/>
	<advance width="621"/>
	<outline>
		<contour>
			<point x="66" y="70" type="line" smooth="yes"/>
			<point x="66" y="22"/>
			<point x="98" y="-10"/>
			<point x="146" y="-10" type="curve" smooth="yes"/>
			<point x="186" y="-10" type="line" smooth="yes"/>
			<point x="234" y="-10"/>
			<point x="266" y="22"/>
			<point x="266" y="70" type="curve" smooth="yes"/>
			<point x="266" y="192" type="line"/>
			<point x="324" y="192" type="line" smooth="yes"/>
			<point x="458" y="192"/>
			<point x="590" y="261"/>
			<point x="590" y="426" type="curve" smooth="yes"/>
			<point x="590" y="596"/>
			<point x="462" y="648"/>
			<point x="320" y="648" type="curve" smooth="yes"/>
			<point x="146" y="648" type="line" smooth="yes"/>
			<point x="98" y="648"/>
			<point x="66" y="616"/>
			<point x="66" y="568" type="curve" smooth="yes"/>
		</contour>
		<contour>
			<point x="266" y="344" type="line"/>
			<point x="266" y="490" type="line"/>
			<point x="314" y="490" type="line" smooth="yes"/>
			<point x="366" y="490"/>
			<point x="396" y="470"/>
			<point x="396" y="422" type="curve" smooth="yes"/>
			<point x="396" y="376"/>
			<point x="372" y="344"/>
			<point x="318" y="344" type="curve" smooth="yes"/>
		</contour>
		<contour>
			<point name="aboveUC" x="327" y="668" type="move"/>
		</contour>
		<contour>
			<point name="belowLC" x="180" y="-20" type="move"/>
		</contour>
	</outline>
</glyph>
<glyph name="R" format="1">
	<unicode hex="0052"/>
	<advance width="649"/>
	<outline>
		<contour>
			<point x="146" y="-10" type="curve" smooth="yes"/>
			<point x="186" y="-10" type="line" smooth="yes"/>
			<point x="234" y="-10"/>
			<point x="266" y="22"/>
			<point x="266" y="70" type="curve" smooth="yes"/>
			<point x="266" y="199" type="line"/>
			<point x="325" y="199" type="line" smooth="yes"/>
			<point x="467" y="199"/>
			<point x="595" y="265"/>
			<point x="595" y="430" type="curve" smooth="yes"/>
			<point x="595" y="600"/>
			<point x="467" y="648"/>
			<point x="325" y="648" type="curve" smooth="yes"/>
			<point x="146" y="648" type="line" smooth="yes"/>
			<point x="98" y="648"/>
			<point x="66" y="615"/>
			<point x="66" y="568" type="curve" smooth="yes"/>
			<point x="66" y="70" type="line" smooth="yes"/>
			<point x="66" y="22"/>
			<point x="98" y="-10"/>
		</contour>
		<contour>
			<point x="266" y="357" type="line"/>
			<point x="266" y="490" type="line"/>
			<point x="313" y="490" type="line" smooth="yes"/>
			<point x="370" y="490"/>
			<point x="400" y="476"/>
			<point x="400" y="430" type="curve" smooth="yes"/>
			<point x="400" y="383"/>
			<point x="370" y="357"/>
			<point x="313" y="357" type="curve" smooth="yes"/>
		</contour>
		<contour>
			<point x="378" y="72" type="line" smooth="yes"/>
			<point x="403" y="21"/>
			<point x="436" y="0"/>
			<point x="493" y="0" type="curve" smooth="yes"/>
			<point x="556" y="0" type="line" smooth="yes"/>
			<point x="590" y="0"/>
			<point x="614" y="40"/>
			<point x="597" y="70" type="curve" smooth="yes"/>
			<point x="422" y="388" type="line"/>
			<point x="290" y="251" type="line"/>
		</contour>
		<contour>
			<point name="aboveUC" x="323" y="668" type="move"/>
		</contour>
		<contour>
			<point name="baseLC" x="139" y="0" type="move"/>
		</contour>
		<contour>
			<point name="belowLC" x="342" y="-20" type="move"/>
		</contour>
	</outline>
</glyph>
<glyph name="T" format="1">
	<unicode hex="0054"/>
	<advance width="572"/>
	<outline>
		<contour>
			<point x="386" y="480" type="line"/>
			<point x="478" y="480" type="line" smooth="yes"/>
			<point x="521" y="480"/>
			<point x="552" y="512"/>
			<point x="552" y="560" type="curve" smooth="yes"/>
			<point x="552" y="568" type="line" smooth="yes"/>
			<point x="552" y="616"/>
			<point x="521" y="648"/>
			<point x="478" y="648" type="curve"/>
			<point x="94" y="648" type="line" smooth="yes"/>
			<point x="50" y="648"/>
			<point x="20" y="616"/>
			<point x="20" y="568" type="curve" smooth="yes"/>
			<point x="20" y="560" type="line" smooth="yes"/>
			<point x="20" y="512"/>
			<point x="50" y="480"/>
			<point x="94" y="480" type="curve" smooth="yes"/>
			<point x="186" y="480" type="line"/>
			<point x="186" y="76" type="line" smooth="yes"/>
			<point x="186" y="28"/>
			<point x="218" y="-4"/>
			<point x="266" y="-4" type="curve" smooth="yes"/>
			<point x="306" y="-4" type="line" smooth="yes"/>
			<point x="354" y="-4"/>
			<point x="386" y="28"/>
			<point x="386" y="76" type="curve" smooth="yes"/>
		</contour>
		<contour>
			<point name="aboveUC" x="287" y="668" type="move"/>
		</contour>
		<contour>
			<point name="baseLC" x="286" y="0" type="move"/>
		</contour>
		<contour>
			<point name="belowLC" x="286" y="-20" type="move"/>
		</contour>
	</outline>
</glyph>
<glyph name="U" format="1">
	<unicode hex="0055"/>
	<advance width="680"/>
	<outline>
		<contour>
			<point x="343" y="-12" type="curve" smooth="yes"/>
			<point x="540" y="-12"/>
			<point x="618" y="92"/>
			<point x="618" y="288" type="curve" smooth="yes"/>
			<point x="618" y="578" type="line" smooth="yes"/>
			<point x="618" y="626"/>
			<point x="586" y="658"/>
			<point x="538" y="658" type="curve" smooth="yes"/>
			<point x="506" y="658" type="line" smooth="yes"/>
			<point x="458" y="658"/>
			<point x="426" y="626"/>
			<point x="426" y="578" type="curve" smooth="yes"/>
			<point x="426" y="262" type="line" smooth="yes"/>
			<point x="426" y="194"/>
			<point x="406" y="160"/>
			<point x="343" y="160" type="curve" smooth="yes"/>
			<point x="280" y="160"/>
			<point x="262" y="194"/>
			<point x="262" y="262" type="curve" smooth="yes"/>
			<point x="262" y="578" type="line" smooth="yes"/>
			<point x="262" y="626"/>
			<point x="230" y="658"/>
			<point x="182" y="658" type="curve" smooth="yes"/>
			<point x="142" y="658" type="line" smooth="yes"/>
			<point x="94" y="658"/>
			<point x="62" y="626"/>
			<point x="62" y="578" type="curve" smooth="yes"/>
			<point x="62" y="288" type="line" smooth="yes"/>
			<point x="62" y="92"/>
			<point x="146" y="-12"/>
		</contour>
		<contour>
			<point name="aboveUC" x="340" y="668" type="move"/>
		</contour>
		<contour>
			<point name="hornLC" x="560" y="658" type="move"/>
		</contour>
		<contour>
			<point name="ogonekUC" x="340" y="0" type="move"/>
		</contour>
		<contour>
			<point name="baseLC" x="340" y="0" type="move"/>
		</contour>
		<contour>
			<point name="belowLC" x="340" y="-20" type="move"/>
		</contour>
	</outline>
</glyph>
<glyph name="V" format="1">
	<unicode hex="0056"/>
	<advance width="590"/>
	<outline>
		<contour>
			<point x="256" y="0" type="curve" smooth="yes"/>
			<point x="334" y="0" type="line" smooth="yes"/>
			<point x="388" y="0"/>
			<point x="420" y="22"/>
			<point x="436" y="76" type="curve" smooth="yes"/>
			<point x="582" y="570" type="line" smooth="yes"/>
			<point x="585" y="580"/>
			<point x="586" y="588"/>
			<point x="586" y="596" type="curve" smooth="yes"/>
			<point x="586" y="636"/>
			<point x="555" y="658"/>
			<point x="518" y="658" type="curve" smooth="yes"/>
			<point x="471" y="658" type="line" smooth="yes"/>
			<point x="425" y="658"/>
			<point x="396" y="634"/>
			<point x="387" y="590" type="curve" smooth="yes"/>
			<point x="338" y="350" type="line" smooth="yes"/>
			<point x="326" y="294"/>
			<point x="312" y="216"/>
			<point x="302" y="154" type="curve"/>
			<point x="298" y="154" type="line"/>
			<point x="288" y="216"/>
			<point x="270" y="294"/>
			<point x="258" y="350" type="curve" smooth="yes"/>
			<point x="209" y="590" type="line" smooth="yes"/>
			<point x="200" y="634"/>
			<point x="171" y="658"/>
			<point x="125" y="658" type="curve" smooth="yes"/>
			<point x="71" y="658" type="line" smooth="yes"/>
			<point x="34" y="658"/>
			<point x="4" y="636"/>
			<point x="4" y="596" type="curve" smooth="yes"/>
			<point x="4" y="588"/>
			<point x="5" y="580"/>
			<point x="8" y="570" type="curve" smooth="yes"/>
			<point x="152" y="76" type="line" smooth="yes"/>
			<point x="168" y="22"/>
			<point x="202" y="0"/>
		</contour>
		<contour>
			<point name="aboveUC" x="295" y="668" type="move"/>
		</contour>
		<contour>
			<point name="belowLC" x="290" y="-20" type="move"/>
		</contour>
	</outline>
</glyph>
<glyph name="Y" format="1">
	<unicode hex="0059"/>
	<advance width="566"/>
	<outline>
		<contour>
			<point x="183" y="80" type="line" smooth="yes"/>
			<point x="183" y="33"/>
			<point x="216" y="0"/>
			<point x="263" y="0" type="curve" smooth="yes"/>
			<point x="303" y="0" type="line" smooth="yes"/>
			<point x="350" y="0"/>
			<point x="383" y="33"/>
			<point x="383" y="80" type="curve" smooth="yes"/>
			<point x="383" y="214" type="line"/>
			<point x="545" y="575" type="line" smooth="yes"/>
			<point x="560" y="608"/>
			<point x="534" y="648"/>
			<point x="498" y="648" type="curve" smooth="yes"/>
			<point x="449" y="648" type="line" smooth="yes"/>
			<point x="395" y="648"/>
			<point x="360" y="623"/>
			<point x="345" y="572" type="curve" smooth="yes"/>
			<point x="332" y="528" type="line" smooth="yes"/>
			<point x="317" y="478"/>
			<point x="301" y="434"/>
			<point x="286" y="382" type="curve"/>
			<point x="282" y="382" type="line"/>
			<point x="267" y="434"/>
			<point x="253" y="478"/>
			<point x="238" y="528" type="curve" smooth="yes"/>
			<point x="225" y="572" type="line" smooth="yes"/>
			<point x="210" y="623"/>
			<point x="175" y="648"/>
			<point x="121" y="648" type="curve" smooth="yes"/>
			<point x="67" y="648" type="line" smooth="yes"/>
			<point x="31" y="648"/>
			<point x="5" y="608"/>
			<point x="20" y="575" type="curve" smooth="yes"/>
			<point x="183" y="214" type="line"/>
		</contour>
		<contour>
			<point name="aboveUC" x="283" y="668" type="move"/>
		</contour>
		<contour>
			<point name="ogonekUC" x="283" y="0" type="move"/>
		</contour>
		<contour>
			<point name="belowLC" x="285" y="-20" type="move"/>
		</contour>
	</outline>
</glyph>
<glyph name="Z" format="1">
	<unicode hex="005A"/>
	<advance width="543"/>
	<outline>
		<contour>
			<point x="28" y="80" type="line"/>
			<point x="28" y="33"/>
			<point x="61" y="0"/>
			<point x="108" y="0" type="curve" smooth="yes"/>
			<point x="446" y="0" type="line" smooth="yes"/>
			<point x="494" y="0"/>
			<point x="526" y="32"/>
			<point x="526" y="80" type="curve" smooth="yes"/>
			<point x="526" y="88" type="line" smooth="yes"/>
			<point x="526" y="136"/>
			<point x="494" y="168"/>
			<point x="446" y="168" type="curve" smooth="yes"/>
			<point x="274" y="168" type="line"/>
			<point x="470" y="461" type="line" smooth="yes"/>
			<point x="506" y="514"/>
			<point x="515" y="543"/>
			<point x="515" y="607" type="curve"/>
			<point x="515" y="568" type="line"/>
			<point x="515" y="615"/>
			<point x="482" y="648"/>
			<point x="435" y="648" type="curve" smooth="yes"/>
			<point x="122" y="648" type="line" smooth="yes"/>
			<point x="74" y="648"/>
			<point x="42" y="616"/>
			<point x="42" y="568" type="curve" smooth="yes"/>
			<point x="42" y="560" type="line" smooth="yes"/>
			<point x="42" y="512"/>
			<point x="74" y="480"/>
			<point x="122" y="480" type="curve" smooth="yes"/>
			<point x="269" y="480" type="line"/>
			<point x="73" y="187" type="line" smooth="yes"/>
			<point x="37" y="134"/>
			<point x="28" y="105"/>
			<point x="28" y="41" type="curve"/>
		</contour>
		<contour>
			<point name="aboveUC" x="285" y="668" type="move"/>
		</contour>
		<contour>
			<point name="baseLC" x="306" y="0" type="move"/>
		</contour>
		<contour>
			<point name="belowLC" x="282" y="-20" type="move"/>
		</contour>
	</outline>
</glyph>
<glyph name="a" format="1">
	<unicode hex="0061"/>
	<advance width="1000"/>
	<outline>
		<contour>
			<point x="459" y="-12" type="curve" smooth="yes"/>
			<point x="530" y="-12"/>
			<point x="605" y="28"/>
			<point x="660" y="72" type="curve"/>
			<point x="662" y="72" type="line"/>
			<point x="667" y="0" type="line"/>
			<point x="704" y="0" type="line"/>
			<point x="704" y="307" type="line" smooth="yes"/>
			<point x="704" y="410"/>
			<point x="651" y="492"/>
			<point x="522" y="492" type="curve" smooth="yes"/>
			<point x="437" y="492"/>
			<point x="353" y="448"/>
			<point x="315" y="421" type="curve"/>
			<point x="335" y="388" type="line"/>
			<point x="375" y="416"/>
			<point x="445" y="453"/>
			<point x="517" y="453" type="curve" smooth="yes"/>
			<point x="627" y="453"/>
			<point x="659" y="380"/>
			<point x="660" y="301" type="curve"/>
			<point x="400" y="278"/>
			<point x="292" y="227"/>
			<point x="292" y="120" type="curve" smooth="yes"/>
			<point x="292" y="29"/>
			<point x="373" y="-12"/>
		</contour>
		<contour>
			<point x="467" y="26" type="curve" smooth="yes"/>
			<point x="402" y="26"/>
			<point x="337" y="53"/>
			<point x="337" y="122" type="curve" smooth="yes"/>
			<point x="337" y="199"/>
			<point x="416" y="245"/>
			<point x="660" y="267" type="curve"/>
			<point x="660" y="113" type="line"/>
			<point x="593" y="56"/>
			<point x="528" y="26"/>
		</contour>
		<contour>
			<point name="ogonekLC" x="639" y="0" type="move"/>
		</contour>
		<contour>
			<point name="aboveLC" x="520" y="502" type="move"/>
		</contour>
		<contour>
			<point name="baseLC" x="674" y="0" type="move"/>
		</contour>
		<contour>
			<point name="belowLC" x="500" y="-20" type="move"/>
		</contour>
	</outline>
</glyph>
<glyph name="b" format="1">
	<unicode hex="0062"/>
	<advance width="588"/>
	<outline>
		<contour>
			<point x="348" y="-12" type="curve" smooth="yes"/>
			<point x="453" y="-12"/>
			<point x="556" y="86"/>
			<point x="556" y="262" type="curve" smooth="yes"/>
			<point x="556" y="416"/>
			<point x="476" y="516"/>
			<point x="360" y="516" type="curve" smooth="yes"/>
			<point x="319" y="516"/>
			<point x="276" y="502"/>
			<point x="244" y="472" type="curve"/>
			<point x="250" y="538" type="line" smooth="yes"/>
			<point x="250" y="620" type="line" smooth="yes"/>
			<point x="250" y="668"/>
			<point x="218" y="700"/>
			<point x="171" y="700" type="curve" smooth="yes"/>
			<point x="130" y="700" type="line" smooth="yes"/>
			<point x="83" y="700"/>
			<point x="50" y="668"/>
			<point x="50" y="620" type="curve" smooth="yes"/>
			<point x="50" y="70" type="line" smooth="yes"/>
			<point x="50" y="23"/>
			<point x="83" y="-10"/>
			<point x="130" y="-10" type="curve"/>
			<point x="126" y="-10" type="line"/>
			<point x="179" y="-10"/>
			<point x="213" y="16"/>
			<point x="228" y="67" type="curve"/>
			<point x="222" y="55" type="line"/>
			<point x="226" y="55" type="line"/>
			<point x="263" y="10"/>
			<point x="305" y="-12"/>
		</contour>
		<contour>
			<point x="294" y="150" type="curve" smooth="yes"/>
			<point x="280" y="150"/>
			<point x="264" y="154"/>
			<point x="250" y="166" type="curve"/>
			<point x="250" y="326" type="line"/>
			<point x="262" y="346"/>
			<point x="278" y="354"/>
			<point x="298" y="354" type="curve" smooth="yes"/>
			<point x="330" y="354"/>
			<point x="352" y="332"/>
			<point x="352" y="250" type="curve" smooth="yes"/>
			<point x="352" y="168"/>
			<point x="322" y="150"/>
		</contour>
		<contour>
			<point name="aboveUC" x="145" y="730" type="move"/>
		</contour>
		<contour>
			<point name="belowLC" x="293" y="-20" type="move"/>
		</contour>
	</outline>
</glyph>
<glyph name="f" format="1">
	<unicode hex="0066"/>
	<advance width="382"/>
	<outline>
		<contour>
			<point x="166" y="-10" type="curve" smooth="yes"/>
			<point x="206" y="-10" type="line" smooth="yes"/>
			<point x="253" y="-10"/>
			<point x="286" y="23"/>
			<point x="286" y="70" type="curve" smooth="yes"/>
			<point x="286" y="496" type="line" smooth="yes"/>
			<point x="286" y="538"/>
			<point x="301" y="548"/>
			<point x="320" y="548" type="curve" smooth="yes"/>
			<point x="329" y="548"/>
			<point x="340" y="545"/>
			<point x="349" y="545" type="curve" smooth="yes"/>
			<point x="374" y="545"/>
			<point x="404" y="562"/>
			<point x="404" y="618" type="curve" smooth="yes"/>
			<point x="404" y="673"/>
			<point x="364" y="702"/>
			<point x="290" y="702" type="curve" smooth="yes"/>
			<point x="134" y="702"/>
			<point x="86" y="597"/>
			<point x="86" y="488" type="curve" smooth="yes"/>
			<point x="86" y="70" type="line" smooth="yes"/>
			<point x="86" y="23"/>
			<point x="119" y="-10"/>
		</contour>
		<contour>
			<point x="88" y="350" type="curve"/>
			<point x="294" y="350" type="line" smooth="yes"/>
			<point x="342" y="350"/>
			<point x="374" y="368"/>
			<point x="374" y="420" type="curve"/>
			<point x="374" y="434" type="line"/>
			<point x="374" y="486"/>
			<point x="342" y="504"/>
			<point x="294" y="504" type="curve" smooth="yes"/>
			<point x="88" y="504" type="line" smooth="yes"/>
			<point x="40" y="504"/>
			<point x="8" y="486"/>
			<point x="8" y="434" type="curve"/>
			<point x="8" y="420" type="line"/>
			<point x="8" y="368"/>
			<point x="40" y="350"/>
		</contour>
		<contour>
			<point name="aboveUC" x="262" y="730" type="move"/>
		</contour>
		<contour>
			<point name="baseLC" x="191" y="0" type="move"/>
		</contour>
		<contour>
			<point name="belowLC" x="186" y="-20" type="move"/>
		</contour>
	</outline>
</glyph>
<glyph name="g" format="1">
	<unicode hex="0067"/>
	<advance width="1000"/>
	<outline>
		<contour>
			<point x="508" y="-231" type="curve" smooth="yes"/>
			<point x="663" y="-231"/>
			<point x="762" y="-150"/>
			<point x="762" y="-67" type="curve" smooth="yes"/>
			<point x="762" y="11"/>
			<point x="709" y="41"/>
			<point x="587" y="41" type="curve" smooth="yes"/>
			<point x="468" y="41" type="line" smooth="yes"/>
			<point x="401" y="41"/>
			<point x="357" y="62"/>
			<point x="357" y="108" type="curve" smooth="yes"/>
			<point x="357" y="134"/>
			<point x="376" y="158"/>
			<point x="404" y="175" type="curve"/>
			<point x="433" y="160"/>
			<point x="466" y="153"/>
			<point x="495" y="153" type="curve" smooth="yes"/>
			<point x="593" y="153"/>
			<point x="672" y="222"/>
			<point x="672" y="320" type="curve" smooth="yes"/>
			<point x="672" y="371"/>
			<point x="645" y="413"/>
			<point x="616" y="442" type="curve"/>
			<point x="761" y="442" type="line"/>
			<point x="761" y="480" type="line"/>
			<point x="561" y="480" type="line"/>
			<point x="542" y="488"/>
			<point x="521" y="492"/>
			<point x="495" y="492" type="curve" smooth="yes"/>
			<point x="397" y="492"/>
			<point x="316" y="420"/>
			<point x="316" y="321" type="curve" smooth="yes"/>
			<point x="316" y="263"/>
			<point x="342" y="222"/>
			<point x="373" y="197" type="curve"/>
			<point x="373" y="193" type="line"/>
			<point x="335" y="167"/>
			<point x="315" y="133"/>
			<point x="315" y="102" type="curve" smooth="yes"/>
			<point x="315" y="62"/>
			<point x="341" y="37"/>
			<point x="365" y="25" type="curve"/>
			<point x="365" y="21" type="line"/>
			<point x="313" y="-11"/>
			<point x="284" y="-54"/>
			<point x="284" y="-92" type="curve" smooth="yes"/>
			<point x="284" y="-176"/>
			<point x="358" y="-231"/>
		</contour>
		<contour>
			<point x="495" y="188" type="curve" smooth="yes"/>
			<point x="421" y="188"/>
			<point x="361" y="242"/>
			<point x="361" y="321" type="curve" smooth="yes"/>
			<point x="361" y="399"/>
			<point x="421" y="455"/>
			<point x="495" y="455" type="curve" smooth="yes"/>
			<point x="568" y="455"/>
			<point x="628" y="399"/>
			<point x="628" y="321" type="curve" smooth="yes"/>
			<point x="628" y="242"/>
			<point x="568" y="188"/>
		</contour>
		<contour>
			<point x="505" y="-195" type="curve" smooth="yes"/>
			<point x="385" y="-195"/>
			<point x="326" y="-151"/>
			<point x="326" y="-93" type="curve" smooth="yes"/>
			<point x="326" y="-58"/>
			<point x="346" y="-23"/>
			<point x="404" y="8" type="curve"/>
			<point x="426" y="1"/>
			<point x="453" y="-1"/>
			<point x="477" y="-1" type="curve" smooth="yes"/>
			<point x="591" y="-1" type="line" smooth="yes"/>
			<point x="675" y="-1"/>
			<point x="716" y="-18"/>
			<point x="716" y="-72" type="curve" smooth="yes"/>
			<point x="716" y="-132"/>
			<point x="637" y="-195"/>
		</contour>
		<contour>
			<point name="aboveLC" x="509" y="502" type="move"/>
		</contour>
		<contour>
			<point name="belowLC" x="509" y="-227" type="move"/>
		</contour>
	</outline>
</glyph>
<glyph name="h" format="1">
	<unicode hex="0068"/>
	<advance width="1000"/>
	<outline>
		<contour>
			<point x="305" y="0" type="line"/>
			<point x="350" y="0" type="line"/>
			<point x="350" y="344" type="line"/>
			<point x="419" y="417"/>
			<point x="466" y="452"/>
			<point x="534" y="452" type="curve" smooth="yes"/>
			<point x="629" y="452"/>
			<point x="669" y="401"/>
			<point x="669" y="293" type="curve" smooth="yes"/>
			<point x="669" y="0" type="line"/>
			<point x="714" y="0" type="line"/>
			<point x="714" y="299" type="line" smooth="yes"/>
			<point x="714" y="429"/>
			<point x="658" y="492"/>
			<point x="541" y="492" type="curve" smooth="yes"/>
			<point x="465" y="492"/>
			<point x="406" y="447"/>
			<point x="349" y="385" type="curve"/>
			<point x="347" y="385" type="line"/>
			<point x="350" y="511" type="line"/>
			<point x="350" y="719" type="line"/>
			<point x="305" y="719" type="line"/>
		</contour>
		<contour>
			<point name="aboveUC" x="323" y="739" type="move"/>
		</contour>
		<contour>
			<point name="baseLC" x="327" y="0" type="move"/>
		</contour>
		<contour>
			<point name="belowLC" x="519" y="-20" type="move"/>
		</contour>
	</outline>
</glyph>
<glyph name="i" format="1">
	<unicode hex="0069"/>
	<advance width="300"/>
	<outline>
		<contour>
			<point x="50" y="70" type="line" smooth="yes"/>
			<point x="50" y="22"/>
			<point x="82" y="-10"/>
			<point x="130" y="-10" type="curve" smooth="yes"/>
			<point x="170" y="-10" type="line" smooth="yes"/>
			<point x="218" y="-10"/>
			<point x="250" y="22"/>
			<point x="250" y="70" type="curve" smooth="yes"/>
			<point x="250" y="434" type="line" smooth="yes"/>
			<point x="250" y="482"/>
			<point x="218" y="514"/>
			<point x="170" y="514" type="curve" smooth="yes"/>
			<point x="130" y="514" type="line" smooth="yes"/>
			<point x="82" y="514"/>
			<point x="50" y="482"/>
			<point x="50" y="434" type="curve" smooth="yes"/>
		</contour>
		<contour>
			<point x="150" y="554" type="curve" smooth="yes"/>
			<point x="211" y="554"/>
			<point x="254" y="595"/>
			<point x="254" y="650" type="curve" smooth="yes"/>
			<point x="254" y="706"/>
			<point x="211" y="747"/>
			<point x="150" y="747" type="curve" smooth="yes"/>
			<point x="89" y="747"/>
			<point x="46" y="706"/>
			<point x="46" y="650" type="curve" smooth="yes"/>
			<point x="46" y="595"/>
			<point x="89" y="554"/>
		</contour>
		<contour>
			<point name="aboveUC" x="151" y="776" type="move"/>
		</contour>
		<contour>
			<point name="ogonekLC" x="202" y="0" type="move"/>
		</contour>
		<contour>
			<point name="baseLC" x="151" y="0" type="move"/>
		</contour>
		<contour>
			<point name="belowLC" x="151" y="-20" type="move"/>
		</contour>
	</outline>
</glyph>
<glyph name="k" format="1">
	<unicode hex="006B"/>
	<advance width="591"/>
	<outline>
		<contour>
			<point x="130" y="-10" type="curve" smooth="yes"/>
			<point x="166" y="-10" type="line" smooth="yes"/>
			<point x="214" y="-10"/>
			<point x="246" y="22"/>
			<point x="246" y="70" type="curve" smooth="yes"/>
			<point x="246" y="118" type="line"/>
			<point x="286" y="160" type="line"/>
			<point x="334" y="70" type="line" smooth="yes"/>
			<point x="361" y="20"/>
			<point x="395" y="0"/>
			<point x="452" y="0" type="curve" smooth="yes"/>
			<point x="509" y="0" type="line" smooth="yes"/>
			<point x="541" y="0"/>
			<point x="563" y="40"/>
			<point x="546" y="67" type="curve" smooth="yes"/>
			<point x="400" y="292" type="line"/>
			<point x="530" y="443" type="line" smooth="yes"/>
			<point x="548" y="464"/>
			<point x="530" y="504"/>
			<point x="502" y="504" type="curve" smooth="yes"/>
			<point x="446" y="504" type="line" smooth="yes"/>
			<point x="386" y="504"/>
			<point x="354" y="488"/>
			<point x="317" y="441" type="curve" smooth="yes"/>
			<point x="250" y="356" type="line"/>
			<point x="246" y="356" type="line"/>
			<point x="246" y="620" type="line" smooth="yes"/>
			<point x="246" y="668"/>
			<point x="214" y="700"/>
			<point x="166" y="700" type="curve" smooth="yes"/>
			<point x="130" y="700" type="line" smooth="yes"/>
			<point x="82" y="700"/>
			<point x="50" y="668"/>
			<point x="50" y="620" type="curve" smooth="yes"/>
			<point x="50" y="70" type="line" smooth="yes"/>
			<point x="50" y="22"/>
			<point x="82" y="-10"/>
		</contour>
		<contour>
			<point name="aboveUC" x="152" y="730" type="move"/>
		</contour>
		<contour>
			<point name="belowLC" x="314" y="-20" type="move"/>
		</contour>
	</outline>
</glyph>
<glyph name="l" format="1">
	<unicode hex="006C"/>
	<advance width="1000"/>
	<outline>
		<contour>
			<point x="614" y="-12" type="curve" smooth="yes"/>
			<point x="661" y="-12"/>
			<point x="692" y="-2"/>
			<point x="733" y="18" type="curve"/>
			<point x="719" y="52" type="line"/>
			<point x="684" y="35"/>
			<point x="651" y="27"/>
			<point x="620" y="27" type="curve" smooth="yes"/>
			<point x="552" y="27"/>
			<point x="515" y="63"/>
			<point x="515" y="139" type="curve" smooth="yes"/>
			<point x="515" y="719" type="line"/>
			<point x="292" y="719" type="line"/>
			<point x="292" y="681" type="line"/>
			<point x="471" y="681" type="line"/>
			<point x="471" y="145" type="line" smooth="yes"/>
			<point x="471" y="36"/>
			<point x="523" y="-12"/>
		</contour>
		<contour>
			<point name="baseLC" x="590" y="0" type="move"/>
		</contour>
		<contour>
			<point name="aboveUC" x="492" y="739" type="move"/>
		</contour>
		<contour>
			<point name="belowLC" x="596" y="-20" type="move"/>
		</contour>
		<contour>
			<point name="center" x="494" y="396" type="move"/>
		</contour>
	</outline>
</glyph>
<glyph name="n" format="1">
	<unicode hex="006E"/>
	<advance width="1000"/>
	<outline>
		<contour>
			<point x="305" y="0" type="line"/>
			<point x="350" y="0" type="line"/>
			<point x="350" y="344" type="line"/>
			<point x="419" y="417"/>
			<point x="466" y="452"/>
			<point x="534" y="452" type="curve" smooth="yes"/>
			<point x="629" y="452"/>
			<point x="669" y="401"/>
			<point x="669" y="293" type="curve" smooth="yes"/>
			<point x="669" y="0" type="line"/>
			<point x="714" y="0" type="line"/>
			<point x="714" y="299" type="line" smooth="yes"/>
			<point x="714" y="429"/>
			<point x="658" y="492"/>
			<point x="541" y="492" type="curve" smooth="yes"/>
			<point x="464" y="492"/>
			<point x="407" y="447"/>
			<point x="352" y="388" type="curve"/>
			<point x="348" y="388" type="line"/>
			<point x="343" y="480" type="line"/>
			<point x="305" y="480" type="line"/>
		</contour>
		<contour>
			<point name="aboveLC" x="519" y="502" type="move"/>
		</contour>
		<contour>
			<point name="baseLC" x="686" y="0" type="move"/>
		</contour>
		<contour>
			<point name="belowLC" x="517" y="-20" type="move"/>
		</contour>
	</outline>
</glyph>
<glyph name="o" format="1">
	<unicode hex="006F"/>
	<advance width="1000"/>
	<outline>
		<contour>
			<point x="500" y="-12" type="curve" smooth="yes"/>
			<point x="626" y="-12"/>
			<point x="733" y="80"/>
			<point x="733" y="239" type="curve" smooth="yes"/>
			<point x="733" y="400"/>
			<point x="626" y="492"/>
			<point x="500" y="492" type="curve" smooth="yes"/>
			<point x="374" y="492"/>
			<point x="267" y="400"/>
			<point x="267" y="239" type="curve" smooth="yes"/>
			<point x="267" y="80"/>
			<point x="374" y="-12"/>
		</contour>
		<contour>
			<point x="500" y="27" type="curve" smooth="yes"/>
			<point x="392" y="27"/>
			<point x="314" y="113"/>
			<point x="314" y="239" type="curve" smooth="yes"/>
			<point x="314" y="366"/>
			<point x="392" y="453"/>
			<point x="500" y="453" type="curve" smooth="yes"/>
			<point x="608" y="453"/>
			<point x="686" y="366"/>
			<point x="686" y="239" type="curve" smooth="yes"/>
			<point x="686" y="113"/>
			<point x="608" y="27"/>
		</contour>
		<contour>
			<point name="baseLC" x="500" y="0" type="move"/>
		</contour>
		<contour>
			<point name="ogonekLC" x="500" y="0" type="move"/>
		</contour>
		<contour>
			<point name="belowLC" x="500" y="-20" type="move"/>
		</contour>
		<contour>
			<point name="hornLC" x="610" y="480" type="move"/>
		</contour>
		<contour>
			<point name="aboveLC" x="500" y="502" type="move"/>
		</contour>
	</outline>
</glyph>
<glyph name="p" format="1">
	<unicode hex="0070"/>
	<advance width="1000"/>
	<outline>
		<contour>
			<point x="305" y="-217" type="line"/>
			<point x="350" y="-217" type="line"/>
			<point x="350" y="-42" type="line"/>
			<point x="347" y="56" type="line"/>
			<point x="349" y="56" type="line"/>
			<point x="397" y="13"/>
			<point x="462" y="-12"/>
			<point x="508" y="-12" type="curve" smooth="yes"/>
			<point x="628" y="-12"/>
			<point x="733" y="84"/>
			<point x="733" y="247" type="curve" smooth="yes"/>
			<point x="733" y="396"/>
			<point x="665" y="492"/>
			<point x="529" y="492" type="curve" smooth="yes"/>
			<point x="467" y="492"/>
			<point x="398" y="457"/>
			<point x="350" y="411" type="curve"/>
			<point x="348" y="411" type="line"/>
			<point x="343" y="480" type="line"/>
			<point x="305" y="480" type="line"/>
		</contour>
		<contour>
			<point x="506" y="27" type="curve" smooth="yes"/>
			<point x="468" y="27"/>
			<point x="406" y="47"/>
			<point x="350" y="98" type="curve"/>
			<point x="350" y="365" type="line"/>
			<point x="410" y="425"/>
			<point x="472" y="453"/>
			<point x="522" y="453" type="curve" smooth="yes"/>
			<point x="640" y="453"/>
			<point x="686" y="365"/>
			<point x="686" y="247" type="curve" smooth="yes"/>
			<point x="686" y="117"/>
			<point x="611" y="27"/>
		</contour>
		<contour>
			<point name="aboveLC" x="520" y="502" type="move"/>
		</contour>
		<contour>
			<point name="belowLC" x="332" y="-227" type="move"/>
		</contour>
	</outline>
</glyph>
<glyph name="r" format="1">
	<unicode hex="0072"/>
	<advance width="440"/>
	<outline>
		<contour>
			<point x="130" y="-10" type="curve" smooth="yes"/>
			<point x="170" y="-10" type="line" smooth="yes"/>
			<point x="218" y="-10"/>
			<point x="250" y="22"/>
			<point x="250" y="70" type="curve" smooth="yes"/>
			<point x="250" y="268" type="line"/>
			<point x="272" y="322"/>
			<point x="302" y="342"/>
			<point x="332" y="342" type="curve" smooth="yes"/>
			<point x="346" y="342"/>
			<point x="356" y="338"/>
			<point x="376" y="338" type="curve" smooth="yes"/>
			<point x="404" y="338"/>
			<point x="440" y="357"/>
			<point x="440" y="432" type="curve" smooth="yes"/>
			<point x="440" y="488"/>
			<point x="418" y="516"/>
			<point x="360" y="516" type="curve" smooth="yes"/>
			<point x="316" y="516"/>
			<point x="270" y="488"/>
			<point x="230" y="419" type="curve"/>
			<point x="226" y="419" type="line"/>
			<point x="224" y="435" type="line" smooth="yes"/>
			<point x="218" y="486"/>
			<point x="194" y="514"/>
			<point x="144" y="514" type="curve" smooth="yes"/>
			<point x="130" y="514" type="line" smooth="yes"/>
			<point x="82" y="514"/>
			<point x="50" y="482"/>
			<point x="50" y="434" type="curve" smooth="yes"/>
			<point x="50" y="70" type="line" smooth="yes"/>
			<point x="50" y="22"/>
			<point x="82" y="-10"/>
		</contour>
		<contour>
			<point name="aboveLC" x="262" y="524" type="move"/>
		</contour>
		<contour>
			<point name="baseLC" x="149" y="0" type="move"/>
		</contour>
		<contour>
			<point name="belowLC" x="151" y="-20" type="move"/>
		</contour>
	</outline>
</glyph>
<glyph name="t" format="1">
	<unicode hex="0074"/>
	<advance width="420"/>
	<outline>
		<contour>
			<point x="262" y="-12" type="curve" smooth="yes"/>
			<point x="365" y="-12"/>
			<point x="404" y="18"/>
			<point x="404" y="74" type="curve" smooth="yes"/>
			<point x="404" y="132"/>
			<point x="378" y="146"/>
			<point x="346" y="146" type="curve" smooth="yes"/>
			<point x="336" y="146"/>
			<point x="328" y="144"/>
			<point x="320" y="144" type="curve" smooth="yes"/>
			<point x="300" y="144"/>
			<point x="274" y="158"/>
			<point x="274" y="210" type="curve" smooth="yes"/>
			<point x="274" y="350" type="line"/>
			<point x="314" y="350" type="line"/>
			<point x="362" y="350"/>
			<point x="394" y="368"/>
			<point x="394" y="420" type="curve"/>
			<point x="394" y="434" type="line"/>
			<point x="394" y="486"/>
			<point x="362" y="504"/>
			<point x="314" y="504" type="curve"/>
			<point x="274" y="504" type="line"/>
			<point x="274" y="572" type="line" smooth="yes"/>
			<point x="274" y="622"/>
			<point x="255" y="642"/>
			<point x="204" y="642" type="curve" smooth="yes"/>
			<point x="178" y="642" type="line" smooth="yes"/>
			<point x="134" y="642"/>
			<point x="110" y="624"/>
			<point x="100" y="574" type="curve" smooth="yes"/>
			<point x="86" y="504" type="line"/>
			<point x="24" y="498"/>
			<point x="0" y="484"/>
			<point x="0" y="430" type="curve"/>
			<point x="0" y="420" type="line"/>
			<point x="0" y="368"/>
			<point x="26" y="350"/>
			<point x="72" y="350" type="curve"/>
			<point x="74" y="350" type="line"/>
			<point x="74" y="206" type="line" smooth="yes"/>
			<point x="74" y="74"/>
			<point x="132" y="-12"/>
		</contour>
		<contour>
			<point name="aboveLC" x="186" y="666" type="move"/>
		</contour>
		<contour>
			<point name="baseLC" x="248" y="0" type="move"/>
		</contour>
		<contour>
			<point name="belowLC" x="237" y="-20" type="move"/>
		</contour>
	</outline>
</glyph>
<glyph name="u" format="1">
	<unicode hex="0075"/>
	<advance width="586"/>
	<outline>
		<contour>
			<point x="355" y="52" type="line"/>
			<point x="369" y="2"/>
			<point x="394" y="-10"/>
			<point x="453" y="-10" type="curve" smooth="yes"/>
			<point x="456" y="-10" type="line" smooth="yes"/>
			<point x="504" y="-10"/>
			<point x="536" y="22"/>
			<point x="536" y="70" type="curve"/>
			<point x="536" y="434" type="line" smooth="yes"/>
			<point x="536" y="482"/>
			<point x="504" y="514"/>
			<point x="456" y="514" type="curve" smooth="yes"/>
			<point x="416" y="514" type="line" smooth="yes"/>
			<point x="368" y="514"/>
			<point x="336" y="482"/>
			<point x="336" y="434" type="curve" smooth="yes"/>
			<point x="336" y="182" type="line"/>
			<point x="318" y="164"/>
			<point x="308" y="158"/>
			<point x="285" y="158" type="curve" smooth="yes"/>
			<point x="261" y="158"/>
			<point x="248" y="172"/>
			<point x="248" y="212" type="curve" smooth="yes"/>
			<point x="248" y="434" type="line" smooth="yes"/>
			<point x="248" y="482"/>
			<point x="216" y="514"/>
			<point x="168" y="514" type="curve" smooth="yes"/>
			<point x="128" y="514" type="line" smooth="yes"/>
			<point x="80" y="514"/>
			<point x="48" y="482"/>
			<point x="48" y="434" type="curve" smooth="yes"/>
			<point x="48" y="186" type="line" smooth="yes"/>
			<point x="48" y="68"/>
			<point x="94" y="-12"/>
			<point x="206" y="-12" type="curve" smooth="yes"/>
			<point x="270" y="-12"/>
			<point x="316" y="14"/>
			<point x="351" y="52" type="curve"/>
		</contour>
		<contour>
			<point name="ogonekLC" x="409" y="0" type="move"/>
		</contour>
		<contour>
			<point name="aboveLC" x="306" y="524" type="move"/>
		</contour>
		<contour>
			<point name="baseLC" x="486" y="0" type="move"/>
		</contour>
		<contour>
			<point name="belowLC" x="290" y="-20" type="move"/>
		</contour>
	</outline>
</glyph>
<glyph name="v" format="1">
	<unicode hex="0076"/>
	<advance width="568"/>
	<outline>
		<contour>
			<point x="148" y="76" type="line" smooth="yes"/>
			<point x="164" y="25"/>
			<point x="198" y="0"/>
			<point x="252" y="0" type="curve" smooth="yes"/>
			<point x="323" y="0" type="line" smooth="yes"/>
			<point x="377" y="0"/>
			<point x="410" y="25"/>
			<point x="426" y="77" type="curve" smooth="yes"/>
			<point x="533" y="427" type="line" smooth="yes"/>
			<point x="545" y="465"/>
			<point x="516" y="504"/>
			<point x="476" y="504" type="curve" smooth="yes"/>
			<point x="446" y="504" type="line" smooth="yes"/>
			<point x="394" y="504"/>
			<point x="359" y="476"/>
			<point x="349" y="426" type="curve" smooth="yes"/>
			<point x="324" y="305" type="line" smooth="yes"/>
			<point x="313" y="254"/>
			<point x="302" y="201"/>
			<point x="291" y="145" type="curve"/>
			<point x="287" y="145" type="line"/>
			<point x="276" y="201"/>
			<point x="265" y="254"/>
			<point x="254" y="305" type="curve" smooth="yes"/>
			<point x="229" y="426" type="line" smooth="yes"/>
			<point x="219" y="476"/>
			<point x="184" y="504"/>
			<point x="132" y="504" type="curve" smooth="yes"/>
			<point x="92" y="504" type="line" smooth="yes"/>
			<point x="53" y="504"/>
			<point x="24" y="465"/>
			<point x="36" y="428" type="curve" smooth="yes"/>
		</contour>
		<contour>
			<point name="aboveLC" x="286" y="524" type="move"/>
		</contour>
		<contour>
			<point name="belowLC" x="286" y="-20" type="move"/>
		</contour>
	</outline>
</glyph>
<glyph name="x" format="1">
	<unicode hex="0078"/>
	<advance width="570"/>
	<outline>
		<contour>
			<point x="53" y="70" type="line" smooth="yes"/>
			<point x="36" y="40"/>
			<point x="60" y="0"/>
			<point x="94" y="0" type="curve" smooth="yes"/>
			<point x="141" y="0" type="line" smooth="yes"/>
			<point x="194" y="0"/>
			<point x="228" y="26"/>
			<point x="243" y="77" type="curve"/>
			<point x="237" y="56" type="line"/>
			<point x="246" y="85"/>
			<point x="257" y="114"/>
			<point x="266" y="142" type="curve"/>
			<point x="270" y="142" type="line"/>
			<point x="284" y="114"/>
			<point x="297" y="84"/>
			<point x="312" y="56" type="curve"/>
			<point x="304" y="71" type="line"/>
			<point x="331" y="20"/>
			<point x="365" y="0"/>
			<point x="422" y="0" type="curve" smooth="yes"/>
			<point x="476" y="0" type="line" smooth="yes"/>
			<point x="508" y="0"/>
			<point x="531" y="40"/>
			<point x="514" y="68" type="curve" smooth="yes"/>
			<point x="408" y="238" type="line"/>
			<point x="512" y="433" type="line" smooth="yes"/>
			<point x="528" y="464"/>
			<point x="503" y="504"/>
			<point x="469" y="504" type="curve" smooth="yes"/>
			<point x="422" y="504" type="line" smooth="yes"/>
			<point x="370" y="504"/>
			<point x="336" y="477"/>
			<point x="325" y="426" type="curve"/>
			<point x="329" y="446" type="line"/>
			<point x="322" y="418"/>
			<point x="310" y="387"/>
			<point x="303" y="358" type="curve"/>
			<point x="299" y="358" type="line"/>
			<point x="287" y="387"/>
			<point x="274" y="418"/>
			<point x="262" y="446" type="curve"/>
			<point x="269" y="431" type="line"/>
			<point x="245" y="482"/>
			<point x="211" y="504"/>
			<point x="155" y="504" type="curve" smooth="yes"/>
			<point x="101" y="504" type="line" smooth="yes"/>
			<point x="68" y="504"/>
			<point x="44" y="464"/>
			<point x="61" y="435" type="curve" smooth="yes"/>
			<point x="161" y="262" type="line"/>
		</contour>
		<contour>
			<point name="aboveLC" x="285" y="524" type="move"/>
		</contour>
		<contour>
			<point name="baseLC" x="477" y="0" type="move"/>
		</contour>
		<contour>
			<point name="belowLC" x="285" y="-20" type="move"/>
		</contour>
	</outline>
</glyph>
<glyph name="ZWJ" format="1">
	<unicode hex="200D"/>
	<outline>
		<contour>
			<point x="240" y="676" type="line"/>
			<point x="240" y="842" type="line"/>
			<point x="-240" y="842" type="line"/>
			<point x="-240" y="676" type="line"/>
			<point x="-184" y="676" type="line"/>
			<point x="-184" y="786" type="line"/>
			<point x="184" y="786" type="line"/>
			<point x="184" y="676" type="line"/>
		</contour>
	</outline>
</glyph>
<glyph name="exclamdbl" format="1">
	<unicode hex="203C"/>
	<advance width="649"/>
	<outline>
		<contour>
			<point x="433" y="260" type="line" smooth="yes"/>
			<point x="434" y="248"/>
			<point x="442" y="240"/>
			<point x="454" y="240" type="curve" smooth="yes"/>
			<point x="496" y="240" type="line" smooth="yes"/>
			<point x="508" y="240"/>
			<point x="517" y="248"/>
			<point x="517" y="260" type="curve" smooth="yes"/>
			<point x="532" y="633" type="line" smooth="yes"/>
			<point x="535" y="735" type="line" smooth="yes"/>
			<point x="535" y="747"/>
			<point x="528" y="755"/>
			<point x="516" y="755" type="curve" smooth="yes"/>
			<point x="434" y="755" type="line" smooth="yes"/>
			<point x="422" y="755"/>
			<point x="414" y="747"/>
			<point x="414" y="735" type="curve" smooth="yes"/>
			<point x="417" y="633" type="line" smooth="yes"/>
		</contour>
		<contour>
			<point x="475" y="-8" type="curve" smooth="yes"/>
			<point x="519" y="-8"/>
			<point x="555" y="27"/>
			<point x="555" y="75" type="curve" smooth="yes"/>
			<point x="555" y="125"/>
			<point x="519" y="160"/>
			<point x="475" y="160" type="curve" smooth="yes"/>
			<point x="430" y="160"/>
			<point x="395" y="125"/>
			<point x="395" y="75" type="curve" smooth="yes"/>
			<point x="395" y="27"/>
			<point x="430" y="-8"/>
		</contour>
		<contour>
			<point x="133" y="260" type="line" smooth="yes"/>
			<point x="134" y="248"/>
			<point x="142" y="240"/>
			<point x="154" y="240" type="curve" smooth="yes"/>
			<point x="196" y="240" type="line" smooth="yes"/>
			<point x="208" y="240"/>
			<point x="217" y="248"/>
			<point x="217" y="260" type="curve" smooth="yes"/>
			<point x="232" y="633" type="line" smooth="yes"/>
			<point x="235" y="735" type="line" smooth="yes"/>
			<point x="235" y="747"/>
			<point x="228" y="755"/>
			<point x="216" y="755" type="curve" smooth="yes"/>
			<point x="134" y="755" type="line" smooth="yes"/>
			<point x="122" y="755"/>
			<point x="114" y="747"/>
			<point x="114" y="735" type="curve" smooth="yes"/>
			<point x="117" y="633" type="line" smooth="yes"/>
		</contour>
		<contour>
			<point x="175" y="-8" type="curve" smooth="yes"/>
			<point x="219" y="-8"/>
			<point x="255" y="27"/>
			<point x="255" y="75" type="curve" smooth="yes"/>
			<point x="255" y="125"/>
			<point x="219" y="160"/>
			<point x="175" y="160" type="curve" smooth="yes"/>
			<point x="130" y="160"/>
			<point x="95" y="125"/>
			<point x="95" y="75" type="curve" smooth="yes"/>
			<point x="95" y="27"/>
			<point x="130" y="-8"/>
		</contour>
	</outline>
</glyph>
<glyph name="trademark" format="1">
	<unicode hex="2122"/>
	<advance width="1000"/>
	<outline>
		<contour>
			<point x="189" y="20" type="line" smooth="yes"/>
			<point x="189" y="8"/>
			<point x="197" y="0"/>
			<point x="209" y="0" type="curve" smooth="yes"/>
			<point x="292" y="0" type="line" smooth="yes"/>
			<point x="304" y="0"/>
			<point x="312" y="8"/>
			<point x="312" y="20" type="curve" smooth="yes"/>
			<point x="312" y="636" type="line"/>
			<point x="456" y="636" type="line" smooth="yes"/>
			<point x="468" y="636"/>
			<point x="476" y="644"/>
			<point x="476" y="656" type="curve" smooth="yes"/>
			<point x="476" y="719" type="line" smooth="yes"/>
			<point x="476" y="731"/>
			<point x="468" y="739"/>
			<point x="456" y="739" type="curve" smooth="yes"/>
			<point x="44" y="739" type="line" smooth="yes"/>
			<point x="32" y="739"/>
			<point x="24" y="731"/>
			<point x="24" y="719" type="curve" smooth="yes"/>
			<point x="24" y="656" type="line" smooth="yes"/>
			<point x="24" y="644"/>
			<point x="32" y="636"/>
			<point x="44" y="636" type="curve" smooth="yes"/>
			<point x="189" y="636" type="line"/>
		</contour>
		<contour>
			<point x="544" y="20" type="line" smooth="yes"/>
			<point x="544" y="8"/>
			<point x="552" y="0"/>
			<point x="564" y="0" type="curve" smooth="yes"/>
			<point x="619" y="0" type="line" smooth="yes"/>
			<point x="631" y="0"/>
			<point x="639" y="8"/>
			<point x="639" y="20" type="curve" smooth="yes"/>
			<point x="639" y="348" type="line" smooth="yes"/>
			<point x="639" y="417"/>
			<point x="621" y="550"/>
			<point x="615" y="617" type="curve"/>
			<point x="619" y="617" type="line"/>
			<point x="661" y="442" type="line" smooth="yes"/>
			<point x="716" y="230" type="line" smooth="yes"/>
			<point x="719" y="218"/>
			<point x="728" y="211"/>
			<point x="741" y="211" type="curve" smooth="yes"/>
			<point x="757" y="211" type="line" smooth="yes"/>
			<point x="770" y="211"/>
			<point x="779" y="218"/>
			<point x="782" y="230" type="curve" smooth="yes"/>
			<point x="837" y="442" type="line" smooth="yes"/>
			<point x="877" y="617" type="line"/>
			<point x="881" y="617" type="line"/>
			<point x="875" y="550"/>
			<point x="859" y="417"/>
			<point x="859" y="348" type="curve" smooth="yes"/>
			<point x="859" y="20" type="line" smooth="yes"/>
			<point x="859" y="8"/>
			<point x="867" y="0"/>
			<point x="879" y="0" type="curve" smooth="yes"/>
			<point x="936" y="0" type="line" smooth="yes"/>
			<point x="948" y="0"/>
			<point x="956" y="8"/>
			<point x="956" y="20" type="curve" smooth="yes"/>
			<point x="956" y="719" type="line" smooth="yes"/>
			<point x="956" y="731"/>
			<point x="948" y="739"/>
			<point x="936" y="739" type="curve" smooth="yes"/>
			<point x="862" y="739" type="line" smooth="yes"/>
			<point x="849" y="739"/>
			<point x="840" y="732"/>
			<point x="837" y="720" type="curve" smooth="yes"/>
			<point x="776" y="471" type="line" smooth="yes"/>
			<point x="752" y="352" type="line"/>
			<point x="748" y="352" type="line"/>
			<point x="725" y="471" type="line" smooth="yes"/>
			<point x="663" y="720" type="line" smooth="yes"/>
			<point x="660" y="732"/>
			<point x="651" y="739"/>
			<point x="638" y="739" type="curve" smooth="yes"/>
			<point x="564" y="739" type="line" smooth="yes"/>
			<point x="552" y="739"/>
			<point x="544" y="731"/>
			<point x="544" y="719" type="curve" smooth="yes"/>
		</contour>
	</outline>
</glyph>
<glyph name="informationsource" format="1">
  <advance width="1000"/>
  <unicode hex="2139"/>
  <outline>
    <contour>
      <point x="503" y="537" type="curve" smooth="yes"/>
      <point x="461" y="537"/>
      <point x="432" y="563"/>
      <point x="432" y="601" type="curve" smooth="yes"/>
      <point x="432" y="640"/>
      <point x="461" y="668"/>
      <point x="503" y="668" type="curve" smooth="yes"/>
      <point x="543" y="668"/>
      <point x="573" y="640"/>
      <point x="573" y="601" type="curve" smooth="yes"/>
      <point x="573" y="563"/>
      <point x="543" y="537"/>
    </contour>
    <contour>
      <point x="346" y="124" type="line" smooth="yes"/>
      <point x="334" y="124"/>
      <point x="326" y="132"/>
      <point x="326" y="144" type="curve" smooth="yes"/>
      <point x="326" y="187" type="line" smooth="yes"/>
      <point x="326" y="199"/>
      <point x="334" y="207"/>
      <point x="346" y="207" type="curve" smooth="yes"/>
      <point x="454" y="207" type="line"/>
      <point x="454" y="398" type="line"/>
      <point x="362" y="398" type="line" smooth="yes"/>
      <point x="350" y="398"/>
      <point x="342" y="406"/>
      <point x="342" y="418" type="curve" smooth="yes"/>
      <point x="342" y="461" type="line" smooth="yes"/>
      <point x="342" y="473"/>
      <point x="350" y="481"/>
      <point x="362" y="481" type="curve" smooth="yes"/>
      <point x="540" y="481" type="line" smooth="yes"/>
      <point x="552" y="481"/>
      <point x="560" y="473"/>
      <point x="560" y="461" type="curve" smooth="yes"/>
      <point x="560" y="207" type="line"/>
      <point x="655" y="207" type="line" smooth="yes"/>
      <point x="667" y="207"/>
      <point x="675" y="199"/>
      <point x="675" y="187" type="curve" smooth="yes"/>
      <point x="675" y="144" type="line" smooth="yes"/>
      <point x="675" y="132"/>
      <point x="667" y="124"/>
      <point x="655" y="124" type="curve" smooth="yes"/>
    </contour>
    <contour>
      <point x="500" y="-89" type="curve" smooth="yes"/>
      <point x="757" y="-89"/>
      <point x="969" y="119"/>
      <point x="969" y="380" type="curve" smooth="yes"/>
      <point x="969" y="639"/>
      <point x="759" y="849"/>
      <point x="500" y="849" type="curve" smooth="yes"/>
      <point x="241" y="849"/>
      <point x="31" y="639"/>
      <point x="31" y="380" type="curve" smooth="yes"/>
      <point x="31" y="121"/>
      <point x="241" y="-89"/>
    </contour>
  </outline>
</glyph>
<glyph name="arrowboth" format="1">
  <advance width="1000"/>
  <unicode hex="2194"/>
  <outline>
    <contour>
      <point x="1020" y="255" type="line"/>
      <point x="723" y="599" type="line"/>
      <point x="678" y="559" type="line"/>
      <point x="922" y="284" type="line"/>
      <point x="78" y="284" type="line"/>
      <point x="322" y="559" type="line"/>
      <point x="277" y="599" type="line"/>
      <point x="-20" y="255" type="line"/>
      <point x="-20" y="249" type="line"/>
      <point x="277" y="-95" type="line"/>
      <point x="322" y="-55" type="line"/>
      <point x="78" y="220" type="line"/>
      <point x="922" y="220" type="line"/>
      <point x="678" y="-55" type="line"/>
      <point x="723" y="-95" type="line"/>
      <point x="1020" y="249" type="line"/>
    </contour>
  </outline>
</glyph>
<glyph name="arrowupleft" format="1">
	<unicode hex="2196"/>
	<advance width="1000"/>
	<outline>
		<contour>
			<point x="301" y="64" type="line"/>
			<point x="385" y="68" type="line"/>
			<point x="374" y="304" type="line"/>
			<point x="655" y="23" type="line"/>
			<point x="720" y="89" type="line"/>
			<point x="439" y="370" type="line"/>
			<point x="675" y="359" type="line"/>
			<point x="680" y="443" type="line"/>
			<point x="298" y="449" type="line"/>
			<point x="295" y="446" type="line"/>
		</contour>
	</outline>
</glyph>
<glyph name="arrowdownright" format="1">
	<unicode hex="2198"/>
	<advance width="1000"/>
	<outline>
		<contour>
			<point x="319" y="61" type="line"/>
			<point x="701" y="55" type="line"/>
			<point x="704" y="58" type="line"/>
			<point x="698" y="440" type="line"/>
			<point x="614" y="436" type="line"/>
			<point x="625" y="200" type="line"/>
			<point x="344" y="481" type="line"/>
			<point x="278" y="415" type="line"/>
			<point x="559" y="134" type="line"/>
			<point x="323" y="145" type="line"/>
		</contour>
	</outline>
</glyph>
<glyph name="arrowdownleft" format="1">
	<unicode hex="2199"/>
	<advance width="1000"/>
	<outline>
		<contour>
			<point x="303" y="57" type="line"/>
			<point x="306" y="54" type="line"/>
			<point x="688" y="60" type="line"/>
			<point x="683" y="145" type="line"/>
			<point x="447" y="134" type="line"/>
			<point x="728" y="414" type="line"/>
			<point x="663" y="480" type="line"/>
			<point x="382" y="199" type="line"/>
			<point x="393" y="435" type="line"/>
			<point x="309" y="440" type="line"/>
		</contour>
	</outline>
</glyph>
<glyph name="bulletsquare" format="1">
  <advance width="1000"/>
  <unicode hex="25AA"/>
  <outline>
    <contour>
      <point x="293" y="57" type="line"/>
      <point x="707" y="57" type="line"/>
      <point x="707" y="467" type="line"/>
      <point x="293" y="467" type="line"/>
    </contour>
  </outline>
</glyph>
<glyph name="ballotboxcheck" format="1">
	<unicode hex="2611"/>
	<advance width="1000"/>
	<outline>
		<contour>
			<point x="465" y="101" type="curve"/>
			<point x="520" y="108" type="line"/>
			<point x="591" y="359"/>
			<point x="739" y="596"/>
			<point x="906" y="752" type="curve"/>
			<point x="874" y="784" type="line"/>
			<point x="709" y="625"/>
			<point x="556" y="373"/>
			<point x="490" y="144" type="curve"/>
			<point x="486" y="144" type="line"/>
			<point x="458" y="233"/>
			<point x="410" y="327"/>
			<point x="359" y="406" type="curve"/>
			<point x="325" y="382" type="line"/>
			<point x="379" y="300"/>
			<point x="428" y="204"/>
		</contour>
		<contour>
			<point x="177" y="-10" type="line"/>
			<point x="778" y="-10" type="line"/>
			<point x="823" y="43" type="line"/>
			<point x="823" y="669" type="line"/>
			<point x="230" y="669" type="line"/>
			<point x="177" y="626" type="line"/>
		</contour>
		<contour>
			<point x="211" y="23" type="line"/>
			<point x="211" y="604" type="line"/>
			<point x="756" y="604" type="line"/>
			<point x="756" y="23" type="line"/>
		</contour>
	</outline>
</glyph>
<glyph name="beveragehot" format="1">
	<unicode hex="2615"/>
	<advance width="1000"/>
	<outline>
		<contour>
			<point x="418" y="-94" type="curve" smooth="yes"/>
			<point x="548" y="-94"/>
			<point x="668" y="-45"/>
			<point x="734" y="66" type="curve"/>
			<point x="881" y="66"/>
			<point x="1000" y="168"/>
			<point x="1000" y="322" type="curve" smooth="yes"/>
			<point x="1000" y="460"/>
			<point x="931" y="516"/>
			<point x="827" y="533" type="curve"/>
			<point x="800" y="702"/>
			<point x="667" y="793"/>
			<point x="418" y="793" type="curve" smooth="yes"/>
			<point x="157" y="793"/>
			<point x="0" y="685"/>
			<point x="0" y="483" type="curve" smooth="yes"/>
			<point x="0" y="86"/>
			<point x="164" y="-94"/>
		</contour>
		<contour>
			<point x="418" y="-44" type="curve" smooth="yes"/>
			<point x="204" y="-44"/>
			<point x="56" y="108"/>
			<point x="56" y="470" type="curve" smooth="yes"/>
			<point x="56" y="640"/>
			<point x="188" y="745"/>
			<point x="418" y="745" type="curve" smooth="yes"/>
			<point x="650" y="745"/>
			<point x="778" y="648"/>
			<point x="778" y="487" type="curve"/>
			<point x="889" y="487"/>
			<point x="945" y="422"/>
			<point x="945" y="322" type="curve" smooth="yes"/>
			<point x="945" y="208"/>
			<point x="866" y="110"/>
			<point x="700" y="110" type="curve"/>
			<point x="646" y="-2"/>
			<point x="539" y="-44"/>
		</contour>
		<contour>
			<point x="418" y="308" type="curve" smooth="yes"/>
			<point x="608" y="308"/>
			<point x="695" y="365"/>
			<point x="748" y="453" type="curve"/>
			<point x="715" y="554"/>
			<point x="596" y="628"/>
			<point x="418" y="628" type="curve" smooth="yes"/>
			<point x="239" y="628"/>
			<point x="120" y="556"/>
			<point x="86" y="453" type="curve"/>
			<point x="139" y="365"/>
			<point x="228" y="308"/>
		</contour>
		<contour>
			<point x="740" y="212" type="curve"/>
			<point x="795" y="212"/>
			<point x="840" y="249"/>
			<point x="840" y="312" type="curve" smooth="yes"/>
			<point x="840" y="362"/>
			<point x="819" y="378"/>
			<point x="773" y="378" type="curve"/>
			<point x="770" y="323"/>
			<point x="759" y="268"/>
		</contour>
		<contour>
			<point x="530" y="467" type="curve"/>
			<point x="530" y="467" type="line"/>
			<point x="430" y="397"/>
			<point x="358" y="373"/>
			<point x="292" y="373" type="curve" smooth="yes"/>
			<point x="232" y="373"/>
			<point x="198" y="400"/>
			<point x="198" y="425" type="curve" smooth="yes"/>
			<point x="198" y="445"/>
			<point x="212" y="457"/>
			<point x="255" y="467" type="curve"/>
			<point x="255" y="467" type="line"/>
			<point x="212" y="477"/>
			<point x="198" y="490"/>
			<point x="198" y="508" type="curve" smooth="yes"/>
			<point x="198" y="535"/>
			<point x="232" y="560"/>
			<point x="292" y="560" type="curve" smooth="yes"/>
			<point x="358" y="560"/>
			<point x="430" y="538"/>
		</contour>
		<contour>
			<point x="538" y="467" type="curve"/>
			<point x="538" y="467" type="line"/>
			<point x="593" y="500"/>
			<point x="635" y="508"/>
			<point x="658" y="508" type="curve" smooth="yes"/>
			<point x="683" y="508"/>
			<point x="707" y="493"/>
			<point x="707" y="467" type="curve" smooth="yes"/>
			<point x="707" y="442"/>
			<point x="683" y="425"/>
			<point x="658" y="425" type="curve" smooth="yes"/>
			<point x="635" y="425"/>
			<point x="593" y="435"/>
		</contour>
	</outline>
</glyph>
<glyph name="mercury" format="1">
	<unicode hex="263F"/>
	<advance width="1000"/>
	<outline>
		<contour>
			<point x="500" y="214" type="curve" smooth="yes"/>
			<point x="670" y="214"/>
			<point x="786" y="328"/>
			<point x="786" y="474" type="curve" smooth="yes"/>
			<point x="786" y="618"/>
			<point x="669" y="727"/>
			<point x="500" y="727" type="curve" smooth="yes"/>
			<point x="331" y="727"/>
			<point x="214" y="618"/>
			<point x="214" y="474" type="curve" smooth="yes"/>
			<point x="214" y="328"/>
			<point x="330" y="214"/>
		</contour>
		<contour>
			<point x="500" y="342" type="curve" smooth="yes"/>
			<point x="422" y="342"/>
			<point x="368" y="398"/>
			<point x="368" y="474" type="curve" smooth="yes"/>
			<point x="368" y="550"/>
			<point x="422" y="606"/>
			<point x="500" y="606" type="curve" smooth="yes"/>
			<point x="578" y="606"/>
			<point x="632" y="550"/>
			<point x="632" y="474" type="curve" smooth="yes"/>
			<point x="632" y="398"/>
			<point x="579" y="342"/>
		</contour>
		<contour>
			<point x="426" y="-77" type="line" smooth="yes"/>
			<point x="426" y="-89"/>
			<point x="434" y="-97"/>
			<point x="446" y="-97" type="curve" smooth="yes"/>
			<point x="554" y="-97" type="line" smooth="yes"/>
			<point x="566" y="-97"/>
			<point x="574" y="-89"/>
			<point x="574" y="-77" type="curve" smooth="yes"/>
			<point x="574" y="7" type="line"/>
			<point x="705" y="7" type="line" smooth="yes"/>
			<point x="717" y="7"/>
			<point x="725" y="15"/>
			<point x="725" y="27" type="curve" smooth="yes"/>
			<point x="725" y="131" type="line" smooth="yes"/>
			<point x="725" y="143"/>
			<point x="717" y="151"/>
			<point x="705" y="151" type="curve" smooth="yes"/>
			<point x="574" y="151" type="line"/>
			<point x="574" y="315" type="line"/>
			<point x="426" y="315" type="line"/>
			<point x="426" y="151" type="line"/>
			<point x="295" y="151" type="line" smooth="yes"/>
			<point x="283" y="151"/>
			<point x="275" y="143"/>
			<point x="275" y="131" type="curve" smooth="yes"/>
			<point x="275" y="27" type="line" smooth="yes"/>
			<point x="275" y="15"/>
			<point x="283" y="7"/>
			<point x="295" y="7" type="curve" smooth="yes"/>
			<point x="426" y="7" type="line"/>
		</contour>
		<contour>
			<point x="676" y="870" type="line" smooth="yes"/>
			<point x="664" y="872"/>
			<point x="655" y="866"/>
			<point x="653" y="854" type="curve" smooth="yes"/>
			<point x="642" y="784"/>
			<point x="592" y="733"/>
			<point x="500" y="733" type="curve" smooth="yes"/>
			<point x="407" y="733"/>
			<point x="358" y="784"/>
			<point x="347" y="854" type="curve" smooth="yes"/>
			<point x="345" y="866"/>
			<point x="336" y="872"/>
			<point x="324" y="870" type="curve" smooth="yes"/>
			<point x="224" y="854" type="line" smooth="yes"/>
			<point x="211" y="852"/>
			<point x="204" y="843"/>
			<point x="205" y="830" type="curve" smooth="yes"/>
			<point x="214" y="694"/>
			<point x="325" y="608"/>
			<point x="500" y="608" type="curve" smooth="yes"/>
			<point x="675" y="608"/>
			<point x="786" y="694"/>
			<point x="795" y="830" type="curve" smooth="yes"/>
			<point x="796" y="843"/>
			<point x="789" y="852"/>
			<point x="776" y="854" type="curve" smooth="yes"/>
		</contour>
	</outline>
</glyph>
<glyph name="female" format="1">
	<unicode hex="2640"/>
	<advance width="1000"/>
	<outline>
		<contour>
			<point x="500" y="244" type="curve" smooth="yes"/>
			<point x="685" y="244"/>
			<point x="812" y="374"/>
			<point x="812" y="540" type="curve" smooth="yes"/>
			<point x="812" y="708"/>
			<point x="685" y="835"/>
			<point x="500" y="835" type="curve" smooth="yes"/>
			<point x="315" y="835"/>
			<point x="188" y="708"/>
			<point x="188" y="540" type="curve" smooth="yes"/>
			<point x="188" y="374"/>
			<point x="315" y="244"/>
		</contour>
		<contour>
			<point x="500" y="372" type="curve" smooth="yes"/>
			<point x="405" y="372"/>
			<point x="339" y="444"/>
			<point x="339" y="540" type="curve" smooth="yes"/>
			<point x="339" y="637"/>
			<point x="405" y="708"/>
			<point x="500" y="708" type="curve" smooth="yes"/>
			<point x="594" y="708"/>
			<point x="658" y="637"/>
			<point x="658" y="540" type="curve" smooth="yes"/>
			<point x="658" y="444"/>
			<point x="594" y="372"/>
		</contour>
		<contour>
			<point x="426" y="-67" type="line" smooth="yes"/>
			<point x="426" y="-79"/>
			<point x="434" y="-87"/>
			<point x="446" y="-87" type="curve" smooth="yes"/>
			<point x="554" y="-87" type="line" smooth="yes"/>
			<point x="566" y="-87"/>
			<point x="574" y="-79"/>
			<point x="574" y="-67" type="curve" smooth="yes"/>
			<point x="574" y="33" type="line"/>
			<point x="715" y="33" type="line" smooth="yes"/>
			<point x="727" y="33"/>
			<point x="735" y="41"/>
			<point x="735" y="53" type="curve" smooth="yes"/>
			<point x="735" y="157" type="line" smooth="yes"/>
			<point x="735" y="169"/>
			<point x="727" y="177"/>
			<point x="715" y="177" type="curve" smooth="yes"/>
			<point x="574" y="177" type="line"/>
			<point x="574" y="345" type="line"/>
			<point x="426" y="345" type="line"/>
			<point x="426" y="177" type="line"/>
			<point x="285" y="177" type="line" smooth="yes"/>
			<point x="273" y="177"/>
			<point x="265" y="169"/>
			<point x="265" y="157" type="curve" smooth="yes"/>
			<point x="265" y="53" type="line" smooth="yes"/>
			<point x="265" y="41"/>
			<point x="273" y="33"/>
			<point x="285" y="33" type="curve" smooth="yes"/>
			<point x="426" y="33" type="line"/>
		</contour>
	</outline>
</glyph>
<glyph name="cancer" format="1">
	<unicode hex="264B"/>
	<advance width="1008"/>
	<outline>
		<contour>
			<point x="264" y="302" type="curve" smooth="yes"/>
			<point x="407" y="302"/>
			<point x="520" y="414"/>
			<point x="520" y="552" type="curve" smooth="yes"/>
			<point x="520" y="622"/>
			<point x="486" y="702"/>
			<point x="408" y="736" type="curve"/>
			<point x="444" y="712" type="line"/>
			<point x="645" y="712"/>
			<point x="747" y="652"/>
			<point x="890" y="532" type="curve" smooth="yes"/>
			<point x="899" y="525"/>
			<point x="910" y="525"/>
			<point x="918" y="534" type="curve" smooth="yes"/>
			<point x="991" y="617" type="line" smooth="yes"/>
			<point x="999" y="626"/>
			<point x="1000" y="638"/>
			<point x="991" y="646" type="curve" smooth="yes"/>
			<point x="844" y="781"/>
			<point x="706" y="864"/>
			<point x="440" y="864" type="curve" smooth="yes"/>
			<point x="210" y="864"/>
			<point x="6" y="760"/>
			<point x="6" y="552" type="curve" smooth="yes"/>
			<point x="6" y="414"/>
			<point x="119" y="302"/>
		</contour>
		<contour>
			<point x="264" y="454" type="curve" smooth="yes"/>
			<point x="206" y="454"/>
			<point x="160" y="499"/>
			<point x="160" y="552" type="curve" smooth="yes"/>
			<point x="160" y="612"/>
			<point x="206" y="662"/>
			<point x="264" y="662" type="curve" smooth="yes"/>
			<point x="322" y="662"/>
			<point x="370" y="612"/>
			<point x="370" y="552" type="curve" smooth="yes"/>
			<point x="370" y="499"/>
			<point x="322" y="454"/>
		</contour>
		<contour>
			<point x="566" y="-104" type="curve" smooth="yes"/>
			<point x="796" y="-104"/>
			<point x="1000" y="0"/>
			<point x="1000" y="208" type="curve" smooth="yes"/>
			<point x="1000" y="346"/>
			<point x="887" y="458"/>
			<point x="742" y="458" type="curve" smooth="yes"/>
			<point x="599" y="458"/>
			<point x="486" y="346"/>
			<point x="486" y="208" type="curve" smooth="yes"/>
			<point x="486" y="138"/>
			<point x="520" y="58"/>
			<point x="598" y="24" type="curve"/>
			<point x="562" y="48" type="line"/>
			<point x="361" y="48"/>
			<point x="259" y="108"/>
			<point x="116" y="228" type="curve" smooth="yes"/>
			<point x="107" y="235"/>
			<point x="96" y="235"/>
			<point x="88" y="226" type="curve" smooth="yes"/>
			<point x="15" y="143" type="line" smooth="yes"/>
			<point x="7" y="134"/>
			<point x="6" y="122"/>
			<point x="15" y="114" type="curve" smooth="yes"/>
			<point x="162" y="-21"/>
			<point x="300" y="-104"/>
		</contour>
		<contour>
			<point x="742" y="98" type="curve" smooth="yes"/>
			<point x="684" y="98"/>
			<point x="636" y="148"/>
			<point x="636" y="208" type="curve" smooth="yes"/>
			<point x="636" y="261"/>
			<point x="684" y="306"/>
			<point x="742" y="306" type="curve" smooth="yes"/>
			<point x="800" y="306"/>
			<point x="846" y="261"/>
			<point x="846" y="208" type="curve" smooth="yes"/>
			<point x="846" y="148"/>
			<point x="800" y="98"/>
		</contour>
	</outline>
</glyph>
<glyph name="leo" format="1">
	<unicode hex="264C"/>
	<advance width="1008"/>
	<outline>
		<contour>
			<point x="420" y="84" type="line"/>
			<point x="504" y="84" type="line"/>
			<point x="504" y="168" type="line"/>
			<point x="420" y="168" type="line"/>
		</contour>
		<contour>
			<point x="420" y="168" type="line"/>
			<point x="504" y="168" type="line"/>
			<point x="504" y="252" type="line"/>
			<point x="420" y="252" type="line"/>
		</contour>
		<contour>
			<point x="420" y="252" type="line"/>
			<point x="504" y="252" type="line"/>
			<point x="504" y="336" type="line"/>
			<point x="420" y="336" type="line"/>
		</contour>
		<contour>
			<point x="420" y="336" type="line"/>
			<point x="504" y="336" type="line"/>
			<point x="504" y="420" type="line"/>
			<point x="420" y="420" type="line"/>
		</contour>
		<contour>
			<point x="336" y="504" type="line"/>
			<point x="420" y="504" type="line"/>
			<point x="420" y="588" type="line"/>
			<point x="336" y="588" type="line"/>
		</contour>
		<contour>
			<point x="336" y="588" type="line"/>
			<point x="420" y="588" type="line"/>
			<point x="420" y="672" type="line"/>
			<point x="336" y="672" type="line"/>
		</contour>
		<contour>
			<point x="336" y="672" type="line"/>
			<point x="420" y="672" type="line"/>
			<point x="420" y="756" type="line"/>
			<point x="336" y="756" type="line"/>
		</contour>
		<contour>
			<point x="420" y="756" type="line"/>
			<point x="504" y="756" type="line"/>
			<point x="504" y="840" type="line"/>
			<point x="420" y="840" type="line"/>
		</contour>
		<contour>
			<point x="504" y="756" type="line"/>
			<point x="588" y="756" type="line"/>
			<point x="588" y="840" type="line"/>
			<point x="504" y="840" type="line"/>
		</contour>
		<contour>
			<point x="756" y="-168" type="line"/>
			<point x="840" y="-168" type="line"/>
			<point x="840" y="-84" type="line"/>
			<point x="756" y="-84" type="line"/>
		</contour>
		<contour>
			<point x="588" y="756" type="line"/>
			<point x="672" y="756" type="line"/>
			<point x="672" y="840" type="line"/>
			<point x="588" y="840" type="line"/>
		</contour>
		<contour>
			<point x="672" y="672" type="line"/>
			<point x="756" y="672" type="line"/>
			<point x="756" y="756" type="line"/>
			<point x="672" y="756" type="line"/>
		</contour>
		<contour>
			<point x="756" y="504" type="line"/>
			<point x="840" y="504" type="line"/>
			<point x="840" y="588" type="line"/>
			<point x="756" y="588" type="line"/>
		</contour>
		<contour>
			<point x="756" y="420" type="line"/>
			<point x="840" y="420" type="line"/>
			<point x="840" y="504" type="line"/>
			<point x="756" y="504" type="line"/>
		</contour>
		<contour>
			<point x="672" y="168" type="line"/>
			<point x="756" y="168" type="line"/>
			<point x="756" y="252" type="line"/>
			<point x="672" y="252" type="line"/>
		</contour>
		<contour>
			<point x="672" y="84" type="line"/>
			<point x="756" y="84" type="line"/>
			<point x="756" y="168" type="line"/>
			<point x="672" y="168" type="line"/>
		</contour>
		<contour>
			<point x="672" y="0" type="line"/>
			<point x="756" y="0" type="line"/>
			<point x="756" y="84" type="line"/>
			<point x="672" y="84" type="line"/>
		</contour>
		<contour>
			<point x="672" y="-84" type="line"/>
			<point x="756" y="-84" type="line"/>
			<point x="756" y="0" type="line"/>
			<point x="672" y="0" type="line"/>
		</contour>
		<contour>
			<point x="840" y="-168" type="line"/>
			<point x="924" y="-168" type="line"/>
			<point x="924" y="-84" type="line"/>
			<point x="840" y="-84" type="line"/>
		</contour>
		<contour>
			<point x="924" y="0" type="line"/>
			<point x="1008" y="0" type="line"/>
			<point x="1008" y="84" type="line"/>
			<point x="924" y="84" type="line"/>
		</contour>
		<contour>
			<point x="924" y="-84" type="line"/>
			<point x="1008" y="-84" type="line"/>
			<point x="1008" y="0" type="line"/>
			<point x="924" y="0" type="line"/>
		</contour>
		<contour>
			<point x="672" y="588" type="line"/>
			<point x="756" y="588" type="line"/>
			<point x="756" y="672" type="line"/>
			<point x="672" y="672" type="line"/>
		</contour>
		<contour>
			<point x="756" y="336" type="line"/>
			<point x="840" y="336" type="line"/>
			<point x="840" y="420" type="line"/>
			<point x="756" y="420" type="line"/>
		</contour>
		<contour>
			<point x="672" y="252" type="line"/>
			<point x="756" y="252" type="line"/>
			<point x="756" y="336" type="line"/>
			<point x="672" y="336" type="line"/>
		</contour>
		<contour>
			<point x="336" y="252" type="line"/>
			<point x="420" y="252" type="line"/>
			<point x="420" y="336" type="line"/>
			<point x="336" y="336" type="line"/>
		</contour>
		<contour>
			<point x="252" y="336" type="line"/>
			<point x="336" y="336" type="line"/>
			<point x="336" y="420" type="line"/>
			<point x="252" y="420" type="line"/>
		</contour>
		<contour>
			<point x="420" y="420" type="line"/>
			<point x="504" y="420" type="line"/>
			<point x="504" y="504" type="line"/>
			<point x="420" y="504" type="line"/>
		</contour>
		<contour>
			<point x="168" y="336" type="line"/>
			<point x="252" y="336" type="line"/>
			<point x="252" y="420" type="line"/>
			<point x="168" y="420" type="line"/>
		</contour>
		<contour>
			<point x="84" y="252" type="line"/>
			<point x="168" y="252" type="line"/>
			<point x="168" y="336" type="line"/>
			<point x="84" y="336" type="line"/>
		</contour>
		<contour>
			<point x="0" y="168" type="line"/>
			<point x="84" y="168" type="line"/>
			<point x="84" y="252" type="line"/>
			<point x="0" y="252" type="line"/>
		</contour>
		<contour>
			<point x="0" y="84" type="line"/>
			<point x="84" y="84" type="line"/>
			<point x="84" y="168" type="line"/>
			<point x="0" y="168" type="line"/>
		</contour>
		<contour>
			<point x="84" y="0" type="line"/>
			<point x="168" y="0" type="line"/>
			<point x="168" y="84" type="line"/>
			<point x="84" y="84" type="line"/>
		</contour>
		<contour>
			<point x="168" y="-84" type="line"/>
			<point x="252" y="-84" type="line"/>
			<point x="252" y="0" type="line"/>
			<point x="168" y="0" type="line"/>
		</contour>
		<contour>
			<point x="252" y="-84" type="line"/>
			<point x="336" y="-84" type="line"/>
			<point x="336" y="0" type="line"/>
			<point x="252" y="0" type="line"/>
		</contour>
		<contour>
			<point x="336" y="0" type="line"/>
			<point x="420" y="0" type="line"/>
			<point x="420" y="84" type="line"/>
			<point x="336" y="84" type="line"/>
		</contour>
	</outline>
</glyph>
<glyph name="spade" format="1">
	<unicode hex="2660"/>
	<advance width="1000"/>
	<outline>
		<contour>
			<point x="226" y="-114" type="line"/>
			<point x="775" y="-114" type="line"/>
			<point x="775" y="-74" type="line"/>
			<point x="642" y="-56"/>
			<point x="550" y="8"/>
			<point x="520" y="248" type="curve"/>
			<point x="480" y="248" type="line"/>
			<point x="451" y="8"/>
			<point x="358" y="-56"/>
			<point x="226" y="-74" type="curve"/>
		</contour>
		<contour>
			<point x="466" y="216" type="curve"/>
			<point x="534" y="216" type="line"/>
			<point x="577" y="124"/>
			<point x="649" y="96"/>
			<point x="729" y="96" type="curve" smooth="yes"/>
			<point x="835" y="96"/>
			<point x="912" y="154"/>
			<point x="912" y="278" type="curve" smooth="yes"/>
			<point x="912" y="440"/>
			<point x="826" y="544"/>
			<point x="502" y="860" type="curve"/>
			<point x="498" y="860" type="line"/>
			<point x="174" y="544"/>
			<point x="88" y="440"/>
			<point x="88" y="278" type="curve" smooth="yes"/>
			<point x="88" y="154"/>
			<point x="167" y="96"/>
			<point x="271" y="96" type="curve" smooth="yes"/>
			<point x="351" y="96"/>
			<point x="423" y="124"/>
		</contour>
	</outline>
</glyph>
<glyph name="club" format="1">
	<unicode hex="2663"/>
	<advance width="1000"/>
	<outline>
		<contour>
			<point x="262" y="116" type="curve" smooth="yes"/>
			<point x="344" y="116"/>
			<point x="416" y="142"/>
			<point x="466" y="230" type="curve"/>
			<point x="534" y="230" type="line"/>
			<point x="584" y="142"/>
			<point x="656" y="116"/>
			<point x="738" y="116" type="curve" smooth="yes"/>
			<point x="838" y="116"/>
			<point x="922" y="202"/>
			<point x="922" y="324" type="curve" smooth="yes"/>
			<point x="922" y="439"/>
			<point x="842" y="500"/>
			<point x="736" y="500" type="curve" smooth="yes"/>
			<point x="698" y="500"/>
			<point x="658" y="500"/>
			<point x="610" y="474" type="curve"/>
			<point x="604" y="480" type="line"/>
			<point x="696" y="562"/>
			<point x="710" y="632"/>
			<point x="710" y="680" type="curve" smooth="yes"/>
			<point x="710" y="778"/>
			<point x="617" y="850"/>
			<point x="500" y="850" type="curve" smooth="yes"/>
			<point x="383" y="850"/>
			<point x="290" y="778"/>
			<point x="290" y="680" type="curve" smooth="yes"/>
			<point x="290" y="632"/>
			<point x="304" y="562"/>
			<point x="397" y="480" type="curve"/>
			<point x="390" y="474" type="line"/>
			<point x="342" y="500"/>
			<point x="302" y="500"/>
			<point x="264" y="500" type="curve" smooth="yes"/>
			<point x="158" y="500"/>
			<point x="78" y="439"/>
			<point x="78" y="324" type="curve" smooth="yes"/>
			<point x="78" y="202"/>
			<point x="162" y="116"/>
		</contour>
		<contour>
			<point x="374" y="-114" type="line"/>
			<point x="626" y="-114" type="line"/>
			<point x="634" y="-76" type="line"/>
			<point x="580" y="8"/>
			<point x="546" y="68"/>
			<point x="520" y="248" type="curve"/>
			<point x="480" y="248" type="line"/>
			<point x="454" y="68"/>
			<point x="420" y="8"/>
			<point x="366" y="-76" type="curve"/>
		</contour>
	</outline>
</glyph>
<glyph name="heart" format="1">
  <advance width="1000"/>
  <unicode hex="2665"/>
  <outline>
    <contour>
      <point x="502" y="-256" type="line"/>
      <point x="847" y="94"/>
      <point x="912" y="266"/>
      <point x="912" y="456" type="curve" smooth="yes"/>
      <point x="912" y="630"/>
      <point x="824" y="720"/>
      <point x="710" y="720" type="curve" smooth="yes"/>
      <point x="619" y="720"/>
      <point x="543" y="678"/>
      <point x="502" y="560" type="curve"/>
      <point x="498" y="560" type="line"/>
      <point x="457" y="678"/>
      <point x="386" y="720"/>
      <point x="290" y="720" type="curve" smooth="yes"/>
      <point x="176" y="720"/>
      <point x="88" y="630"/>
      <point x="88" y="456" type="curve" smooth="yes"/>
      <point x="88" y="266"/>
      <point x="153" y="94"/>
      <point x="498" y="-256" type="curve"/>
    </contour>
  </outline>
</glyph>
<glyph name="diamond" format="1">
	<unicode hex="2666"/>
	<advance width="1000"/>
	<outline>
		<contour>
			<point x="502" y="-130" type="line"/>
			<point x="917" y="364" type="line"/>
			<point x="917" y="370" type="line"/>
			<point x="502" y="860" type="line"/>
			<point x="498" y="860" type="line"/>
			<point x="83" y="370" type="line"/>
			<point x="83" y="364" type="line"/>
			<point x="498" y="-130" type="line"/>
		</contour>
	</outline>
</glyph>
<glyph name="warning" format="1">
	<unicode hex="26A0"/>
	<advance width="1000"/>
	<outline>
		<contour>
			<point x="469" y="336" type="line" smooth="yes"/>
			<point x="470" y="324"/>
			<point x="478" y="316"/>
			<point x="490" y="316" type="curve" smooth="yes"/>
			<point x="511" y="316" type="line" smooth="yes"/>
			<point x="523" y="316"/>
			<point x="531" y="324"/>
			<point x="532" y="336" type="curve" smooth="yes"/>
			<point x="546" y="537" type="line" smooth="yes"/>
			<point x="548" y="606" type="line" smooth="yes"/>
			<point x="548" y="618"/>
			<point x="541" y="626"/>
			<point x="529" y="626" type="curve" smooth="yes"/>
			<point x="472" y="626" type="line" smooth="yes"/>
			<point x="460" y="626"/>
			<point x="453" y="618"/>
			<point x="453" y="606" type="curve" smooth="yes"/>
			<point x="455" y="537" type="line" smooth="yes"/>
		</contour>
		<contour>
			<point x="500" y="112" type="curve" smooth="yes"/>
			<point x="540" y="112"/>
			<point x="572" y="144"/>
			<point x="572" y="187" type="curve" smooth="yes"/>
			<point x="572" y="230"/>
			<point x="540" y="262"/>
			<point x="500" y="262" type="curve" smooth="yes"/>
			<point x="460" y="262"/>
			<point x="429" y="230"/>
			<point x="429" y="187" type="curve" smooth="yes"/>
			<point x="429" y="144"/>
			<point x="460" y="112"/>
		</contour>
		<component base="trianglecornersrounded"/>
	</outline>
</glyph>
<glyph name="circlemedium" format="1">
	<unicode hex="26AB"/>
	<advance width="1000"/>
	<outline>
		<contour>
			<point x="500" y="-94" type="curve" smooth="yes"/>
			<point x="774" y="-94"/>
			<point x="972" y="106"/>
			<point x="972" y="380" type="curve" smooth="yes"/>
			<point x="972" y="654"/>
			<point x="774" y="854"/>
			<point x="500" y="854" type="curve" smooth="yes"/>
			<point x="226" y="854"/>
			<point x="28" y="654"/>
			<point x="28" y="380" type="curve" smooth="yes"/>
			<point x="28" y="106"/>
			<point x="226" y="-94"/>
		</contour>
	</outline>
</glyph>
<glyph name="envelope" format="1">
	<unicode hex="2709"/>
	<advance width="1000"/>
	<outline>
		<contour>
			<point x="924" y="78" type="line"/>
			<point x="76" y="78" type="line"/>
			<point x="76" y="682" type="line"/>
			<point x="924" y="682" type="line"/>
		</contour>
		<contour>
			<point x="962" y="22" type="line" smooth="yes"/>
			<point x="974" y="22"/>
			<point x="982" y="30"/>
			<point x="982" y="42" type="curve" smooth="yes"/>
			<point x="982" y="718" type="line" smooth="yes"/>
			<point x="982" y="730"/>
			<point x="974" y="738"/>
			<point x="962" y="738" type="curve" smooth="yes"/>
			<point x="38" y="738" type="line" smooth="yes"/>
			<point x="26" y="738"/>
			<point x="18" y="730"/>
			<point x="18" y="718" type="curve" smooth="yes"/>
			<point x="18" y="42" type="line" smooth="yes"/>
			<point x="18" y="30"/>
			<point x="26" y="22"/>
			<point x="38" y="22" type="curve" smooth="yes"/>
		</contour>
		<contour>
			<point x="500" y="270" type="curve" smooth="yes"/>
			<point x="552" y="270"/>
			<point x="590" y="294"/>
			<point x="622" y="324" type="curve" smooth="yes"/>
			<point x="968" y="652" type="line"/>
			<point x="930" y="688" type="line"/>
			<point x="594" y="370" type="line" smooth="yes"/>
			<point x="568" y="346"/>
			<point x="536" y="322"/>
			<point x="500" y="322" type="curve" smooth="yes"/>
			<point x="464" y="322"/>
			<point x="432" y="346"/>
			<point x="406" y="370" type="curve" smooth="yes"/>
			<point x="70" y="688" type="line"/>
			<point x="32" y="652" type="line"/>
			<point x="378" y="324" type="line" smooth="yes"/>
			<point x="410" y="294"/>
			<point x="448" y="270"/>
		</contour>
	</outline>
</glyph>
<glyph name="checkheavy" format="1">
	<unicode hex="2714"/>
	<advance width="1000"/>
	<outline>
		<contour>
			<point x="260" y="-118" type="curve"/>
			<point x="534" y="-87" type="line"/>
			<point x="644" y="322"/>
			<point x="820" y="557"/>
			<point x="994" y="722" type="curve"/>
			<point x="814" y="878" type="line"/>
			<point x="641" y="699"/>
			<point x="484" y="431"/>
			<point x="388" y="100" type="curve"/>
			<point x="380" y="100" type="line"/>
			<point x="330" y="222"/>
			<point x="273" y="349"/>
			<point x="194" y="472" type="curve"/>
			<point x="6" y="350" type="line"/>
			<point x="122" y="191"/>
			<point x="192" y="60"/>
		</contour>
	</outline>
</glyph>
<glyph name="asteriskeightspoke" format="1">
	<unicode hex="2733"/>
	<advance width="1000"/>
	<outline>
		<contour>
			<point x="148" y="-52" type="line" smooth="yes"/>
			<point x="157" y="-60"/>
			<point x="168" y="-60"/>
			<point x="176" y="-52" type="curve" smooth="yes"/>
			<point x="500" y="274" type="line"/>
			<point x="825" y="-52" type="line" smooth="yes"/>
			<point x="833" y="-60"/>
			<point x="844" y="-60"/>
			<point x="853" y="-52" type="curve" smooth="yes"/>
			<point x="933" y="27" type="line" smooth="yes"/>
			<point x="942" y="35"/>
			<point x="941" y="47"/>
			<point x="933" y="55" type="curve" smooth="yes"/>
			<point x="607" y="380" type="line"/>
			<point x="933" y="705" type="line" smooth="yes"/>
			<point x="941" y="713"/>
			<point x="942" y="725"/>
			<point x="933" y="733" type="curve" smooth="yes"/>
			<point x="853" y="812" type="line" smooth="yes"/>
			<point x="844" y="820"/>
			<point x="833" y="820"/>
			<point x="825" y="812" type="curve" smooth="yes"/>
			<point x="500" y="486" type="line"/>
			<point x="176" y="812" type="line" smooth="yes"/>
			<point x="168" y="820"/>
			<point x="157" y="820"/>
			<point x="148" y="812" type="curve" smooth="yes"/>
			<point x="68" y="733" type="line" smooth="yes"/>
			<point x="59" y="725"/>
			<point x="60" y="713"/>
			<point x="68" y="705" type="curve" smooth="yes"/>
			<point x="394" y="380" type="line"/>
			<point x="68" y="55" type="line" smooth="yes"/>
			<point x="60" y="47"/>
			<point x="59" y="35"/>
			<point x="68" y="27" type="curve" smooth="yes"/>
		</contour>
		<contour>
			<point x="557" y="-75" type="line" smooth="yes"/>
			<point x="569" y="-75"/>
			<point x="577" y="-67"/>
			<point x="577" y="-55" type="curve" smooth="yes"/>
			<point x="575" y="304" type="line"/>
			<point x="955" y="304" type="line" smooth="yes"/>
			<point x="966" y="304"/>
			<point x="974" y="311"/>
			<point x="974" y="323" type="curve" smooth="yes"/>
			<point x="974" y="436" type="line" smooth="yes"/>
			<point x="974" y="448"/>
			<point x="966" y="456"/>
			<point x="954" y="456" type="curve" smooth="yes"/>
			<point x="576" y="455" type="line"/>
			<point x="577" y="815" type="line" smooth="yes"/>
			<point x="577" y="827"/>
			<point x="569" y="835"/>
			<point x="557" y="835" type="curve" smooth="yes"/>
			<point x="444" y="834" type="line" smooth="yes"/>
			<point x="432" y="834"/>
			<point x="425" y="826"/>
			<point x="425" y="815" type="curve" smooth="yes"/>
			<point x="425" y="454" type="line"/>
			<point x="46" y="456" type="line" smooth="yes"/>
			<point x="34" y="456"/>
			<point x="26" y="448"/>
			<point x="26" y="436" type="curve" smooth="yes"/>
			<point x="26" y="323" type="line" smooth="yes"/>
			<point x="26" y="311"/>
			<point x="35" y="304"/>
			<point x="46" y="304" type="curve" smooth="yes"/>
			<point x="425" y="304" type="line"/>
			<point x="425" y="-56" type="line" smooth="yes"/>
			<point x="425" y="-67"/>
			<point x="432" y="-76"/>
			<point x="444" y="-76" type="curve" smooth="yes"/>
		</contour>
	</outline>
</glyph>
<glyph name="questionblack" format="1">
	<unicode hex="2753"/>
	<advance width="1000"/>
	<outline>
		<contour>
			<point x="392" y="265" type="curve" smooth="yes"/>
			<point x="392" y="253"/>
			<point x="402" y="245"/>
			<point x="414" y="245" type="curve" smooth="yes"/>
			<point x="561" y="245" type="line" smooth="yes"/>
			<point x="572" y="245"/>
			<point x="580" y="254"/>
			<point x="580" y="265" type="curve" smooth="yes"/>
			<point x="580" y="384"/>
			<point x="818" y="416"/>
			<point x="818" y="589" type="curve" smooth="yes"/>
			<point x="818" y="760"/>
			<point x="680" y="838"/>
			<point x="504" y="838" type="curve" smooth="yes"/>
			<point x="377" y="838"/>
			<point x="264" y="778"/>
			<point x="203" y="703" type="curve" smooth="yes"/>
			<point x="195" y="693"/>
			<point x="196" y="682"/>
			<point x="205" y="673" type="curve" smooth="yes"/>
			<point x="292" y="593" type="line" smooth="yes"/>
			<point x="301" y="585"/>
			<point x="313" y="585"/>
			<point x="320" y="594" type="curve" smooth="yes"/>
			<point x="354" y="635"/>
			<point x="410" y="665"/>
			<point x="479" y="665" type="curve" smooth="yes"/>
			<point x="557" y="665"/>
			<point x="612" y="635"/>
			<point x="612" y="569" type="curve" smooth="yes"/>
			<point x="612" y="470"/>
			<point x="392" y="438"/>
		</contour>
		<contour>
			<point x="346" y="45" type="curve" smooth="yes"/>
			<point x="346" y="-32"/>
			<point x="404" y="-88"/>
			<point x="487" y="-88" type="curve" smooth="yes"/>
			<point x="570" y="-88"/>
			<point x="629" y="-32"/>
			<point x="629" y="45" type="curve" smooth="yes"/>
			<point x="629" y="122"/>
			<point x="570" y="176"/>
			<point x="487" y="176" type="curve" smooth="yes"/>
			<point x="404" y="176"/>
			<point x="346" y="122"/>
		</contour>
	</outline>
</glyph>
<glyph name="exclamwhite" format="1">
	<unicode hex="2755"/>
	<advance width="1000"/>
	<outline>
		<contour>
			<point x="407" y="264" type="curve" smooth="yes"/>
			<point x="407" y="264" type="line"/>
			<point x="360" y="624" type="line"/>
			<point x="360" y="624" type="line"/>
			<point x="354" y="804" type="line" smooth="yes"/>
			<point x="354" y="826"/>
			<point x="367" y="840"/>
			<point x="389" y="840" type="curve" smooth="yes"/>
			<point x="612" y="840" type="line" smooth="yes"/>
			<point x="634" y="840"/>
			<point x="647" y="826"/>
			<point x="647" y="803" type="curve" smooth="yes"/>
			<point x="641" y="624" type="line"/>
			<point x="641" y="623" type="line"/>
			<point x="595" y="264" type="line" smooth="yes"/>
			<point x="591" y="242"/>
			<point x="578" y="230"/>
			<point x="556" y="230" type="curve" smooth="yes"/>
			<point x="446" y="230" type="line" smooth="yes"/>
			<point x="424" y="230"/>
			<point x="411" y="242"/>
		</contour>
		<contour>
			<point x="500" y="-104" type="curve" smooth="yes"/>
			<point x="408" y="-104"/>
			<point x="342" y="-42"/>
			<point x="342" y="44" type="curve" smooth="yes"/>
			<point x="342" y="126"/>
			<point x="408" y="192"/>
			<point x="500" y="192" type="curve" smooth="yes"/>
			<point x="592" y="192"/>
			<point x="658" y="126"/>
			<point x="658" y="44" type="curve" smooth="yes"/>
			<point x="658" y="-42"/>
			<point x="592" y="-104"/>
		</contour>
		<contour>
			<point x="439" y="268" type="line"/>
			<point x="439" y="264"/>
			<point x="442" y="262"/>
			<point x="446" y="262" type="curve" smooth="yes"/>
			<point x="556" y="262" type="line" smooth="yes"/>
			<point x="560" y="262"/>
			<point x="563" y="264"/>
			<point x="563" y="268" type="curve" smooth="yes"/>
			<point x="609" y="627" type="line"/>
			<point x="609" y="626" type="line"/>
			<point x="615" y="805" type="line" smooth="yes"/>
			<point x="615" y="806"/>
			<point x="614" y="808"/>
			<point x="612" y="808" type="curve" smooth="yes"/>
			<point x="389" y="808" type="line" smooth="yes"/>
			<point x="387" y="808"/>
			<point x="386" y="806"/>
			<point x="386" y="804" type="curve" smooth="yes"/>
			<point x="392" y="626" type="line"/>
			<point x="392" y="627" type="line"/>
			<point x="439" y="268" type="line"/>
		</contour>
		<contour>
			<point x="500" y="-72" type="curve" smooth="yes"/>
			<point x="572" y="-72"/>
			<point x="626" y="-24"/>
			<point x="626" y="44" type="curve" smooth="yes"/>
			<point x="626" y="110"/>
			<point x="572" y="160"/>
			<point x="500" y="160" type="curve" smooth="yes"/>
			<point x="428" y="160"/>
			<point x="374" y="110"/>
			<point x="374" y="44" type="curve" smooth="yes"/>
			<point x="374" y="-24"/>
			<point x="428" y="-72"/>
		</contour>
	</outline>
</glyph>
<glyph name="arrowrightblack" format="1">
	<unicode hex="27A1"/>
	<advance width="1000"/>
	<outline>
		<contour>
			<point x="509" y="-16" type="line"/>
			<point x="784" y="250" type="line"/>
			<point x="784" y="254" type="line"/>
			<point x="509" y="520" type="line"/>
			<point x="453" y="457" type="line"/>
			<point x="627" y="298" type="line"/>
			<point x="230" y="298" type="line"/>
			<point x="230" y="206" type="line"/>
			<point x="627" y="206" type="line"/>
			<point x="453" y="47" type="line"/>
		</contour>
	</outline>
</glyph>
<glyph name="arrowleftblack" format="1">
	<unicode hex="2B05"/>
	<advance width="1000"/>
	<outline>
		<contour>
			<point x="490" y="-16" type="line"/>
			<point x="546" y="47" type="line"/>
			<point x="371" y="206" type="line"/>
			<point x="769" y="206" type="line"/>
			<point x="769" y="298" type="line"/>
			<point x="371" y="298" type="line"/>
			<point x="546" y="457" type="line"/>
			<point x="490" y="520" type="line"/>
			<point x="215" y="254" type="line"/>
			<point x="215" y="250" type="line"/>
		</contour>
	</outline>
</glyph>
<glyph name="arrowupblack" format="1">
	<unicode hex="2B06"/>
	<advance width="1000"/>
	<outline>
		<contour>
			<point x="453" y="-25" type="line"/>
			<point x="546" y="-25" type="line"/>
			<point x="546" y="372" type="line"/>
			<point x="705" y="197" type="line"/>
			<point x="768" y="253" type="line"/>
			<point x="502" y="528" type="line"/>
			<point x="498" y="528" type="line"/>
			<point x="231" y="253" type="line"/>
			<point x="295" y="197" type="line"/>
			<point x="453" y="372" type="line"/>
		</contour>
	</outline>
</glyph>
<glyph name="arrowdownblack" format="1">
	<unicode hex="2B07"/>
	<advance width="1000"/>
	<outline>
		<contour>
			<point x="498" y="-25" type="line"/>
			<point x="502" y="-25" type="line"/>
			<point x="768" y="250" type="line"/>
			<point x="705" y="306" type="line"/>
			<point x="546" y="131" type="line"/>
			<point x="546" y="528" type="line"/>
			<point x="453" y="528" type="line"/>
			<point x="453" y="131" type="line"/>
			<point x="295" y="306" type="line"/>
			<point x="231" y="250" type="line"/>
		</contour>
	</outline>
</glyph>
<glyph name="squarelargewhite" format="1">
	<unicode hex="2B1C"/>
	<advance width="1000"/>
	<outline>
		<contour>
			<point x="104" y="-20" type="line"/>
			<point x="104" y="780" type="line"/>
			<point x="896" y="780" type="line"/>
			<point x="896" y="-20" type="line"/>
		</contour>
		<contour>
			<point x="50" y="-50" type="line" smooth="yes"/>
			<point x="50" y="-62"/>
			<point x="58" y="-70"/>
			<point x="70" y="-70" type="curve" smooth="yes"/>
			<point x="930" y="-70" type="line" smooth="yes"/>
			<point x="942" y="-70"/>
			<point x="950" y="-62"/>
			<point x="950" y="-50" type="curve" smooth="yes"/>
			<point x="950" y="810" type="line" smooth="yes"/>
			<point x="950" y="822"/>
			<point x="942" y="830"/>
			<point x="930" y="830" type="curve" smooth="yes"/>
			<point x="70" y="830" type="line" smooth="yes"/>
			<point x="58" y="830"/>
			<point x="50" y="822"/>
			<point x="50" y="810" type="curve" smooth="yes"/>
		</contour>
	</outline>
</glyph>
<glyph name="starmediumwhite" format="1">
	<unicode hex="2B50"/>
	<advance width="1000"/>
	<outline>
		<contour>
			<point x="500" y="102" type="line"/>
			<point x="782" y="-63" type="line" smooth="yes"/>
			<point x="789" y="-67"/>
			<point x="797" y="-60"/>
			<point x="796" y="-53" type="curve" smooth="yes"/>
			<point x="721" y="265" type="line"/>
			<point x="962" y="476" type="line" smooth="yes"/>
			<point x="968" y="481"/>
			<point x="964" y="492"/>
			<point x="957" y="493" type="curve" smooth="yes"/>
			<point x="638" y="525" type="line"/>
			<point x="509" y="821" type="line" smooth="yes"/>
			<point x="506" y="828"/>
			<point x="494" y="828"/>
			<point x="491" y="821" type="curve" smooth="yes"/>
			<point x="362" y="525" type="line"/>
			<point x="43" y="493" type="line" smooth="yes"/>
			<point x="36" y="492"/>
			<point x="32" y="481"/>
			<point x="38" y="476" type="curve" smooth="yes"/>
			<point x="280" y="265" type="line"/>
			<point x="204" y="-53" type="line" smooth="yes"/>
			<point x="203" y="-60"/>
			<point x="211" y="-67"/>
			<point x="218" y="-63" type="curve" smooth="yes"/>
		</contour>
		<contour>
			<point x="500" y="153" type="line"/>
			<point x="260" y="14" type="line"/>
			<point x="324" y="283" type="line"/>
			<point x="117" y="464" type="line"/>
			<point x="389" y="489" type="line"/>
			<point x="500" y="744" type="line"/>
			<point x="611" y="489" type="line"/>
			<point x="883" y="464" type="line"/>
			<point x="677" y="283" type="line"/>
			<point x="740" y="14" type="line"/>
		</contour>
	</outline>
</glyph>
<glyph name="circlelargeheavy" format="1">
	<unicode hex="2B55"/>
	<advance width="1000"/>
	<outline>
		<contour>
			<point x="500" y="-114" type="curve" smooth="yes"/>
			<point x="774" y="-114"/>
			<point x="992" y="106"/>
			<point x="992" y="380" type="curve" smooth="yes"/>
			<point x="992" y="654"/>
			<point x="774" y="874"/>
			<point x="500" y="874" type="curve" smooth="yes"/>
			<point x="226" y="874"/>
			<point x="8" y="654"/>
			<point x="8" y="380" type="curve" smooth="yes"/>
			<point x="8" y="106"/>
			<point x="226" y="-114"/>
		</contour>
		<contour>
			<point x="500" y="18" type="curve" smooth="yes"/>
			<point x="312" y="18"/>
			<point x="148" y="156"/>
			<point x="148" y="380" type="curve" smooth="yes"/>
			<point x="148" y="604"/>
			<point x="312" y="742"/>
			<point x="500" y="742" type="curve" smooth="yes"/>
			<point x="688" y="742"/>
			<point x="852" y="604"/>
			<point x="852" y="380" type="curve" smooth="yes"/>
			<point x="852" y="156"/>
			<point x="688" y="18"/>
		</contour>
	</outline>
</glyph>
<glyph name="congratulationideocircle" format="1">
  <advance width="1000"/>
  <unicode hex="3297"/>
  <outline>
    <contour>
      <point x="500" y="-89" type="curve" smooth="yes"/>
      <point x="757" y="-89"/>
      <point x="969" y="119"/>
      <point x="969" y="380" type="curve" smooth="yes"/>
      <point x="969" y="639"/>
      <point x="759" y="849"/>
      <point x="500" y="849" type="curve" smooth="yes"/>
      <point x="241" y="849"/>
      <point x="31" y="639"/>
      <point x="31" y="380" type="curve" smooth="yes"/>
      <point x="31" y="121"/>
      <point x="241" y="-89"/>
    </contour>
    <contour>
      <point x="438" y="284" type="line" smooth="yes"/>
      <point x="432" y="276"/>
      <point x="421" y="277"/>
      <point x="415" y="285" type="curve" smooth="yes"/>
      <point x="402" y="303"/>
      <point x="384" y="323"/>
      <point x="371" y="338" type="curve"/>
      <point x="371" y="108" type="line" smooth="yes"/>
      <point x="371" y="96"/>
      <point x="363" y="88"/>
      <point x="351" y="88" type="curve" smooth="yes"/>
      <point x="316" y="88" type="line" smooth="yes"/>
      <point x="304" y="88"/>
      <point x="296" y="96"/>
      <point x="296" y="108" type="curve" smooth="yes"/>
      <point x="296" y="305" type="line"/>
      <point x="273" y="283"/>
      <point x="249" y="263"/>
      <point x="242" y="258" type="curve" smooth="yes"/>
      <point x="233" y="252"/>
      <point x="222" y="257"/>
      <point x="220" y="266" type="curve"/>
      <point x="209" y="289"/>
      <point x="198" y="311"/>
      <point x="204" y="304" type="curve"/>
      <point x="197" y="312"/>
      <point x="199" y="324"/>
      <point x="208" y="329" type="curve" smooth="yes"/>
      <point x="257" y="357"/>
      <point x="319" y="425"/>
      <point x="359" y="499" type="curve"/>
      <point x="235" y="499" type="line" smooth="yes"/>
      <point x="223" y="499"/>
      <point x="215" y="507"/>
      <point x="215" y="519" type="curve" smooth="yes"/>
      <point x="215" y="547" type="line" smooth="yes"/>
      <point x="215" y="559"/>
      <point x="223" y="567"/>
      <point x="235" y="567" type="curve" smooth="yes"/>
      <point x="296" y="567" type="line"/>
      <point x="296" y="665" type="line" smooth="yes"/>
      <point x="296" y="677"/>
      <point x="304" y="685"/>
      <point x="316" y="685" type="curve" smooth="yes"/>
      <point x="351" y="685" type="line" smooth="yes"/>
      <point x="363" y="685"/>
      <point x="371" y="677"/>
      <point x="371" y="665" type="curve" smooth="yes"/>
      <point x="371" y="567" type="line"/>
      <point x="397" y="567" type="line"/>
      <point x="391" y="565" type="line"/>
      <point x="405" y="570"/>
      <point x="415" y="569"/>
      <point x="427" y="560" type="curve" smooth="yes"/>
      <point x="435" y="554" type="line" smooth="yes"/>
      <point x="445" y="546"/>
      <point x="450" y="537"/>
      <point x="445" y="524" type="curve" smooth="yes"/>
      <point x="435" y="498"/>
      <point x="413" y="454"/>
      <point x="386" y="412" type="curve"/>
      <point x="403" y="398"/>
      <point x="433" y="372"/>
      <point x="458" y="346" type="curve" smooth="yes"/>
      <point x="467" y="336"/>
      <point x="467" y="325"/>
      <point x="460" y="315" type="curve" smooth="yes"/>
    </contour>
    <contour>
      <point x="734" y="155" type="line" smooth="yes"/>
      <point x="744" y="155"/>
      <point x="744" y="169"/>
      <point x="748" y="222" type="curve" smooth="yes"/>
      <point x="749" y="229"/>
      <point x="759" y="234"/>
      <point x="764" y="229" type="curve"/>
      <point x="781" y="222"/>
      <point x="800" y="216"/>
      <point x="792" y="219" type="curve"/>
      <point x="805" y="214"/>
      <point x="811" y="205"/>
      <point x="810" y="192" type="curve" smooth="yes"/>
      <point x="805" y="119"/>
      <point x="789" y="92"/>
      <point x="743" y="92" type="curve" smooth="yes"/>
      <point x="699" y="92" type="line" smooth="yes"/>
      <point x="642" y="92"/>
      <point x="629" y="114"/>
      <point x="629" y="179" type="curve" smooth="yes"/>
      <point x="629" y="380" type="line"/>
      <point x="592" y="380" type="line"/>
      <point x="586" y="246"/>
      <point x="565" y="146"/>
      <point x="472" y="95" type="curve" smooth="yes"/>
      <point x="461" y="89"/>
      <point x="450" y="92"/>
      <point x="445" y="103" type="curve"/>
      <point x="432" y="120"/>
      <point x="416" y="138"/>
      <point x="421" y="134" type="curve"/>
      <point x="414" y="140"/>
      <point x="415" y="152"/>
      <point x="424" y="156" type="curve" smooth="yes"/>
      <point x="501" y="192"/>
      <point x="515" y="272"/>
      <point x="519" y="380" type="curve"/>
      <point x="483" y="380" type="line" smooth="yes"/>
      <point x="471" y="380"/>
      <point x="463" y="388"/>
      <point x="463" y="400" type="curve" smooth="yes"/>
      <point x="463" y="626" type="line" smooth="yes"/>
      <point x="463" y="638"/>
      <point x="471" y="646"/>
      <point x="483" y="646" type="curve" smooth="yes"/>
      <point x="755" y="646" type="line" smooth="yes"/>
      <point x="767" y="646"/>
      <point x="775" y="638"/>
      <point x="775" y="626" type="curve" smooth="yes"/>
      <point x="775" y="400" type="line" smooth="yes"/>
      <point x="775" y="388"/>
      <point x="767" y="380"/>
      <point x="755" y="380" type="curve" smooth="yes"/>
      <point x="703" y="380" type="line"/>
      <point x="703" y="179" type="line" smooth="yes"/>
      <point x="703" y="158"/>
      <point x="704" y="155"/>
      <point x="714" y="155" type="curve" smooth="yes"/>
    </contour>
    <contour>
      <point x="535" y="448" type="line"/>
      <point x="699" y="448" type="line"/>
      <point x="699" y="579" type="line"/>
      <point x="535" y="579" type="line"/>
    </contour>
  </outline>
</glyph>
<glyph name="secretideocircle" format="1">
	<unicode hex="3299"/>
	<advance width="1000"/>
	<outline>
		<contour>
			<point x="500" y="-89" type="curve" smooth="yes"/>
			<point x="757" y="-89"/>
			<point x="969" y="119"/>
			<point x="969" y="380" type="curve" smooth="yes"/>
			<point x="969" y="639"/>
			<point x="759" y="849"/>
			<point x="500" y="849" type="curve" smooth="yes"/>
			<point x="241" y="849"/>
			<point x="31" y="639"/>
			<point x="31" y="380" type="curve" smooth="yes"/>
			<point x="31" y="121"/>
			<point x="241" y="-89"/>
		</contour>
		<contour>
			<point x="411" y="309" type="line" smooth="yes"/>
			<point x="405" y="302"/>
			<point x="393" y="303"/>
			<point x="389" y="311" type="curve"/>
			<point x="391" y="307"/>
			<point x="381" y="326"/>
			<point x="368" y="347" type="curve"/>
			<point x="368" y="109" type="line" smooth="yes"/>
			<point x="368" y="97"/>
			<point x="360" y="89"/>
			<point x="348" y="89" type="curve" smooth="yes"/>
			<point x="315" y="89" type="line" smooth="yes"/>
			<point x="303" y="89"/>
			<point x="295" y="97"/>
			<point x="295" y="109" type="curve" smooth="yes"/>
			<point x="295" y="319" type="line"/>
			<point x="276" y="271"/>
			<point x="254" y="224"/>
			<point x="242" y="207" type="curve" smooth="yes"/>
			<point x="238" y="201"/>
			<point x="228" y="203"/>
			<point x="225" y="210" type="curve" smooth="yes"/>
			<point x="221" y="221"/>
			<point x="213" y="236"/>
			<point x="206" y="248" type="curve" smooth="yes"/>
			<point x="198" y="260"/>
			<point x="199" y="270"/>
			<point x="207" y="281" type="curve" smooth="yes"/>
			<point x="227" y="308"/>
			<point x="261" y="374"/>
			<point x="282" y="436" type="curve"/>
			<point x="226" y="436" type="line" smooth="yes"/>
			<point x="214" y="436"/>
			<point x="206" y="444"/>
			<point x="206" y="456" type="curve" smooth="yes"/>
			<point x="206" y="486" type="line" smooth="yes"/>
			<point x="206" y="498"/>
			<point x="214" y="506"/>
			<point x="226" y="506" type="curve" smooth="yes"/>
			<point x="295" y="506" type="line"/>
			<point x="295" y="582" type="line"/>
			<point x="270" y="577"/>
			<point x="245" y="573"/>
			<point x="241" y="572" type="curve" smooth="yes"/>
			<point x="229" y="570"/>
			<point x="220" y="578"/>
			<point x="217" y="590" type="curve" smooth="yes"/>
			<point x="216" y="593"/>
			<point x="213" y="601"/>
			<point x="210" y="609" type="curve" smooth="yes"/>
			<point x="206" y="618"/>
			<point x="211" y="629"/>
			<point x="221" y="630" type="curve" smooth="yes"/>
			<point x="269" y="635"/>
			<point x="345" y="657"/>
			<point x="375" y="670" type="curve" smooth="yes"/>
			<point x="387" y="675"/>
			<point x="397" y="673"/>
			<point x="406" y="663" type="curve" smooth="yes"/>
			<point x="431" y="635" type="line" smooth="yes"/>
			<point x="437" y="628"/>
			<point x="434" y="617"/>
			<point x="425" y="613" type="curve" smooth="yes"/>
			<point x="421" y="611"/>
			<point x="395" y="604"/>
			<point x="368" y="597" type="curve"/>
			<point x="368" y="506" type="line"/>
			<point x="415" y="506" type="line" smooth="yes"/>
			<point x="427" y="506"/>
			<point x="435" y="498"/>
			<point x="435" y="486" type="curve" smooth="yes"/>
			<point x="435" y="456" type="line" smooth="yes"/>
			<point x="435" y="444"/>
			<point x="427" y="436"/>
			<point x="415" y="436" type="curve" smooth="yes"/>
			<point x="368" y="436" type="line"/>
			<point x="368" y="426" type="line"/>
			<point x="383" y="412"/>
			<point x="423" y="371"/>
			<point x="438" y="353" type="curve"/>
			<point x="445" y="387"/>
			<point x="449" y="424"/>
			<point x="450" y="440" type="curve" smooth="yes"/>
			<point x="451" y="451"/>
			<point x="460" y="459"/>
			<point x="471" y="457" type="curve" smooth="yes"/>
			<point x="493" y="453" type="line" smooth="yes"/>
			<point x="506" y="451"/>
			<point x="512" y="441"/>
			<point x="511" y="429" type="curve" smooth="yes"/>
			<point x="507" y="374"/>
			<point x="497" y="292"/>
			<point x="477" y="258" type="curve" smooth="yes"/>
			<point x="471" y="248"/>
			<point x="460" y="244"/>
			<point x="449" y="249" type="curve" smooth="yes"/>
			<point x="425" y="260" type="line" smooth="yes"/>
			<point x="415" y="264"/>
			<point x="412" y="276"/>
			<point x="418" y="285" type="curve"/>
			<point x="423" y="301"/>
			<point x="430" y="322"/>
			<point x="435" y="339" type="curve"/>
		</contour>
		<contour>
			<point x="670" y="163" type="line" smooth="yes"/>
			<point x="688" y="163"/>
			<point x="694" y="179"/>
			<point x="694" y="235" type="curve" smooth="yes"/>
			<point x="694" y="243"/>
			<point x="705" y="247"/>
			<point x="711" y="242" type="curve"/>
			<point x="729" y="235"/>
			<point x="749" y="227"/>
			<point x="743" y="229" type="curve"/>
			<point x="755" y="225"/>
			<point x="761" y="216"/>
			<point x="760" y="203" type="curve" smooth="yes"/>
			<point x="754" y="126"/>
			<point x="735" y="94"/>
			<point x="677" y="94" type="curve" smooth="yes"/>
			<point x="605" y="94" type="line" smooth="yes"/>
			<point x="550" y="94"/>
			<point x="528" y="111"/>
			<point x="523" y="163" type="curve"/>
			<point x="499" y="141"/>
			<point x="473" y="121"/>
			<point x="461" y="114" type="curve" smooth="yes"/>
			<point x="451" y="107"/>
			<point x="440" y="110"/>
			<point x="432" y="119" type="curve" smooth="yes"/>
			<point x="418" y="136"/>
			<point x="401" y="150"/>
			<point x="407" y="146" type="curve"/>
			<point x="400" y="151"/>
			<point x="400" y="163"/>
			<point x="408" y="168" type="curve" smooth="yes"/>
			<point x="441" y="188"/>
			<point x="484" y="223"/>
			<point x="522" y="265" type="curve"/>
			<point x="522" y="527" type="line" smooth="yes"/>
			<point x="522" y="539"/>
			<point x="530" y="547"/>
			<point x="542" y="547" type="curve" smooth="yes"/>
			<point x="576" y="547" type="line" smooth="yes"/>
			<point x="588" y="547"/>
			<point x="596" y="539"/>
			<point x="596" y="527" type="curve" smooth="yes"/>
			<point x="596" y="363" type="line"/>
			<point x="647" y="447"/>
			<point x="685" y="544"/>
			<point x="700" y="631" type="curve" smooth="yes"/>
			<point x="702" y="643"/>
			<point x="712" y="649"/>
			<point x="723" y="646" type="curve" smooth="yes"/>
			<point x="756" y="638" type="line" smooth="yes"/>
			<point x="767" y="635"/>
			<point x="773" y="626"/>
			<point x="771" y="614" type="curve" smooth="yes"/>
			<point x="763" y="572"/>
			<point x="745" y="515"/>
			<point x="724" y="460" type="curve"/>
			<point x="751" y="467" type="line"/>
			<point x="780" y="409"/>
			<point x="800" y="331"/>
			<point x="804" y="299" type="curve" smooth="yes"/>
			<point x="806" y="286"/>
			<point x="800" y="277"/>
			<point x="788" y="274" type="curve" smooth="yes"/>
			<point x="755" y="265" type="line" smooth="yes"/>
			<point x="745" y="262"/>
			<point x="735" y="270"/>
			<point x="735" y="280" type="curve" smooth="yes"/>
			<point x="735" y="300"/>
			<point x="721" y="358"/>
			<point x="703" y="409" type="curve"/>
			<point x="675" y="345"/>
			<point x="639" y="287"/>
			<point x="596" y="236" type="curve"/>
			<point x="596" y="195" type="line" smooth="yes"/>
			<point x="596" y="167"/>
			<point x="599" y="163"/>
			<point x="618" y="163" type="curve" smooth="yes"/>
		</contour>
		<contour>
			<point x="641" y="549" type="line" smooth="yes"/>
			<point x="633" y="541"/>
			<point x="622" y="542"/>
			<point x="615" y="551" type="curve" smooth="yes"/>
			<point x="604" y="566"/>
			<point x="551" y="609"/>
			<point x="521" y="623" type="curve" smooth="yes"/>
			<point x="512" y="627"/>
			<point x="510" y="639"/>
			<point x="517" y="646" type="curve" smooth="yes"/>
			<point x="537" y="667" type="line" smooth="yes"/>
			<point x="546" y="676"/>
			<point x="557" y="678"/>
			<point x="569" y="672" type="curve" smooth="yes"/>
			<point x="597" y="657"/>
			<point x="653" y="619"/>
			<point x="666" y="603" type="curve" smooth="yes"/>
			<point x="674" y="594"/>
			<point x="674" y="583"/>
			<point x="665" y="574" type="curve" smooth="yes"/>
		</contour>
	</outline>
</glyph>
<glyph name="Asquare" format="1">
	<unicode hex="1F130"/>
	<advance width="500"/>
	<outline>
		<contour>
			<point x="59" y="124" type="line"/>
			<point x="164" y="124" type="line"/>
			<point x="216" y="395" type="line" smooth="yes"/>
			<point x="227" y="450"/>
			<point x="236" y="508"/>
			<point x="246" y="563" type="curve"/>
			<point x="249" y="563" type="line"/>
			<point x="260" y="509"/>
			<point x="270" y="451"/>
			<point x="280" y="395" type="curve" smooth="yes"/>
			<point x="332" y="124" type="line"/>
			<point x="441" y="124" type="line"/>
			<point x="311" y="646" type="line"/>
			<point x="188" y="646" type="line"/>
		</contour>
		<contour>
			<point x="148" y="256" type="line"/>
			<point x="352" y="256" type="line"/>
			<point x="352" y="335" type="line"/>
			<point x="148" y="335" type="line"/>
		</contour>
	</outline>
</glyph>
<glyph name="C.a" format="1">
  <advance width="500"/>
  <unicode hex="1F132"/>
  <outline>
    <contour>
      <point x="281" y="112" type="curve" smooth="yes"/>
      <point x="335" y="112"/>
      <point x="384" y="138"/>
      <point x="420" y="189" type="curve"/>
      <point x="363" y="253" type="line"/>
      <point x="344" y="222"/>
      <point x="320" y="203"/>
      <point x="287" y="203" type="curve" smooth="yes"/>
      <point x="227" y="203"/>
      <point x="190" y="270"/>
      <point x="190" y="387" type="curve" smooth="yes"/>
      <point x="190" y="500"/>
      <point x="233" y="569"/>
      <point x="290" y="569" type="curve" smooth="yes"/>
      <point x="317" y="569"/>
      <point x="337" y="552"/>
      <point x="358" y="525" type="curve"/>
      <point x="414" y="591" type="line"/>
      <point x="386" y="628"/>
      <point x="340" y="658"/>
      <point x="288" y="658" type="curve" smooth="yes"/>
      <point x="178" y="658"/>
      <point x="84" y="556"/>
      <point x="84" y="383" type="curve" smooth="yes"/>
      <point x="84" y="206"/>
      <point x="174" y="112"/>
    </contour>
  </outline>
</glyph>
<glyph name="D.a" format="1">
	<unicode hex="1F133"/>
	<advance width="500"/>
	<outline>
		<contour>
			<point x="98" y="124" type="line"/>
			<point x="226" y="124" type="line" smooth="yes"/>
			<point x="346" y="124"/>
			<point x="436" y="209"/>
			<point x="436" y="387" type="curve" smooth="yes"/>
			<point x="436" y="566"/>
			<point x="346" y="646"/>
			<point x="220" y="646" type="curve" smooth="yes"/>
			<point x="98" y="646" type="line"/>
		</contour>
		<contour>
			<point x="203" y="209" type="line"/>
			<point x="203" y="561" type="line"/>
			<point x="225" y="561" type="line" smooth="yes"/>
			<point x="292" y="561"/>
			<point x="330" y="503"/>
			<point x="330" y="387" type="curve" smooth="yes"/>
			<point x="330" y="267"/>
			<point x="292" y="209"/>
			<point x="225" y="209" type="curve" smooth="yes"/>
		</contour>
	</outline>
</glyph>
<glyph name="E.a" format="1">
  <advance width="500"/>
  <unicode hex="1F134"/>
  <outline>
    <contour>
      <point x="131" y="124" type="line"/>
      <point x="405" y="124" type="line"/>
      <point x="405" y="210" type="line"/>
      <point x="235" y="210" type="line"/>
      <point x="235" y="354" type="line"/>
      <point x="373" y="354" type="line"/>
      <point x="373" y="435" type="line"/>
      <point x="235" y="435" type="line"/>
      <point x="235" y="562" type="line"/>
      <point x="397" y="562" type="line"/>
      <point x="397" y="646" type="line"/>
      <point x="131" y="646" type="line"/>
    </contour>
  </outline>
</glyph>
<glyph name="Esquare" format="1">
	<unicode hex="1F134"/>
	<advance width="500"/>
	<outline>
		<contour>
			<point x="131" y="124" type="line"/>
			<point x="405" y="124" type="line"/>
			<point x="405" y="210" type="line"/>
			<point x="235" y="210" type="line"/>
			<point x="235" y="354" type="line"/>
			<point x="373" y="354" type="line"/>
			<point x="373" y="435" type="line"/>
			<point x="235" y="435" type="line"/>
			<point x="235" y="562" type="line"/>
			<point x="397" y="562" type="line"/>
			<point x="397" y="646" type="line"/>
			<point x="131" y="646" type="line"/>
		</contour>
	</outline>
</glyph>
<glyph name="F.a" format="1">
  <advance width="500"/>
  <unicode hex="1F135"/>
  <outline>
    <contour>
      <point x="131" y="124" type="line"/>
      <point x="235" y="124" type="line"/>
      <point x="235" y="335" type="line"/>
      <point x="375" y="335" type="line"/>
      <point x="375" y="418" type="line"/>
      <point x="235" y="418" type="line"/>
      <point x="235" y="557" type="line"/>
      <point x="398" y="557" type="line"/>
      <point x="398" y="646" type="line"/>
      <point x="131" y="646" type="line"/>
    </contour>
  </outline>
</glyph>
<glyph name="G.a" format="1">
  <advance width="500"/>
  <unicode hex="1F136"/>
  <outline>
    <contour>
      <point x="269" y="112" type="curve" smooth="yes"/>
      <point x="323" y="112"/>
      <point x="375" y="132"/>
      <point x="402" y="163" type="curve"/>
      <point x="402" y="410" type="line"/>
      <point x="254" y="410" type="line"/>
      <point x="254" y="333" type="line"/>
      <point x="310" y="333" type="line"/>
      <point x="310" y="213" type="line"/>
      <point x="303" y="204"/>
      <point x="291" y="201"/>
      <point x="277" y="201" type="curve" smooth="yes"/>
      <point x="219" y="201"/>
      <point x="192" y="271"/>
      <point x="192" y="383" type="curve" smooth="yes"/>
      <point x="192" y="501"/>
      <point x="225" y="569"/>
      <point x="273" y="569" type="curve" smooth="yes"/>
      <point x="302" y="569"/>
      <point x="320" y="558"/>
      <point x="337" y="536" type="curve"/>
      <point x="394" y="601" type="line"/>
      <point x="368" y="632"/>
      <point x="326" y="658"/>
      <point x="272" y="658" type="curve" smooth="yes"/>
      <point x="170" y="658"/>
      <point x="86" y="557"/>
      <point x="86" y="383" type="curve" smooth="yes"/>
      <point x="86" y="206"/>
      <point x="167" y="112"/>
    </contour>
  </outline>
</glyph>
<glyph name="Gsquare" format="1">
	<unicode hex="1F136"/>
	<advance width="500"/>
	<outline>
		<contour>
			<point x="269" y="112" type="curve" smooth="yes"/>
			<point x="327" y="112"/>
			<point x="381" y="138"/>
			<point x="412" y="173" type="curve"/>
			<point x="412" y="410" type="line"/>
			<point x="254" y="410" type="line"/>
			<point x="254" y="333" type="line"/>
			<point x="320" y="333" type="line"/>
			<point x="320" y="223" type="line"/>
			<point x="310" y="209"/>
			<point x="295" y="201"/>
			<point x="277" y="201" type="curve" smooth="yes"/>
			<point x="203" y="201"/>
			<point x="168" y="271"/>
			<point x="168" y="383" type="curve" smooth="yes"/>
			<point x="168" y="501"/>
			<point x="211" y="569"/>
			<point x="273" y="569" type="curve" smooth="yes"/>
			<point x="306" y="569"/>
			<point x="326" y="552"/>
			<point x="347" y="526" type="curve"/>
			<point x="404" y="591" type="line"/>
			<point x="375" y="626"/>
			<point x="330" y="658"/>
			<point x="272" y="658" type="curve" smooth="yes"/>
			<point x="157" y="658"/>
			<point x="62" y="557"/>
			<point x="62" y="383" type="curve" smooth="yes"/>
			<point x="62" y="206"/>
			<point x="154" y="112"/>
		</contour>
	</outline>
</glyph>
<glyph name="H.a" format="1">
  <advance width="500"/>
  <unicode hex="1F137"/>
  <outline>
    <contour>
      <point x="98" y="124" type="line"/>
      <point x="203" y="124" type="line"/>
      <point x="203" y="349" type="line"/>
      <point x="299" y="349" type="line"/>
      <point x="299" y="124" type="line"/>
      <point x="403" y="124" type="line"/>
      <point x="403" y="646" type="line"/>
      <point x="299" y="646" type="line"/>
      <point x="299" y="443" type="line"/>
      <point x="203" y="443" type="line"/>
      <point x="203" y="646" type="line"/>
      <point x="98" y="646" type="line"/>
    </contour>
  </outline>
</glyph>
<glyph name="Hsquare" format="1">
	<unicode hex="1F137"/>
	<advance width="500"/>
	<outline>
		<contour>
			<point x="78" y="124" type="line"/>
			<point x="183" y="124" type="line"/>
			<point x="183" y="349" type="line"/>
			<point x="319" y="349" type="line"/>
			<point x="319" y="124" type="line"/>
			<point x="423" y="124" type="line"/>
			<point x="423" y="646" type="line"/>
			<point x="319" y="646" type="line"/>
			<point x="319" y="443" type="line"/>
			<point x="183" y="443" type="line"/>
			<point x="183" y="646" type="line"/>
			<point x="78" y="646" type="line"/>
		</contour>
	</outline>
</glyph>
<glyph name="I.a" format="1">
  <advance width="500"/>
  <unicode hex="1F138"/>
  <outline>
    <contour>
      <point x="198" y="124" type="line"/>
      <point x="302" y="124" type="line"/>
      <point x="302" y="646" type="line"/>
      <point x="198" y="646" type="line"/>
    </contour>
  </outline>
</glyph>
<glyph name="J.a" format="1">
  <advance width="500"/>
  <unicode hex="1F139"/>
  <outline>
    <contour>
      <point x="225" y="112" type="curve" smooth="yes"/>
      <point x="320" y="112"/>
      <point x="365" y="194"/>
      <point x="365" y="292" type="curve" smooth="yes"/>
      <point x="365" y="646" type="line"/>
      <point x="262" y="646" type="line"/>
      <point x="262" y="300" type="line" smooth="yes"/>
      <point x="262" y="228"/>
      <point x="243" y="204"/>
      <point x="214" y="204" type="curve" smooth="yes"/>
      <point x="192" y="204"/>
      <point x="171" y="222"/>
      <point x="156" y="259" type="curve"/>
      <point x="86" y="206" type="line"/>
      <point x="116" y="145"/>
      <point x="160" y="112"/>
    </contour>
  </outline>
</glyph>
<glyph name="K.a" format="1">
  <advance width="500"/>
  <unicode hex="1F13A"/>
  <outline>
    <contour>
      <point x="92" y="124" type="line"/>
      <point x="196" y="124" type="line"/>
      <point x="196" y="283" type="line"/>
      <point x="241" y="365" type="line"/>
      <point x="338" y="124" type="line"/>
      <point x="449" y="124" type="line"/>
      <point x="301" y="440" type="line"/>
      <point x="427" y="646" type="line"/>
      <point x="315" y="646" type="line"/>
      <point x="198" y="421" type="line"/>
      <point x="196" y="421" type="line"/>
      <point x="196" y="646" type="line"/>
      <point x="92" y="646" type="line"/>
    </contour>
  </outline>
</glyph>
<glyph name="Ksquare" format="1">
	<unicode hex="1F13A"/>
	<advance width="500"/>
	<outline>
		<contour>
			<point x="92" y="124" type="line"/>
			<point x="196" y="124" type="line"/>
			<point x="196" y="283" type="line"/>
			<point x="241" y="365" type="line"/>
			<point x="338" y="124" type="line"/>
			<point x="449" y="124" type="line"/>
			<point x="301" y="440" type="line"/>
			<point x="427" y="646" type="line"/>
			<point x="315" y="646" type="line"/>
			<point x="198" y="421" type="line"/>
			<point x="196" y="421" type="line"/>
			<point x="196" y="646" type="line"/>
			<point x="92" y="646" type="line"/>
		</contour>
	</outline>
</glyph>
<glyph name="L.a" format="1">
  <advance width="500"/>
  <unicode hex="1F13B"/>
  <outline>
    <contour>
      <point x="132" y="124" type="line"/>
      <point x="397" y="124" type="line"/>
      <point x="397" y="214" type="line"/>
      <point x="237" y="214" type="line"/>
      <point x="237" y="646" type="line"/>
      <point x="132" y="646" type="line"/>
    </contour>
  </outline>
</glyph>
<glyph name="Msquare" format="1">
	<unicode hex="1F13C"/>
	<advance width="500"/>
	<outline>
		<contour>
			<point x="54" y="124" type="line"/>
			<point x="147" y="124" type="line"/>
			<point x="147" y="338" type="line" smooth="yes"/>
			<point x="147" y="388"/>
			<point x="139" y="466"/>
			<point x="135" y="515" type="curve"/>
			<point x="138" y="515" type="line"/>
			<point x="174" y="396" type="line"/>
			<point x="232" y="171" type="line"/>
			<point x="267" y="171" type="line"/>
			<point x="326" y="396" type="line"/>
			<point x="363" y="515" type="line"/>
			<point x="366" y="515" type="line"/>
			<point x="361" y="465"/>
			<point x="352" y="388"/>
			<point x="352" y="338" type="curve" smooth="yes"/>
			<point x="352" y="124" type="line"/>
			<point x="447" y="124" type="line"/>
			<point x="447" y="646" type="line"/>
			<point x="340" y="646" type="line"/>
			<point x="278" y="402" type="line"/>
			<point x="253" y="305" type="line"/>
			<point x="250" y="305" type="line"/>
			<point x="225" y="402" type="line"/>
			<point x="161" y="646" type="line"/>
			<point x="54" y="646" type="line"/>
		</contour>
	</outline>
</glyph>
<glyph name="N.a" format="1">
  <advance width="500"/>
  <unicode hex="1F13D"/>
  <outline>
    <contour>
      <point x="83" y="124" type="line"/>
      <point x="179" y="124" type="line"/>
      <point x="179" y="330" type="line" smooth="yes"/>
      <point x="179" y="390"/>
      <point x="170" y="461"/>
      <point x="166" y="518" type="curve"/>
      <point x="169" y="518" type="line"/>
      <point x="212" y="400" type="line"/>
      <point x="315" y="124" type="line"/>
      <point x="418" y="124" type="line"/>
      <point x="418" y="646" type="line"/>
      <point x="322" y="646" type="line"/>
      <point x="322" y="442" type="line" smooth="yes"/>
      <point x="322" y="382"/>
      <point x="330" y="308"/>
      <point x="335" y="254" type="curve"/>
      <point x="332" y="254" type="line"/>
      <point x="289" y="370" type="line"/>
      <point x="188" y="646" type="line"/>
      <point x="83" y="646" type="line"/>
    </contour>
  </outline>
</glyph>
<glyph name="Osquare" format="1">
	<unicode hex="1F13E"/>
	<advance width="500"/>
	<outline>
		<contour>
			<point x="250" y="112" type="curve" smooth="yes"/>
			<point x="365" y="112"/>
			<point x="444" y="217"/>
			<point x="444" y="387" type="curve" smooth="yes"/>
			<point x="444" y="559"/>
			<point x="365" y="658"/>
			<point x="250" y="658" type="curve" smooth="yes"/>
			<point x="135" y="658"/>
			<point x="56" y="559"/>
			<point x="56" y="387" type="curve" smooth="yes"/>
			<point x="56" y="217"/>
			<point x="135" y="112"/>
		</contour>
		<contour>
			<point x="250" y="203" type="curve" smooth="yes"/>
			<point x="196" y="203"/>
			<point x="162" y="274"/>
			<point x="162" y="387" type="curve" smooth="yes"/>
			<point x="162" y="502"/>
			<point x="196" y="569"/>
			<point x="250" y="569" type="curve" smooth="yes"/>
			<point x="305" y="569"/>
			<point x="338" y="502"/>
			<point x="338" y="387" type="curve" smooth="yes"/>
			<point x="338" y="274"/>
			<point x="305" y="203"/>
		</contour>
	</outline>
</glyph>
<glyph name="P.a" format="1">
  <advance width="500"/>
  <unicode hex="1F13F"/>
  <outline>
    <contour>
      <point x="102" y="124" type="line"/>
      <point x="207" y="124" type="line"/>
      <point x="207" y="310" type="line"/>
      <point x="260" y="310" type="line" smooth="yes"/>
      <point x="349" y="310"/>
      <point x="426" y="362"/>
      <point x="426" y="481" type="curve" smooth="yes"/>
      <point x="426" y="606"/>
      <point x="350" y="646"/>
      <point x="260" y="646" type="curve" smooth="yes"/>
      <point x="102" y="646" type="line"/>
    </contour>
    <contour>
      <point x="207" y="385" type="line"/>
      <point x="207" y="561" type="line"/>
      <point x="255" y="561" type="line" smooth="yes"/>
      <point x="303" y="561"/>
      <point x="327" y="537"/>
      <point x="327" y="476" type="curve" smooth="yes"/>
      <point x="327" y="417"/>
      <point x="303" y="385"/>
      <point x="256" y="385" type="curve" smooth="yes"/>
    </contour>
  </outline>
</glyph>
<glyph name="Qsquare" format="1">
	<unicode hex="1F140"/>
	<advance width="500"/>
	<outline>
		<contour>
			<point x="377" y="27" type="curve" smooth="yes"/>
			<point x="411" y="27"/>
			<point x="438" y="34"/>
			<point x="453" y="43" type="curve"/>
			<point x="436" y="121" type="line"/>
			<point x="422" y="114"/>
			<point x="407" y="112"/>
			<point x="389" y="112" type="curve" smooth="yes"/>
			<point x="351" y="112"/>
			<point x="319" y="126"/>
			<point x="301" y="164" type="curve"/>
			<point x="384" y="185"/>
			<point x="437" y="274"/>
			<point x="437" y="408" type="curve" smooth="yes"/>
			<point x="437" y="567"/>
			<point x="357" y="658"/>
			<point x="243" y="658" type="curve" smooth="yes"/>
			<point x="128" y="658"/>
			<point x="48" y="568"/>
			<point x="48" y="408" type="curve" smooth="yes"/>
			<point x="48" y="271"/>
			<point x="105" y="182"/>
			<point x="192" y="163" type="curve"/>
			<point x="222" y="82"/>
			<point x="280" y="27"/>
		</contour>
		<contour>
			<point x="243" y="242" type="curve" smooth="yes"/>
			<point x="188" y="242"/>
			<point x="155" y="304"/>
			<point x="155" y="408" type="curve" smooth="yes"/>
			<point x="155" y="511"/>
			<point x="188" y="569"/>
			<point x="243" y="569" type="curve" smooth="yes"/>
			<point x="297" y="569"/>
			<point x="330" y="511"/>
			<point x="330" y="408" type="curve" smooth="yes"/>
			<point x="330" y="304"/>
			<point x="297" y="242"/>
		</contour>
	</outline>
</glyph>
<glyph name="Rsquare" format="1">
	<unicode hex="1F141"/>
	<advance width="500"/>
	<outline>
		<contour>
			<point x="92" y="124" type="line"/>
			<point x="197" y="124" type="line"/>
			<point x="197" y="320" type="line"/>
			<point x="247" y="320" type="line" smooth="yes"/>
			<point x="338" y="320"/>
			<point x="412" y="377"/>
			<point x="412" y="487" type="curve" smooth="yes"/>
			<point x="412" y="608"/>
			<point x="336" y="646"/>
			<point x="246" y="646" type="curve" smooth="yes"/>
			<point x="92" y="646" type="line"/>
		</contour>
		<contour>
			<point x="197" y="395" type="line"/>
			<point x="197" y="561" type="line"/>
			<point x="238" y="561" type="line" smooth="yes"/>
			<point x="286" y="561"/>
			<point x="314" y="539"/>
			<point x="314" y="481" type="curve" smooth="yes"/>
			<point x="314" y="426"/>
			<point x="289" y="395"/>
			<point x="240" y="395" type="curve" smooth="yes"/>
		</contour>
		<contour>
			<point x="323" y="124" type="line"/>
			<point x="432" y="124" type="line"/>
			<point x="318" y="376" type="line"/>
			<point x="231" y="348" type="line"/>
		</contour>
	</outline>
</glyph>
<glyph name="S.a" format="1">
  <advance width="500"/>
  <unicode hex="1F142"/>
  <outline>
    <contour>
      <point x="250" y="112" type="curve" smooth="yes"/>
      <point x="351" y="112"/>
      <point x="409" y="181"/>
      <point x="409" y="271" type="curve" smooth="yes"/>
      <point x="409" y="360"/>
      <point x="363" y="392"/>
      <point x="306" y="420" type="curve" smooth="yes"/>
      <point x="264" y="443" type="line" smooth="yes"/>
      <point x="233" y="461"/>
      <point x="213" y="478"/>
      <point x="213" y="512" type="curve" smooth="yes"/>
      <point x="213" y="552"/>
      <point x="231" y="574"/>
      <point x="260" y="574" type="curve" smooth="yes"/>
      <point x="294" y="574"/>
      <point x="325" y="553"/>
      <point x="355" y="524" type="curve"/>
      <point x="406" y="593" type="line"/>
      <point x="372" y="627"/>
      <point x="326" y="659"/>
      <point x="262" y="659" type="curve" smooth="yes"/>
      <point x="171" y="659"/>
      <point x="110" y="599"/>
      <point x="110" y="507" type="curve" smooth="yes"/>
      <point x="110" y="429"/>
      <point x="158" y="388"/>
      <point x="212" y="362" type="curve" smooth="yes"/>
      <point x="255" y="338" type="line" smooth="yes"/>
      <point x="283" y="320"/>
      <point x="306" y="304"/>
      <point x="306" y="262" type="curve" smooth="yes"/>
      <point x="306" y="224"/>
      <point x="289" y="197"/>
      <point x="254" y="197" type="curve" smooth="yes"/>
      <point x="214" y="197"/>
      <point x="174" y="222"/>
      <point x="138" y="261" type="curve"/>
      <point x="88" y="188" type="line"/>
      <point x="127" y="144"/>
      <point x="187" y="112"/>
    </contour>
  </outline>
</glyph>
<glyph name="T.a" format="1">
  <advance width="500"/>
  <unicode hex="1F143"/>
  <outline>
    <contour>
      <point x="198" y="124" type="line"/>
      <point x="302" y="124" type="line"/>
      <point x="302" y="557" type="line"/>
      <point x="414" y="557" type="line"/>
      <point x="414" y="646" type="line"/>
      <point x="86" y="646" type="line"/>
      <point x="86" y="557" type="line"/>
      <point x="198" y="557" type="line"/>
    </contour>
  </outline>
</glyph>
<glyph name="U.a" format="1">
	<unicode hex="1F144"/>
	<advance width="500"/>
	<outline>
		<contour>
			<point x="251" y="112" type="curve" smooth="yes"/>
			<point x="350" y="112"/>
			<point x="402" y="164"/>
			<point x="402" y="302" type="curve" smooth="yes"/>
			<point x="402" y="646" type="line"/>
			<point x="303" y="646" type="line"/>
			<point x="303" y="298" type="line" smooth="yes"/>
			<point x="303" y="226"/>
			<point x="287" y="203"/>
			<point x="253" y="203" type="curve" smooth="yes"/>
			<point x="218" y="203"/>
			<point x="200" y="226"/>
			<point x="200" y="298" type="curve" smooth="yes"/>
			<point x="200" y="646" type="line"/>
			<point x="98" y="646" type="line"/>
			<point x="98" y="302" type="line" smooth="yes"/>
			<point x="98" y="164"/>
			<point x="153" y="112"/>
		</contour>
	</outline>
</glyph>
<glyph name="Usquare" format="1">
	<unicode hex="1F144"/>
	<advance width="500"/>
	<outline>
		<contour>
			<point x="251" y="112" type="curve" smooth="yes"/>
			<point x="362" y="112"/>
			<point x="420" y="177"/>
			<point x="420" y="352" type="curve" smooth="yes"/>
			<point x="420" y="646" type="line"/>
			<point x="321" y="646" type="line"/>
			<point x="321" y="348" type="line" smooth="yes"/>
			<point x="321" y="238"/>
			<point x="299" y="203"/>
			<point x="253" y="203" type="curve" smooth="yes"/>
			<point x="207" y="203"/>
			<point x="183" y="238"/>
			<point x="183" y="348" type="curve" smooth="yes"/>
			<point x="183" y="646" type="line"/>
			<point x="81" y="646" type="line"/>
			<point x="81" y="352" type="line" smooth="yes"/>
			<point x="81" y="177"/>
			<point x="142" y="112"/>
		</contour>
	</outline>
</glyph>
<glyph name="V.a" format="1">
  <advance width="500"/>
  <unicode hex="1F145"/>
  <outline>
    <contour>
      <point x="187" y="124" type="line"/>
      <point x="310" y="124" type="line"/>
      <point x="435" y="646" type="line"/>
      <point x="332" y="646" type="line"/>
      <point x="286" y="394" type="line" smooth="yes"/>
      <point x="275" y="335"/>
      <point x="266" y="284"/>
      <point x="253" y="225" type="curve"/>
      <point x="250" y="225" type="line"/>
      <point x="239" y="284"/>
      <point x="229" y="335"/>
      <point x="218" y="394" type="curve" smooth="yes"/>
      <point x="171" y="646" type="line"/>
      <point x="63" y="646" type="line"/>
    </contour>
  </outline>
</glyph>
<glyph name="Vsquare" format="1">
	<unicode hex="1F145"/>
	<advance width="500"/>
	<outline>
		<contour>
			<point x="187" y="124" type="line"/>
			<point x="310" y="124" type="line"/>
			<point x="435" y="646" type="line"/>
			<point x="332" y="646" type="line"/>
			<point x="286" y="394" type="line" smooth="yes"/>
			<point x="275" y="335"/>
			<point x="266" y="284"/>
			<point x="253" y="225" type="curve"/>
			<point x="250" y="225" type="line"/>
			<point x="239" y="284"/>
			<point x="229" y="335"/>
			<point x="218" y="394" type="curve" smooth="yes"/>
			<point x="171" y="646" type="line"/>
			<point x="63" y="646" type="line"/>
		</contour>
	</outline>
</glyph>
<glyph name="W.a" format="1">
	<unicode hex="1F146"/>
	<advance width="500"/>
	<outline>
		<contour>
			<point x="72" y="124" type="line"/>
			<point x="195" y="124" type="line"/>
			<point x="233" y="382" type="line" smooth="yes"/>
			<point x="240" y="423"/>
			<point x="245" y="464"/>
			<point x="250" y="503" type="curve"/>
			<point x="253" y="503" type="line"/>
			<point x="256" y="464"/>
			<point x="262" y="423"/>
			<point x="268" y="382" type="curve" smooth="yes"/>
			<point x="307" y="124" type="line"/>
			<point x="432" y="124" type="line"/>
			<point x="507" y="646" type="line"/>
			<point x="412" y="646" type="line"/>
			<point x="384" y="392" type="line" smooth="yes"/>
			<point x="379" y="338"/>
			<point x="373" y="282"/>
			<point x="368" y="226" type="curve"/>
			<point x="365" y="226" type="line"/>
			<point x="357" y="282"/>
			<point x="347" y="338"/>
			<point x="339" y="392" type="curve" smooth="yes"/>
			<point x="297" y="646" type="line"/>
			<point x="212" y="646" type="line"/>
			<point x="169" y="392" type="line" smooth="yes"/>
			<point x="161" y="337"/>
			<point x="152" y="281"/>
			<point x="143" y="226" type="curve"/>
			<point x="141" y="226" type="line"/>
			<point x="135" y="281"/>
			<point x="129" y="336"/>
			<point x="124" y="392" type="curve" smooth="yes"/>
			<point x="97" y="646" type="line"/>
			<point x="-6" y="646" type="line"/>
		</contour>
	</outline>
</glyph>
<glyph name="Y.a" format="1">
	<unicode hex="1F148"/>
	<advance width="500"/>
	<outline>
		<contour>
			<point x="197" y="124" type="line"/>
			<point x="302" y="124" type="line"/>
			<point x="302" y="315" type="line"/>
			<point x="427" y="646" type="line"/>
			<point x="319" y="646" type="line"/>
			<point x="286" y="522" type="line" smooth="yes"/>
			<point x="274" y="482"/>
			<point x="262" y="446"/>
			<point x="251" y="406" type="curve"/>
			<point x="248" y="406" type="line"/>
			<point x="237" y="446"/>
			<point x="226" y="482"/>
			<point x="215" y="522" type="curve"/>
			<point x="182" y="646" type="line"/>
			<point x="72" y="646" type="line"/>
			<point x="197" y="315" type="line"/>
		</contour>
	</outline>
</glyph>
<glyph name="Z.a" format="1">
  <advance width="500"/>
  <unicode hex="1F149"/>
  <outline>
    <contour>
      <point x="97" y="124" type="line"/>
      <point x="403" y="124" type="line"/>
      <point x="403" y="213" type="line"/>
      <point x="222" y="213" type="line"/>
      <point x="401" y="583" type="line"/>
      <point x="401" y="646" type="line"/>
      <point x="114" y="646" type="line"/>
      <point x="114" y="557" type="line"/>
      <point x="276" y="557" type="line"/>
      <point x="97" y="189" type="line"/>
    </contour>
  </outline>
</glyph>
<glyph name="Zsquare" format="1">
	<unicode hex="1F149"/>
	<advance width="500"/>
	<outline>
		<contour>
			<point x="97" y="124" type="line"/>
			<point x="403" y="124" type="line"/>
			<point x="403" y="213" type="line"/>
			<point x="222" y="213" type="line"/>
			<point x="401" y="583" type="line"/>
			<point x="401" y="646" type="line"/>
			<point x="114" y="646" type="line"/>
			<point x="114" y="557" type="line"/>
			<point x="276" y="557" type="line"/>
			<point x="97" y="189" type="line"/>
		</contour>
	</outline>
</glyph>
<glyph name="ABsquareblack" format="1">
	<advance width="1000"/>
	<outline>
		<contour>
			<point x="566" y="124" type="line" smooth="yes"/>
			<point x="552" y="124"/>
			<point x="543" y="133"/>
			<point x="543" y="147" type="curve" smooth="yes"/>
			<point x="543" y="623" type="line" smooth="yes"/>
			<point x="543" y="637"/>
			<point x="552" y="646"/>
			<point x="566" y="646" type="curve" smooth="yes"/>
			<point x="681" y="646" type="line" smooth="yes"/>
			<point x="779" y="646"/>
			<point x="852" y="615"/>
			<point x="852" y="516" type="curve" smooth="yes"/>
			<point x="852" y="469"/>
			<point x="824" y="421"/>
			<point x="762" y="405" type="curve"/>
			<point x="762" y="401" type="line"/>
			<point x="831" y="388"/>
			<point x="871" y="347"/>
			<point x="871" y="277" type="curve" smooth="yes"/>
			<point x="871" y="171"/>
			<point x="795" y="124"/>
			<point x="696" y="124" type="curve" smooth="yes"/>
		</contour>
		<contour>
			<point x="652" y="430" type="line"/>
			<point x="676" y="430" type="line" smooth="yes"/>
			<point x="731" y="430"/>
			<point x="753" y="457"/>
			<point x="753" y="502" type="curve" smooth="yes"/>
			<point x="753" y="548"/>
			<point x="728" y="567"/>
			<point x="678" y="567" type="curve" smooth="yes"/>
			<point x="652" y="567" type="line"/>
		</contour>
		<contour>
			<point x="652" y="204" type="line"/>
			<point x="686" y="204" type="line" smooth="yes"/>
			<point x="736" y="204"/>
			<point x="766" y="228"/>
			<point x="766" y="285" type="curve" smooth="yes"/>
			<point x="766" y="336"/>
			<point x="738" y="361"/>
			<point x="686" y="361" type="curve" smooth="yes"/>
			<point x="652" y="361" type="line"/>
		</contour>
		<contour>
			<point x="271" y="335" type="line"/>
			<point x="354" y="335" type="line"/>
			<point x="346" y="376" type="line" smooth="yes"/>
			<point x="336" y="430"/>
			<point x="327" y="481"/>
			<point x="315" y="545" type="curve"/>
			<point x="312" y="545" type="line"/>
			<point x="299" y="480"/>
			<point x="289" y="430"/>
			<point x="279" y="376" type="curve" smooth="yes"/>
		</contour>
		<contour>
			<point x="148" y="124" type="line" smooth="yes"/>
			<point x="138" y="124"/>
			<point x="131" y="133"/>
			<point x="133" y="143" type="curve" smooth="yes"/>
			<point x="246" y="627" type="line" smooth="yes"/>
			<point x="249" y="639"/>
			<point x="258" y="646"/>
			<point x="271" y="646" type="curve" smooth="yes"/>
			<point x="350" y="646" type="line" smooth="yes"/>
			<point x="363" y="646"/>
			<point x="372" y="639"/>
			<point x="375" y="627" type="curve" smooth="yes"/>
			<point x="444" y="335" type="line"/>
			<point x="445" y="335" type="line"/>
			<point x="445" y="330" type="line"/>
			<point x="489" y="143" type="line" smooth="yes"/>
			<point x="491" y="133"/>
			<point x="484" y="124"/>
			<point x="474" y="124" type="curve" smooth="yes"/>
			<point x="413" y="124" type="line" smooth="yes"/>
			<point x="400" y="124"/>
			<point x="391" y="131"/>
			<point x="389" y="144" type="curve" smooth="yes"/>
			<point x="368" y="256" type="line"/>
			<point x="257" y="256" type="line"/>
			<point x="236" y="144" type="line" smooth="yes"/>
			<point x="234" y="131"/>
			<point x="225" y="124"/>
			<point x="212" y="124" type="curve" smooth="yes"/>
		</contour>
		<contour>
			<point x="250" y="-70" type="curve" smooth="yes"/>
			<point x="750" y="-70" type="line" smooth="yes"/>
			<point x="876" y="-70"/>
			<point x="950" y="4"/>
			<point x="950" y="130" type="curve" smooth="yes"/>
			<point x="950" y="630" type="line" smooth="yes"/>
			<point x="950" y="756"/>
			<point x="876" y="830"/>
			<point x="750" y="830" type="curve" smooth="yes"/>
			<point x="250" y="830" type="line" smooth="yes"/>
			<point x="124" y="830"/>
			<point x="50" y="756"/>
			<point x="50" y="630" type="curve" smooth="yes"/>
			<point x="50" y="130" type="line" smooth="yes"/>
			<point x="50" y="3"/>
			<point x="124" y="-70"/>
		</contour>
	</outline>
</glyph>
<glyph name="Aregionindicator" format="1">
	<advance width="1000"/>
	<outline>
		<contour>
			<point x="263" y="143" type="line" smooth="yes"/>
			<point x="260" y="134"/>
			<point x="267" y="124"/>
			<point x="277" y="124" type="curve" smooth="yes"/>
			<point x="346" y="124" type="line" smooth="yes"/>
			<point x="359" y="124"/>
			<point x="368" y="130"/>
			<point x="372" y="143" type="curve" smooth="yes"/>
			<point x="449" y="395" type="line" smooth="yes"/>
			<point x="466" y="450"/>
			<point x="480" y="508"/>
			<point x="495" y="563" type="curve"/>
			<point x="499" y="563" type="line"/>
			<point x="516" y="509"/>
			<point x="529" y="451"/>
			<point x="546" y="395" type="curve" smooth="yes"/>
			<point x="622" y="143" type="line" smooth="yes"/>
			<point x="626" y="130"/>
			<point x="635" y="124"/>
			<point x="648" y="124" type="curve" smooth="yes"/>
			<point x="722" y="124" type="line" smooth="yes"/>
			<point x="732" y="124"/>
			<point x="738" y="134"/>
			<point x="735" y="143" type="curve" smooth="yes"/>
			<point x="569" y="627" type="line" smooth="yes"/>
			<point x="564" y="640"/>
			<point x="556" y="646"/>
			<point x="542" y="646" type="curve" smooth="yes"/>
			<point x="456" y="646" type="line" smooth="yes"/>
			<point x="442" y="646"/>
			<point x="434" y="640"/>
			<point x="429" y="627" type="curve" smooth="yes"/>
		</contour>
		<contour>
			<point x="366" y="256" type="line"/>
			<point x="631" y="256" type="line"/>
			<point x="631" y="335" type="line"/>
			<point x="366" y="335" type="line"/>
		</contour>
		<component base="borderdotted"/>
	</outline>
</glyph>
<glyph name="Aregionindicator" format="1">
  <advance width="1000"/>
  <outline>
    <contour>
      <point x="250" y="-36" type="line" smooth="yes"/>
      <point x="146" y="-36"/>
      <point x="84" y="26"/>
      <point x="84" y="130" type="curve" smooth="yes"/>
      <point x="84" y="630" type="line" smooth="yes"/>
      <point x="84" y="734"/>
      <point x="146" y="796"/>
      <point x="250" y="796" type="curve" smooth="yes"/>
      <point x="750" y="796" type="line" smooth="yes"/>
      <point x="854" y="796"/>
      <point x="916" y="734"/>
      <point x="916" y="630" type="curve" smooth="yes"/>
      <point x="916" y="130" type="line" smooth="yes"/>
      <point x="916" y="26"/>
      <point x="854" y="-36"/>
      <point x="750" y="-36" type="curve" smooth="yes"/>
    </contour>
    <contour>
      <point x="263" y="143" type="line" smooth="yes"/>
      <point x="260" y="134"/>
      <point x="267" y="124"/>
      <point x="277" y="124" type="curve" smooth="yes"/>
      <point x="346" y="124" type="line" smooth="yes"/>
      <point x="359" y="124"/>
      <point x="368" y="130"/>
      <point x="372" y="143" type="curve" smooth="yes"/>
      <point x="449" y="395" type="line" smooth="yes"/>
      <point x="466" y="450"/>
      <point x="480" y="508"/>
      <point x="495" y="563" type="curve"/>
      <point x="499" y="563" type="line"/>
      <point x="516" y="509"/>
      <point x="529" y="451"/>
      <point x="546" y="395" type="curve" smooth="yes"/>
      <point x="622" y="143" type="line" smooth="yes"/>
      <point x="626" y="130"/>
      <point x="635" y="124"/>
      <point x="648" y="124" type="curve" smooth="yes"/>
      <point x="722" y="124" type="line" smooth="yes"/>
      <point x="732" y="124"/>
      <point x="738" y="134"/>
      <point x="735" y="143" type="curve" smooth="yes"/>
      <point x="569" y="627" type="line" smooth="yes"/>
      <point x="564" y="640"/>
      <point x="556" y="646"/>
      <point x="542" y="646" type="curve" smooth="yes"/>
      <point x="456" y="646" type="line" smooth="yes"/>
      <point x="442" y="646"/>
      <point x="434" y="640"/>
      <point x="429" y="627" type="curve" smooth="yes"/>
    </contour>
    <contour>
      <point x="366" y="256" type="line"/>
      <point x="631" y="256" type="line"/>
      <point x="631" y="335" type="line"/>
      <point x="366" y="335" type="line"/>
    </contour>
    <contour>
      <point x="250" y="-70" type="curve" smooth="yes"/>
      <point x="750" y="-70" type="line" smooth="yes"/>
      <point x="876" y="-70"/>
      <point x="950" y="4"/>
      <point x="950" y="130" type="curve" smooth="yes"/>
      <point x="950" y="630" type="line" smooth="yes"/>
      <point x="950" y="756"/>
      <point x="876" y="830"/>
      <point x="750" y="830" type="curve" smooth="yes"/>
      <point x="250" y="830" type="line" smooth="yes"/>
      <point x="124" y="830"/>
      <point x="50" y="756"/>
      <point x="50" y="630" type="curve" smooth="yes"/>
      <point x="50" y="130" type="line" smooth="yes"/>
      <point x="50" y="3"/>
      <point x="124" y="-70"/>
    </contour>
  </outline>
</glyph>
<glyph name="Bsquareblack" format="1">
	<advance width="1000"/>
	<outline>
		<contour>
			<point x="250" y="-70" type="curve" smooth="yes"/>
			<point x="750" y="-70" type="line" smooth="yes"/>
			<point x="876" y="-70"/>
			<point x="950" y="4"/>
			<point x="950" y="130" type="curve" smooth="yes"/>
			<point x="950" y="630" type="line" smooth="yes"/>
			<point x="950" y="756"/>
			<point x="876" y="830"/>
			<point x="750" y="830" type="curve" smooth="yes"/>
			<point x="250" y="830" type="line" smooth="yes"/>
			<point x="124" y="830"/>
			<point x="50" y="756"/>
			<point x="50" y="630" type="curve" smooth="yes"/>
			<point x="50" y="130" type="line" smooth="yes"/>
			<point x="50" y="3"/>
			<point x="124" y="-70"/>
		</contour>
		<contour>
			<point x="336" y="124" type="line" smooth="yes"/>
			<point x="322" y="124"/>
			<point x="313" y="133"/>
			<point x="313" y="147" type="curve" smooth="yes"/>
			<point x="313" y="623" type="line" smooth="yes"/>
			<point x="313" y="637"/>
			<point x="322" y="646"/>
			<point x="336" y="646" type="curve" smooth="yes"/>
			<point x="495" y="646" type="line" smooth="yes"/>
			<point x="610" y="646"/>
			<point x="696" y="615"/>
			<point x="696" y="516" type="curve" smooth="yes"/>
			<point x="696" y="469"/>
			<point x="668" y="421"/>
			<point x="606" y="405" type="curve"/>
			<point x="606" y="401" type="line"/>
			<point x="681" y="387"/>
			<point x="725" y="347"/>
			<point x="725" y="277" type="curve" smooth="yes"/>
			<point x="725" y="171"/>
			<point x="632" y="124"/>
			<point x="510" y="124" type="curve" smooth="yes"/>
		</contour>
		<contour>
			<point x="422" y="430" type="line"/>
			<point x="490" y="430" type="line" smooth="yes"/>
			<point x="566" y="430"/>
			<point x="597" y="457"/>
			<point x="597" y="502" type="curve" smooth="yes"/>
			<point x="597" y="548"/>
			<point x="562" y="567"/>
			<point x="492" y="567" type="curve" smooth="yes"/>
			<point x="422" y="567" type="line"/>
		</contour>
		<contour>
			<point x="422" y="204" type="line"/>
			<point x="500" y="204" type="line" smooth="yes"/>
			<point x="575" y="204"/>
			<point x="620" y="228"/>
			<point x="620" y="285" type="curve" smooth="yes"/>
			<point x="620" y="336"/>
			<point x="579" y="361"/>
			<point x="500" y="361" type="curve" smooth="yes"/>
			<point x="422" y="361" type="line"/>
		</contour>
	</outline>
</glyph>
<glyph name="Bregionindicator" format="1">
  <advance width="1000"/>
  <outline>
    <contour>
      <point x="50" y="-70" type="line"/>
      <point x="950" y="-70" type="line"/>
      <point x="950" y="830" type="line"/>
      <point x="50" y="830" type="line"/>
    </contour>
    <contour>
      <point x="84" y="-36" type="line"/>
      <point x="84" y="796" type="line"/>
      <point x="916" y="796" type="line"/>
      <point x="916" y="-36" type="line"/>
    </contour>
    <contour>
      <point x="313" y="144" type="line" smooth="yes"/>
      <point x="313" y="132"/>
      <point x="321" y="124"/>
      <point x="333" y="124" type="curve" smooth="yes"/>
      <point x="510" y="124" type="line" smooth="yes"/>
      <point x="632" y="124"/>
      <point x="725" y="171"/>
      <point x="725" y="277" type="curve" smooth="yes"/>
      <point x="725" y="347"/>
      <point x="681" y="387"/>
      <point x="606" y="401" type="curve"/>
      <point x="606" y="405" type="line"/>
      <point x="668" y="421"/>
      <point x="696" y="469"/>
      <point x="696" y="516" type="curve" smooth="yes"/>
      <point x="696" y="615"/>
      <point x="610" y="646"/>
      <point x="495" y="646" type="curve" smooth="yes"/>
      <point x="333" y="646" type="line" smooth="yes"/>
      <point x="321" y="646"/>
      <point x="313" y="638"/>
      <point x="313" y="626" type="curve" smooth="yes"/>
    </contour>
    <contour>
      <point x="422" y="430" type="line"/>
      <point x="422" y="567" type="line"/>
      <point x="492" y="567" type="line" smooth="yes"/>
      <point x="562" y="567"/>
      <point x="597" y="548"/>
      <point x="597" y="502" type="curve" smooth="yes"/>
      <point x="597" y="457"/>
      <point x="566" y="430"/>
      <point x="490" y="430" type="curve" smooth="yes"/>
    </contour>
    <contour>
      <point x="422" y="204" type="line"/>
      <point x="422" y="361" type="line"/>
      <point x="500" y="361" type="line" smooth="yes"/>
      <point x="579" y="361"/>
      <point x="620" y="336"/>
      <point x="620" y="285" type="curve" smooth="yes"/>
      <point x="620" y="228"/>
      <point x="575" y="204"/>
      <point x="500" y="204" type="curve" smooth="yes"/>
    </contour>
  </outline>
</glyph>
<glyph name="CLsquare" format="1">
	<advance width="1000"/>
	<outline>
		<contour>
			<point x="369" y="112" type="curve" smooth="yes"/>
			<point x="255" y="112"/>
			<point x="162" y="206"/>
			<point x="162" y="383" type="curve" smooth="yes"/>
			<point x="162" y="556"/>
			<point x="260" y="658"/>
			<point x="376" y="658" type="curve" smooth="yes"/>
			<point x="431" y="658"/>
			<point x="478" y="628"/>
			<point x="496" y="606" type="curve" smooth="yes"/>
			<point x="504" y="597"/>
			<point x="504" y="585"/>
			<point x="496" y="576" type="curve" smooth="yes"/>
			<point x="467" y="540" type="line" smooth="yes"/>
			<point x="460" y="532"/>
			<point x="448" y="532"/>
			<point x="441" y="540" type="curve" smooth="yes"/>
			<point x="431" y="552"/>
			<point x="409" y="569"/>
			<point x="377" y="569" type="curve" smooth="yes"/>
			<point x="313" y="569"/>
			<point x="265" y="500"/>
			<point x="265" y="387" type="curve" smooth="yes"/>
			<point x="265" y="270"/>
			<point x="307" y="203"/>
			<point x="374" y="203" type="curve" smooth="yes"/>
			<point x="411" y="203"/>
			<point x="438" y="222"/>
			<point x="448" y="237" type="curve" smooth="yes"/>
			<point x="454" y="245"/>
			<point x="466" y="246"/>
			<point x="473" y="238" type="curve" smooth="yes"/>
			<point x="502" y="204" type="line" smooth="yes"/>
			<point x="510" y="194"/>
			<point x="511" y="183"/>
			<point x="503" y="173" type="curve" smooth="yes"/>
			<point x="476" y="138"/>
			<point x="427" y="112"/>
		</contour>
		<contour>
			<point x="600" y="124" type="line" smooth="yes"/>
			<point x="588" y="124"/>
			<point x="580" y="132"/>
			<point x="580" y="144" type="curve" smooth="yes"/>
			<point x="580" y="626" type="line" smooth="yes"/>
			<point x="580" y="638"/>
			<point x="588" y="646"/>
			<point x="600" y="646" type="curve" smooth="yes"/>
			<point x="660" y="646" type="line" smooth="yes"/>
			<point x="672" y="646"/>
			<point x="680" y="638"/>
			<point x="680" y="626" type="curve" smooth="yes"/>
			<point x="680" y="214" type="line"/>
			<point x="836" y="214" type="line" smooth="yes"/>
			<point x="848" y="214"/>
			<point x="856" y="206"/>
			<point x="856" y="194" type="curve" smooth="yes"/>
			<point x="856" y="144" type="line" smooth="yes"/>
			<point x="856" y="132"/>
			<point x="848" y="124"/>
			<point x="836" y="124" type="curve" smooth="yes"/>
		</contour>
		<contour>
			<point x="250" y="-70" type="curve" smooth="yes"/>
			<point x="750" y="-70" type="line" smooth="yes"/>
			<point x="876" y="-70"/>
			<point x="950" y="4"/>
			<point x="950" y="130" type="curve" smooth="yes"/>
			<point x="950" y="630" type="line" smooth="yes"/>
			<point x="950" y="756"/>
			<point x="876" y="830"/>
			<point x="750" y="830" type="curve" smooth="yes"/>
			<point x="250" y="830" type="line" smooth="yes"/>
			<point x="124" y="830"/>
			<point x="50" y="756"/>
			<point x="50" y="630" type="curve" smooth="yes"/>
			<point x="50" y="130" type="line" smooth="yes"/>
			<point x="50" y="3"/>
			<point x="124" y="-70"/>
		</contour>
	</outline>
</glyph>
<glyph name="COOLsquare" format="1">
	<advance width="1000"/>
	<outline>
		<contour>
			<point x="237" y="112" type="curve" smooth="yes"/>
			<point x="178" y="112"/>
			<point x="131" y="176"/>
			<point x="131" y="383" type="curve" smooth="yes"/>
			<point x="131" y="587"/>
			<point x="183" y="658"/>
			<point x="244" y="658" type="curve" smooth="yes"/>
			<point x="280" y="658"/>
			<point x="301" y="630"/>
			<point x="309" y="609" type="curve" smooth="yes"/>
			<point x="314" y="596"/>
			<point x="311" y="586"/>
			<point x="300" y="578" type="curve" smooth="yes"/>
			<point x="289" y="570" type="line" smooth="yes"/>
			<point x="281" y="564"/>
			<point x="269" y="567"/>
			<point x="265" y="576" type="curve" smooth="yes"/>
			<point x="264" y="579"/>
			<point x="257" y="591"/>
			<point x="245" y="591" type="curve" smooth="yes"/>
			<point x="216" y="591"/>
			<point x="196" y="545"/>
			<point x="196" y="387" type="curve" smooth="yes"/>
			<point x="196" y="224"/>
			<point x="213" y="181"/>
			<point x="242" y="181" type="curve" smooth="yes"/>
			<point x="258" y="181"/>
			<point x="269" y="195"/>
			<point x="271" y="201" type="curve" smooth="yes"/>
			<point x="275" y="211"/>
			<point x="286" y="214"/>
			<point x="294" y="209" type="curve" smooth="yes"/>
			<point x="307" y="200" type="line" smooth="yes"/>
			<point x="317" y="193"/>
			<point x="321" y="183"/>
			<point x="316" y="170" type="curve" smooth="yes"/>
			<point x="303" y="133"/>
			<point x="277" y="112"/>
		</contour>
		<contour>
			<point x="420" y="112" type="curve" smooth="yes"/>
			<point x="363" y="112"/>
			<point x="323" y="171"/>
			<point x="323" y="387" type="curve" smooth="yes"/>
			<point x="323" y="605"/>
			<point x="363" y="658"/>
			<point x="420" y="658" type="curve" smooth="yes"/>
			<point x="477" y="658"/>
			<point x="516" y="604"/>
			<point x="516" y="387" type="curve" smooth="yes"/>
			<point x="516" y="171"/>
			<point x="477" y="112"/>
		</contour>
		<contour>
			<point x="420" y="181" type="curve" smooth="yes"/>
			<point x="440" y="181"/>
			<point x="451" y="210"/>
			<point x="451" y="387" type="curve" smooth="yes"/>
			<point x="451" y="566"/>
			<point x="440" y="591"/>
			<point x="420" y="591" type="curve" smooth="yes"/>
			<point x="401" y="591"/>
			<point x="389" y="566"/>
			<point x="389" y="387" type="curve" smooth="yes"/>
			<point x="389" y="210"/>
			<point x="400" y="181"/>
		</contour>
		<contour>
			<point x="637" y="112" type="curve" smooth="yes"/>
			<point x="579" y="112"/>
			<point x="540" y="171"/>
			<point x="540" y="387" type="curve" smooth="yes"/>
			<point x="540" y="605"/>
			<point x="579" y="658"/>
			<point x="637" y="658" type="curve" smooth="yes"/>
			<point x="693" y="658"/>
			<point x="732" y="604"/>
			<point x="732" y="387" type="curve" smooth="yes"/>
			<point x="732" y="171"/>
			<point x="693" y="112"/>
		</contour>
		<contour>
			<point x="637" y="181" type="curve" smooth="yes"/>
			<point x="656" y="181"/>
			<point x="667" y="210"/>
			<point x="667" y="387" type="curve" smooth="yes"/>
			<point x="667" y="566"/>
			<point x="657" y="591"/>
			<point x="637" y="591" type="curve" smooth="yes"/>
			<point x="617" y="591"/>
			<point x="606" y="566"/>
			<point x="606" y="387" type="curve" smooth="yes"/>
			<point x="606" y="210"/>
			<point x="617" y="181"/>
		</contour>
		<contour>
			<point x="786" y="124" type="line" smooth="yes"/>
			<point x="774" y="124"/>
			<point x="766" y="132"/>
			<point x="766" y="144" type="curve" smooth="yes"/>
			<point x="766" y="626" type="line" smooth="yes"/>
			<point x="766" y="638"/>
			<point x="774" y="646"/>
			<point x="786" y="646" type="curve" smooth="yes"/>
			<point x="803" y="646" type="line" smooth="yes"/>
			<point x="815" y="646"/>
			<point x="823" y="638"/>
			<point x="823" y="626" type="curve" smooth="yes"/>
			<point x="823" y="193" type="line"/>
			<point x="864" y="193" type="line" smooth="yes"/>
			<point x="876" y="193"/>
			<point x="884" y="185"/>
			<point x="884" y="173" type="curve" smooth="yes"/>
			<point x="884" y="144" type="line" smooth="yes"/>
			<point x="884" y="132"/>
			<point x="876" y="124"/>
			<point x="864" y="124" type="curve" smooth="yes"/>
		</contour>
		<contour>
			<point x="250" y="-70" type="curve" smooth="yes"/>
			<point x="750" y="-70" type="line" smooth="yes"/>
			<point x="876" y="-70"/>
			<point x="950" y="4"/>
			<point x="950" y="130" type="curve" smooth="yes"/>
			<point x="950" y="630" type="line" smooth="yes"/>
			<point x="950" y="756"/>
			<point x="876" y="830"/>
			<point x="750" y="830" type="curve" smooth="yes"/>
			<point x="250" y="830" type="line" smooth="yes"/>
			<point x="124" y="830"/>
			<point x="50" y="756"/>
			<point x="50" y="630" type="curve" smooth="yes"/>
			<point x="50" y="130" type="line" smooth="yes"/>
			<point x="50" y="3"/>
			<point x="124" y="-70"/>
		</contour>
	</outline>
</glyph>
<glyph name="ENDarrowaboveleft" format="1">
	<advance width="1000"/>
	<outline>
		<contour>
			<point x="250" y="-70" type="curve" smooth="yes"/>
			<point x="750" y="-70" type="line" smooth="yes"/>
			<point x="876" y="-70"/>
			<point x="950" y="4"/>
			<point x="950" y="130" type="curve" smooth="yes"/>
			<point x="950" y="630" type="line" smooth="yes"/>
			<point x="950" y="756"/>
			<point x="876" y="830"/>
			<point x="750" y="830" type="curve" smooth="yes"/>
			<point x="250" y="830" type="line" smooth="yes"/>
			<point x="124" y="830"/>
			<point x="50" y="756"/>
			<point x="50" y="630" type="curve" smooth="yes"/>
			<point x="50" y="130" type="line" smooth="yes"/>
			<point x="50" y="3"/>
			<point x="124" y="-70"/>
		</contour>
		<contour>
			<point x="385" y="124" type="line"/>
			<point x="385" y="646" type="line"/>
			<point x="463" y="646" type="line"/>
			<point x="528" y="385" type="line"/>
			<point x="556" y="244" type="line"/>
			<point x="559" y="244" type="line"/>
			<point x="556" y="294"/>
			<point x="553" y="349"/>
			<point x="553" y="401" type="curve" smooth="yes"/>
			<point x="553" y="646" type="line"/>
			<point x="614" y="646" type="line"/>
			<point x="614" y="124" type="line"/>
			<point x="538" y="124" type="line"/>
			<point x="471" y="384" type="line"/>
			<point x="443" y="528" type="line"/>
			<point x="440" y="528" type="line"/>
			<point x="443" y="477"/>
			<point x="446" y="424"/>
			<point x="446" y="373" type="curve" smooth="yes"/>
			<point x="446" y="124" type="line"/>
		</contour>
		<contour>
			<point x="169" y="124" type="line"/>
			<point x="169" y="646" type="line"/>
			<point x="339" y="646" type="line"/>
			<point x="339" y="584" type="line"/>
			<point x="231" y="584" type="line"/>
			<point x="231" y="426" type="line"/>
			<point x="323" y="426" type="line"/>
			<point x="323" y="362" type="line"/>
			<point x="231" y="362" type="line"/>
			<point x="231" y="188" type="line"/>
			<point x="347" y="188" type="line"/>
			<point x="347" y="124" type="line"/>
		</contour>
		<contour>
			<point x="657" y="124" type="line"/>
			<point x="657" y="646" type="line"/>
			<point x="725" y="646" type="line" smooth="yes"/>
			<point x="795" y="646"/>
			<point x="842" y="566"/>
			<point x="842" y="387" type="curve" smooth="yes"/>
			<point x="842" y="209"/>
			<point x="796" y="124"/>
			<point x="730" y="124" type="curve" smooth="yes"/>
		</contour>
		<contour>
			<point x="719" y="188" type="line"/>
			<point x="729" y="188" type="line" smooth="yes"/>
			<point x="757" y="188"/>
			<point x="779" y="253"/>
			<point x="779" y="387" type="curve" smooth="yes"/>
			<point x="779" y="518"/>
			<point x="757" y="584"/>
			<point x="729" y="584" type="curve" smooth="yes"/>
			<point x="719" y="584" type="line"/>
		</contour>
	</outline>
</glyph>
<glyph name="Eregionindicator" format="1">
  <advance width="1000"/>
  <outline>
    <contour>
      <point x="345" y="144" type="line" smooth="yes"/>
      <point x="345" y="132"/>
      <point x="353" y="124"/>
      <point x="365" y="124" type="curve" smooth="yes"/>
      <point x="675" y="124" type="line" smooth="yes"/>
      <point x="687" y="124"/>
      <point x="695" y="132"/>
      <point x="695" y="144" type="curve" smooth="yes"/>
      <point x="695" y="190" type="line" smooth="yes"/>
      <point x="695" y="202"/>
      <point x="687" y="210"/>
      <point x="675" y="210" type="curve" smooth="yes"/>
      <point x="454" y="210" type="line"/>
      <point x="454" y="354" type="line"/>
      <point x="630" y="354" type="line" smooth="yes"/>
      <point x="642" y="354"/>
      <point x="650" y="362"/>
      <point x="650" y="374" type="curve" smooth="yes"/>
      <point x="650" y="415" type="line" smooth="yes"/>
      <point x="650" y="427"/>
      <point x="642" y="435"/>
      <point x="630" y="435" type="curve" smooth="yes"/>
      <point x="454" y="435" type="line"/>
      <point x="454" y="562" type="line"/>
      <point x="665" y="562" type="line" smooth="yes"/>
      <point x="677" y="562"/>
      <point x="685" y="570"/>
      <point x="685" y="582" type="curve" smooth="yes"/>
      <point x="685" y="626" type="line" smooth="yes"/>
      <point x="685" y="638"/>
      <point x="677" y="646"/>
      <point x="665" y="646" type="curve" smooth="yes"/>
      <point x="365" y="646" type="line" smooth="yes"/>
      <point x="353" y="646"/>
      <point x="345" y="638"/>
      <point x="345" y="626" type="curve" smooth="yes"/>
    </contour>
    <component base="borderdotted"/>
  </outline>
</glyph>
<glyph name="Fregionindicator" format="1">
  <advance width="1000"/>
  <outline>
    <contour>
      <point x="345" y="144" type="line" smooth="yes"/>
      <point x="345" y="132"/>
      <point x="353" y="124"/>
      <point x="365" y="124" type="curve" smooth="yes"/>
      <point x="434" y="124" type="line" smooth="yes"/>
      <point x="446" y="124"/>
      <point x="454" y="132"/>
      <point x="454" y="144" type="curve" smooth="yes"/>
      <point x="454" y="335" type="line"/>
      <point x="631" y="335" type="line" smooth="yes"/>
      <point x="643" y="335"/>
      <point x="651" y="343"/>
      <point x="651" y="355" type="curve" smooth="yes"/>
      <point x="651" y="398" type="line" smooth="yes"/>
      <point x="651" y="410"/>
      <point x="643" y="418"/>
      <point x="631" y="418" type="curve" smooth="yes"/>
      <point x="454" y="418" type="line"/>
      <point x="454" y="537" type="line" smooth="yes"/>
      <point x="454" y="549"/>
      <point x="462" y="557"/>
      <point x="474" y="557" type="curve" smooth="yes"/>
      <point x="666" y="557" type="line" smooth="yes"/>
      <point x="678" y="557"/>
      <point x="686" y="565"/>
      <point x="686" y="577" type="curve" smooth="yes"/>
      <point x="686" y="626" type="line" smooth="yes"/>
      <point x="686" y="638"/>
      <point x="678" y="646"/>
      <point x="666" y="646" type="curve" smooth="yes"/>
      <point x="365" y="646" type="line" smooth="yes"/>
      <point x="353" y="646"/>
      <point x="345" y="638"/>
      <point x="345" y="626" type="curve" smooth="yes"/>
    </contour>
    <component base="borderdotted"/>
  </outline>
</glyph>
<glyph name="Gregionindicator" format="1">
	<advance width="1000"/>
	<outline>
		<contour>
			<point x="526" y="112" type="curve" smooth="yes"/>
			<point x="602" y="112"/>
			<point x="669" y="138"/>
			<point x="694" y="160" type="curve" smooth="yes"/>
			<point x="705" y="170"/>
			<point x="709" y="178"/>
			<point x="709" y="193" type="curve" smooth="yes"/>
			<point x="709" y="390" type="line" smooth="yes"/>
			<point x="709" y="402"/>
			<point x="701" y="410"/>
			<point x="689" y="410" type="curve" smooth="yes"/>
			<point x="531" y="410" type="line" smooth="yes"/>
			<point x="519" y="410"/>
			<point x="511" y="402"/>
			<point x="511" y="390" type="curve" smooth="yes"/>
			<point x="511" y="353" type="line" smooth="yes"/>
			<point x="511" y="341"/>
			<point x="519" y="333"/>
			<point x="531" y="333" type="curve" smooth="yes"/>
			<point x="592" y="333" type="line" smooth="yes"/>
			<point x="604" y="333"/>
			<point x="612" y="325"/>
			<point x="612" y="313" type="curve" smooth="yes"/>
			<point x="612" y="223" type="line"/>
			<point x="594" y="209"/>
			<point x="566" y="201"/>
			<point x="535" y="201" type="curve" smooth="yes"/>
			<point x="427" y="201"/>
			<point x="372" y="271"/>
			<point x="372" y="383" type="curve" smooth="yes"/>
			<point x="372" y="501"/>
			<point x="436" y="569"/>
			<point x="532" y="569" type="curve" smooth="yes"/>
			<point x="581" y="569"/>
			<point x="612" y="552"/>
			<point x="625" y="540" type="curve" smooth="yes"/>
			<point x="634" y="532"/>
			<point x="645" y="533"/>
			<point x="653" y="541" type="curve" smooth="yes"/>
			<point x="685" y="576" type="line" smooth="yes"/>
			<point x="694" y="585"/>
			<point x="693" y="597"/>
			<point x="685" y="605" type="curve" smooth="yes"/>
			<point x="663" y="626"/>
			<point x="608" y="658"/>
			<point x="531" y="658" type="curve" smooth="yes"/>
			<point x="379" y="658"/>
			<point x="261" y="557"/>
			<point x="261" y="383" type="curve" smooth="yes"/>
			<point x="261" y="206"/>
			<point x="375" y="112"/>
		</contour>
		<component base="borderdotted"/>
	</outline>
</glyph>
<glyph name="Hregionindicator" format="1">
	<advance width="1000"/>
	<outline>
		<contour>
			<point x="283" y="144" type="line" smooth="yes"/>
			<point x="283" y="132"/>
			<point x="291" y="124"/>
			<point x="303" y="124" type="curve" smooth="yes"/>
			<point x="372" y="124" type="line" smooth="yes"/>
			<point x="384" y="124"/>
			<point x="392" y="132"/>
			<point x="392" y="144" type="curve" smooth="yes"/>
			<point x="392" y="349" type="line"/>
			<point x="609" y="349" type="line"/>
			<point x="609" y="144" type="line" smooth="yes"/>
			<point x="609" y="132"/>
			<point x="617" y="124"/>
			<point x="629" y="124" type="curve" smooth="yes"/>
			<point x="698" y="124" type="line" smooth="yes"/>
			<point x="710" y="124"/>
			<point x="718" y="132"/>
			<point x="718" y="144" type="curve" smooth="yes"/>
			<point x="718" y="626" type="line" smooth="yes"/>
			<point x="718" y="638"/>
			<point x="710" y="646"/>
			<point x="698" y="646" type="curve" smooth="yes"/>
			<point x="629" y="646" type="line" smooth="yes"/>
			<point x="617" y="646"/>
			<point x="609" y="638"/>
			<point x="609" y="626" type="curve" smooth="yes"/>
			<point x="609" y="443" type="line"/>
			<point x="392" y="443" type="line"/>
			<point x="392" y="626" type="line" smooth="yes"/>
			<point x="392" y="638"/>
			<point x="384" y="646"/>
			<point x="372" y="646" type="curve" smooth="yes"/>
			<point x="303" y="646" type="line" smooth="yes"/>
			<point x="291" y="646"/>
			<point x="283" y="638"/>
			<point x="283" y="626" type="curve" smooth="yes"/>
		</contour>
		<component base="borderdotted"/>
	</outline>
</glyph>
<glyph name="Hregionindicator" format="1">
  <advance width="1000"/>
  <outline>
    <contour>
      <point x="50" y="-70" type="line"/>
      <point x="950" y="-70" type="line"/>
      <point x="950" y="830" type="line"/>
      <point x="50" y="830" type="line"/>
    </contour>
    <contour>
      <point x="84" y="-36" type="line"/>
      <point x="84" y="796" type="line"/>
      <point x="916" y="796" type="line"/>
      <point x="916" y="-36" type="line"/>
    </contour>
    <contour>
      <point x="283" y="144" type="line" smooth="yes"/>
      <point x="283" y="132"/>
      <point x="291" y="124"/>
      <point x="303" y="124" type="curve" smooth="yes"/>
      <point x="372" y="124" type="line" smooth="yes"/>
      <point x="384" y="124"/>
      <point x="392" y="132"/>
      <point x="392" y="144" type="curve" smooth="yes"/>
      <point x="392" y="349" type="line"/>
      <point x="609" y="349" type="line"/>
      <point x="609" y="144" type="line" smooth="yes"/>
      <point x="609" y="132"/>
      <point x="617" y="124"/>
      <point x="629" y="124" type="curve" smooth="yes"/>
      <point x="698" y="124" type="line" smooth="yes"/>
      <point x="710" y="124"/>
      <point x="718" y="132"/>
      <point x="718" y="144" type="curve" smooth="yes"/>
      <point x="718" y="626" type="line" smooth="yes"/>
      <point x="718" y="638"/>
      <point x="710" y="646"/>
      <point x="698" y="646" type="curve" smooth="yes"/>
      <point x="629" y="646" type="line" smooth="yes"/>
      <point x="617" y="646"/>
      <point x="609" y="638"/>
      <point x="609" y="626" type="curve" smooth="yes"/>
      <point x="609" y="443" type="line"/>
      <point x="392" y="443" type="line"/>
      <point x="392" y="626" type="line" smooth="yes"/>
      <point x="392" y="638"/>
      <point x="384" y="646"/>
      <point x="372" y="646" type="curve" smooth="yes"/>
      <point x="303" y="646" type="line" smooth="yes"/>
      <point x="291" y="646"/>
      <point x="283" y="638"/>
      <point x="283" y="626" type="curve" smooth="yes"/>
    </contour>
  </outline>
</glyph>
<glyph name="IDsquare" format="1">
	<advance width="1000"/>
	<outline>
		<contour>
			<point x="260" y="124" type="line" smooth="yes"/>
			<point x="248" y="124"/>
			<point x="240" y="132"/>
			<point x="240" y="144" type="curve" smooth="yes"/>
			<point x="240" y="626" type="line" smooth="yes"/>
			<point x="240" y="638"/>
			<point x="248" y="646"/>
			<point x="260" y="646" type="curve" smooth="yes"/>
			<point x="320" y="646" type="line" smooth="yes"/>
			<point x="332" y="646"/>
			<point x="340" y="638"/>
			<point x="340" y="626" type="curve" smooth="yes"/>
			<point x="340" y="144" type="line" smooth="yes"/>
			<point x="340" y="132"/>
			<point x="332" y="124"/>
			<point x="320" y="124" type="curve" smooth="yes"/>
		</contour>
		<contour>
			<point x="477" y="124" type="line" smooth="yes"/>
			<point x="465" y="124"/>
			<point x="457" y="132"/>
			<point x="457" y="144" type="curve" smooth="yes"/>
			<point x="457" y="626" type="line" smooth="yes"/>
			<point x="457" y="638"/>
			<point x="465" y="646"/>
			<point x="477" y="646" type="curve" smooth="yes"/>
			<point x="584" y="646" type="line" smooth="yes"/>
			<point x="719" y="646"/>
			<point x="811" y="566"/>
			<point x="811" y="387" type="curve" smooth="yes"/>
			<point x="811" y="209"/>
			<point x="719" y="124"/>
			<point x="589" y="124" type="curve" smooth="yes"/>
		</contour>
		<contour>
			<point x="558" y="209" type="line"/>
			<point x="588" y="209" type="line" smooth="yes"/>
			<point x="656" y="209"/>
			<point x="708" y="267"/>
			<point x="708" y="387" type="curve" smooth="yes"/>
			<point x="708" y="503"/>
			<point x="656" y="561"/>
			<point x="588" y="561" type="curve" smooth="yes"/>
			<point x="558" y="561" type="line"/>
		</contour>
		<contour>
			<point x="250" y="-70" type="curve" smooth="yes"/>
			<point x="750" y="-70" type="line" smooth="yes"/>
			<point x="876" y="-70"/>
			<point x="950" y="4"/>
			<point x="950" y="130" type="curve" smooth="yes"/>
			<point x="950" y="630" type="line" smooth="yes"/>
			<point x="950" y="756"/>
			<point x="876" y="830"/>
			<point x="750" y="830" type="curve" smooth="yes"/>
			<point x="250" y="830" type="line" smooth="yes"/>
			<point x="124" y="830"/>
			<point x="50" y="756"/>
			<point x="50" y="630" type="curve" smooth="yes"/>
			<point x="50" y="130" type="line" smooth="yes"/>
			<point x="50" y="3"/>
			<point x="124" y="-70"/>
		</contour>
	</outline>
</glyph>
<glyph name="Iregionindicator" format="1">
	<advance width="1000"/>
	<outline>
		<contour>
			<point x="445" y="144" type="line" smooth="yes"/>
			<point x="445" y="132"/>
			<point x="453" y="124"/>
			<point x="465" y="124" type="curve" smooth="yes"/>
			<point x="534" y="124" type="line" smooth="yes"/>
			<point x="546" y="124"/>
			<point x="554" y="132"/>
			<point x="554" y="144" type="curve" smooth="yes"/>
			<point x="554" y="626" type="line" smooth="yes"/>
			<point x="554" y="638"/>
			<point x="546" y="646"/>
			<point x="534" y="646" type="curve" smooth="yes"/>
			<point x="465" y="646" type="line" smooth="yes"/>
			<point x="453" y="646"/>
			<point x="445" y="638"/>
			<point x="445" y="626" type="curve" smooth="yes"/>
		</contour>
		<component base="borderdotted"/>
	</outline>
</glyph>
<glyph name="Jregionindicator" format="1">
  <advance width="1000"/>
  <outline>
    <contour>
      <point x="469" y="112" type="curve" smooth="yes"/>
      <point x="588" y="112"/>
      <point x="642" y="194"/>
      <point x="642" y="292" type="curve" smooth="yes"/>
      <point x="642" y="626" type="line" smooth="yes"/>
      <point x="642" y="638"/>
      <point x="634" y="646"/>
      <point x="622" y="646" type="curve" smooth="yes"/>
      <point x="554" y="646" type="line" smooth="yes"/>
      <point x="542" y="646"/>
      <point x="534" y="638"/>
      <point x="534" y="626" type="curve" smooth="yes"/>
      <point x="534" y="300" type="line" smooth="yes"/>
      <point x="534" y="228"/>
      <point x="506" y="204"/>
      <point x="458" y="204" type="curve" smooth="yes"/>
      <point x="424" y="204"/>
      <point x="394" y="222"/>
      <point x="382" y="242" type="curve" smooth="yes"/>
      <point x="376" y="251"/>
      <point x="365" y="254"/>
      <point x="356" y="247" type="curve" smooth="yes"/>
      <point x="315" y="218" type="line" smooth="yes"/>
      <point x="305" y="211"/>
      <point x="303" y="199"/>
      <point x="309" y="189" type="curve" smooth="yes"/>
      <point x="335" y="145"/>
      <point x="390" y="112"/>
    </contour>
    <component base="borderdotted"/>
  </outline>
</glyph>
<glyph name="Kregionindicator" format="1">
	<advance width="1000"/>
	<outline>
		<contour>
			<point x="302" y="144" type="line" smooth="yes"/>
			<point x="302" y="132"/>
			<point x="310" y="124"/>
			<point x="322" y="124" type="curve" smooth="yes"/>
			<point x="391" y="124" type="line" smooth="yes"/>
			<point x="403" y="124"/>
			<point x="411" y="132"/>
			<point x="411" y="144" type="curve" smooth="yes"/>
			<point x="411" y="283" type="line"/>
			<point x="488" y="365" type="line"/>
			<point x="622" y="141" type="line" smooth="yes"/>
			<point x="629" y="129"/>
			<point x="638" y="124"/>
			<point x="652" y="124" type="curve" smooth="yes"/>
			<point x="728" y="124" type="line" smooth="yes"/>
			<point x="736" y="124"/>
			<point x="742" y="134"/>
			<point x="737" y="141" type="curve" smooth="yes"/>
			<point x="551" y="440" type="line"/>
			<point x="709" y="631" type="line" smooth="yes"/>
			<point x="714" y="636"/>
			<point x="709" y="646"/>
			<point x="702" y="646" type="curve" smooth="yes"/>
			<point x="624" y="646" type="line" smooth="yes"/>
			<point x="609" y="646"/>
			<point x="601" y="642"/>
			<point x="591" y="631" type="curve" smooth="yes"/>
			<point x="414" y="421" type="line"/>
			<point x="411" y="421" type="line"/>
			<point x="411" y="626" type="line" smooth="yes"/>
			<point x="411" y="638"/>
			<point x="403" y="646"/>
			<point x="391" y="646" type="curve" smooth="yes"/>
			<point x="322" y="646" type="line" smooth="yes"/>
			<point x="310" y="646"/>
			<point x="302" y="638"/>
			<point x="302" y="626" type="curve" smooth="yes"/>
		</contour>
		<component base="borderdotted"/>
	</outline>
</glyph>
<glyph name="Lregionindicator" format="1">
  <advance width="1000"/>
  <outline>
    <contour>
      <point x="50" y="-70" type="line"/>
      <point x="950" y="-70" type="line"/>
      <point x="950" y="830" type="line"/>
      <point x="50" y="830" type="line"/>
    </contour>
    <contour>
      <point x="84" y="-36" type="line"/>
      <point x="84" y="796" type="line"/>
      <point x="916" y="796" type="line"/>
      <point x="916" y="-36" type="line"/>
    </contour>
    <contour>
      <point x="353" y="144" type="line" smooth="yes"/>
      <point x="353" y="132"/>
      <point x="361" y="124"/>
      <point x="373" y="124" type="curve" smooth="yes"/>
      <point x="668" y="124" type="line" smooth="yes"/>
      <point x="680" y="124"/>
      <point x="688" y="132"/>
      <point x="688" y="144" type="curve" smooth="yes"/>
      <point x="688" y="194" type="line" smooth="yes"/>
      <point x="688" y="206"/>
      <point x="680" y="214"/>
      <point x="668" y="214" type="curve" smooth="yes"/>
      <point x="462" y="214" type="line"/>
      <point x="462" y="626" type="line" smooth="yes"/>
      <point x="462" y="638"/>
      <point x="454" y="646"/>
      <point x="442" y="646" type="curve" smooth="yes"/>
      <point x="373" y="646" type="line" smooth="yes"/>
      <point x="361" y="646"/>
      <point x="353" y="638"/>
      <point x="353" y="626" type="curve" smooth="yes"/>
    </contour>
  </outline>
</glyph>
<glyph name="Mcircle" format="1">
	<advance width="1000"/>
	<outline>
		<contour>
			<point x="500" y="-89" type="curve" smooth="yes"/>
			<point x="757" y="-89"/>
			<point x="969" y="119"/>
			<point x="969" y="380" type="curve" smooth="yes"/>
			<point x="969" y="639"/>
			<point x="759" y="849"/>
			<point x="500" y="849" type="curve" smooth="yes"/>
			<point x="241" y="849"/>
			<point x="31" y="639"/>
			<point x="31" y="380" type="curve" smooth="yes"/>
			<point x="31" y="121"/>
			<point x="241" y="-89"/>
		</contour>
		<contour>
			<point x="254" y="144" type="curve" smooth="yes"/>
			<point x="254" y="626" type="line" smooth="yes"/>
			<point x="254" y="638"/>
			<point x="262" y="646"/>
			<point x="274" y="646" type="curve" smooth="yes"/>
			<point x="349" y="646" type="line" smooth="yes"/>
			<point x="363" y="646"/>
			<point x="371" y="640"/>
			<point x="376" y="627" type="curve" smooth="yes"/>
			<point x="464" y="402" type="line" smooth="yes"/>
			<point x="500" y="305" type="line"/>
			<point x="504" y="305" type="line"/>
			<point x="539" y="402" type="line" smooth="yes"/>
			<point x="624" y="627" type="line" smooth="yes"/>
			<point x="629" y="640"/>
			<point x="637" y="646"/>
			<point x="651" y="646" type="curve" smooth="yes"/>
			<point x="727" y="646" type="line" smooth="yes"/>
			<point x="739" y="646"/>
			<point x="747" y="638"/>
			<point x="747" y="626" type="curve" smooth="yes"/>
			<point x="747" y="144" type="line" smooth="yes"/>
			<point x="747" y="132"/>
			<point x="739" y="124"/>
			<point x="727" y="124" type="curve" smooth="yes"/>
			<point x="668" y="124" type="line" smooth="yes"/>
			<point x="656" y="124"/>
			<point x="648" y="132"/>
			<point x="648" y="144" type="curve" smooth="yes"/>
			<point x="648" y="338" type="line" smooth="yes"/>
			<point x="648" y="388"/>
			<point x="656" y="465"/>
			<point x="661" y="515" type="curve"/>
			<point x="657" y="515" type="line"/>
			<point x="611" y="396" type="line" smooth="yes"/>
			<point x="528" y="190" type="line" smooth="yes"/>
			<point x="523" y="177"/>
			<point x="515" y="171"/>
			<point x="501" y="171" type="curve" smooth="yes"/>
			<point x="498" y="171" type="line" smooth="yes"/>
			<point x="484" y="171"/>
			<point x="476" y="177"/>
			<point x="471" y="190" type="curve" smooth="yes"/>
			<point x="389" y="396" type="line" smooth="yes"/>
			<point x="342" y="515" type="line"/>
			<point x="338" y="515" type="line"/>
			<point x="343" y="466"/>
			<point x="351" y="388"/>
			<point x="351" y="338" type="curve" smooth="yes"/>
			<point x="351" y="144" type="line" smooth="yes"/>
			<point x="351" y="132"/>
			<point x="343" y="124"/>
			<point x="331" y="124" type="curve" smooth="yes"/>
			<point x="274" y="124" type="line" smooth="yes"/>
			<point x="262" y="124"/>
			<point x="254" y="132"/>
		</contour>
	</outline>
</glyph>
